<svg xmlns="http://www.w3.org/2000/svg" id="Calque_2" data-name="Calque 2" viewBox="0 0 80.45 74.11"><defs><style>      .cls-1 {        fill: #fee327;      }    </style></defs><g id="icones"><g><path class="cls-1" d="m.04,33.92c-.46,10.4,3.3,20.96,11.25,28.91s18.51,11.7,28.91,11.25c.44-10.4-3.31-20.96-11.26-28.9C20.99,37.23,10.44,33.48.04,33.92Z"></path><path class="cls-1" d="m51.52,45.17c-7.94,7.94-11.7,18.5-11.26,28.9,10.4.46,20.96-3.3,28.91-11.25,7.95-7.95,11.7-18.51,11.25-28.91-10.4-.44-20.96,3.31-28.9,11.26Z"></path><path class="cls-1" d="m.04.03c-.46,10.4,3.3,20.96,11.25,28.91s18.51,11.7,28.91,11.25c.44-10.4-3.31-20.96-11.26-28.9C20.99,3.35,10.44-.41.04.03Z"></path><path class="cls-1" d="m69.17,28.94c7.95-7.95,11.7-18.51,11.25-28.91-10.4-.44-20.96,3.31-28.9,11.26-7.94,7.94-11.7,18.5-11.26,28.9,10.4.46,20.96-3.3,28.91-11.25Z"></path></g></g></svg>