<?xml version="1.0" encoding="UTF-8" standalone="no"?>
<!-- Created with Inkscape (http://www.inkscape.org/) -->

<svg
   width="281.22699mm"
   height="235.60724mm"
   viewBox="0 0 281.22699 235.60724"
   version="1.1"
   id="svg5"
   xml:space="preserve"
   xmlns:inkscape="http://www.inkscape.org/namespaces/inkscape"
   xmlns:sodipodi="http://sodipodi.sourceforge.net/DTD/sodipodi-0.dtd"
   xmlns="http://www.w3.org/2000/svg"
   xmlns:svg="http://www.w3.org/2000/svg"><sodipodi:namedview
     id="namedview7"
     pagecolor="#ffffff"
     bordercolor="#000000"
     borderopacity="0.25"
     inkscape:showpageshadow="2"
     inkscape:pageopacity="0.0"
     inkscape:pagecheckerboard="0"
     inkscape:deskcolor="#d1d1d1"
     inkscape:document-units="mm"
     showgrid="false" /><defs
     id="defs2"><clipPath
       clipPathUnits="userSpaceOnUse"
       id="clipPath302"><path
         d="M 0,11179.31 H 1200 V 0 H 0 Z"
         id="path300" /></clipPath><clipPath
       clipPathUnits="userSpaceOnUse"
       id="clipPath310"><path
         d="M 91.9409,8971.75 H 889.12 V 8303.88 H 91.9409 Z"
         id="path308" /></clipPath></defs><g
     id="g296"
     transform="matrix(0.35277776,0,0,-0.35277778,-470.42024,3114.9359)"><g
       id="g298"
       clip-path="url(#clipPath302)"
       transform="translate(1071.1273,-142.0055)"><g
         id="g304"
         transform="translate(170.40661)"
         inkscape:export-filename="eco-fond.svg"
         inkscape:export-xdpi="96"
         inkscape:export-ydpi="96"><g
           id="g306" /><g
           id="g538"><g
             clip-path="url(#clipPath310)"
             opacity="0.0500031"
             id="g536"><g
               transform="translate(667.6879,8579.0098)"
               id="g314"><path
                 d="m 0,0 c -13.165,-32.244 -19.461,-65.748 -18.545,-99.366 -0.229,14.615 0.877,29.497 3.319,44.493 C -12.173,-36.289 -7.021,-17.858 0,0 m 23.582,-228.879 -1.335,1.908 c -22.171,32.436 -36.137,69.641 -40.373,107.533 -6.525,58.498 8.739,117.149 44.189,170.304 11.867,18.47 25.872,35.832 41.784,51.63 31.024,30.833 68.343,56.094 110.891,75.098 l 0.534,0.228 0.191,-0.954 -0.343,-0.266 C 120.24,150.31 68.229,108.449 32.664,58.728 30.642,55.941 28.696,53.118 26.826,50.294 5.915,17.706 -8.281,-18.316 -14.31,-55.025 c -10.112,-61.589 2.786,-120.813 37.282,-171.335 l 0.076,-0.153 0.496,-2.366 z"
                 style="fill:#000000;fill-opacity:1;fill-rule:nonzero;stroke:none"
                 id="path312" /></g><g
               transform="translate(888.0193,8631.0977)"
               id="g318"><path
                 d="M 0,0 C 0.382,-15.417 -0.725,-31.138 -3.358,-47.013 -7.479,-71.777 -15.264,-96.2 -26.33,-119.438 -8.433,-83.264 1.603,-43.082 0.038,0 Z m -198.047,-279.479 -0.19,0.955 0.343,0.266 c 7.746,3.473 15.34,7.136 22.743,10.99 45.486,24.194 88.873,59.376 121.079,102.725 25.605,35.717 42.891,76.242 49.798,117.722 9.273,55.788 -0.343,109.554 -27.894,156.605 -0.878,1.527 -1.794,3.053 -2.748,4.541 -2.175,3.473 -4.464,6.983 -6.83,10.379 l -0.077,0.152 -0.496,2.329 1.336,-1.871 c 3.434,-4.998 6.678,-10.073 9.692,-15.263 18.202,-31.1 29.154,-65.977 31.749,-101.122 4.426,-60.215 -14.081,-120.278 -53.538,-173.7 l -0.038,-0.039 c -10.074,-14.081 -21.407,-27.398 -33.923,-39.762 -24.537,-24.269 -53.003,-45.028 -84.79,-62.009 -8.395,-4.541 -16.943,-8.776 -25.681,-12.669 z"
                 style="fill:#000000;fill-opacity:1;fill-rule:nonzero;stroke:none"
                 id="path316" /></g><g
               transform="translate(846.4639,8755.6113)"
               id="g322"><path
                 d="m 0,0 c -58.727,-26.292 -110.586,-68.076 -146.112,-117.684 -39.495,-55.139 -56.743,-116.767 -49.874,-178.127 4.198,-37.625 18.011,-74.525 39.991,-106.769 105.167,47.012 206.785,153.973 197.016,287.11 -2.709,36.824 -14.615,73.266 -34.458,105.434 -2.098,3.358 -4.312,6.754 -6.601,10.074 z m -156.339,-403.802 -0.228,0.344 c -22.171,32.436 -36.137,69.641 -40.373,107.532 -6.869,61.59 10.418,123.407 50.065,178.777 35.679,49.836 87.843,91.811 146.837,118.179 L 0.305,1.183 0.534,0.839 C 2.9,-2.595 5.19,-6.105 7.365,-9.578 27.284,-41.861 39.228,-78.456 41.937,-115.432 46.363,-175.647 27.856,-235.71 -11.601,-289.133 -47.127,-337.29 -98.413,-377.968 -156.033,-403.648 l -0.344,-0.154 z"
                 style="fill:#000000;fill-opacity:1;fill-rule:nonzero;stroke:none"
                 id="path320" /></g><g
               transform="translate(846.5021,8755.4961)"
               id="g326"><path
                 d="m 0,0 c -42.28,-18.927 -79.371,-44.073 -110.242,-74.754 -43.96,-43.654 -73.342,-99.366 -82.806,-156.834 -10.074,-61.436 2.71,-120.545 37.053,-170.992 40.716,18.164 76.738,42.242 107.075,71.511 43.769,42.242 73.991,96.505 85.057,152.79 11.944,60.673 1.335,119.438 -30.68,169.961 C 3.701,-5.532 1.832,-2.709 -0.038,0 Z m -156.339,-403.801 -0.228,0.344 c -34.649,50.713 -47.585,110.203 -37.435,172.021 9.464,57.698 38.961,113.563 83.073,157.37 31.024,30.832 68.343,56.093 110.891,75.097 L 0.305,1.184 0.534,0.84 c 1.946,-2.823 3.893,-5.762 5.724,-8.662 32.13,-50.714 42.777,-109.746 30.795,-170.649 -11.105,-56.475 -41.441,-110.928 -85.324,-153.285 -30.528,-29.459 -66.779,-53.614 -107.724,-71.854 l -0.344,-0.153 z"
                 style="fill:#000000;fill-opacity:1;fill-rule:nonzero;stroke:none"
                 id="path324" /></g><g
               transform="translate(722.4081,8544.8955)"
               id="g330"><path
                 d="m 0,0 c 13.699,-1.984 27.551,3.167 41.136,15.188 13.775,12.21 23.391,28.238 27.932,36.708 7.976,14.921 12.364,35.413 11.753,54.835 -0.61,20.073 -6.334,35.641 -15.645,42.701 C 53.08,158.628 35.908,153.133 15.531,133.634 -2.595,116.271 -32.13,60.94 -24.117,26.216 -21.102,13.013 -12.974,4.197 0.038,0 Z m 5.724,-1.374 c -1.984,0 -3.93,0.153 -5.915,0.42 H -0.267 C -13.623,3.358 -21.98,12.44 -25.071,25.986 -33.122,61.055 -3.396,116.844 14.844,134.32 41.059,159.43 56.972,156.797 65.71,150.195 85.4,135.274 87.537,84.522 69.87,51.438 65.329,42.93 55.636,26.788 41.746,14.463 29.879,3.931 17.782,-1.412 5.724,-1.412 Z"
                 style="fill:#000000;fill-opacity:1;fill-rule:nonzero;stroke:none"
                 id="path328" /></g><g
               transform="translate(788.2711,8721.4199)"
               id="g334"><path
                 d="m 0,0 c -22.171,0 -47.508,-20.339 -64.031,-39.686 -18.24,-21.369 -57.735,-125.62 -33.962,-162.443 7.746,-12.02 21.636,-15.225 41.25,-9.54 39.571,11.905 69.069,53.271 83.493,88.033 14.042,33.886 22.018,79.944 2.213,107.495 C 21.56,-5.876 12.326,-0.457 1.488,0 h -1.45 z m -73.838,-215.37 c -11.143,0 -19.5,4.235 -24.956,12.707 -13.852,21.445 -5.381,63.687 0.916,86.965 8.509,31.481 22.743,64.413 33.16,76.624 17.019,19.957 43.425,40.906 66.244,39.99 11.143,-0.458 20.645,-6.029 28.2,-16.522 20.034,-27.857 12.058,-74.258 -2.099,-108.412 -14.5,-34.953 -44.188,-76.585 -84.103,-88.605 -6.372,-1.832 -12.172,-2.785 -17.362,-2.785 z"
                 style="fill:#000000;fill-opacity:1;fill-rule:nonzero;stroke:none"
                 id="path332" /></g><g
               transform="translate(701.1535,8483.1543)"
               id="g338"><path
                 d="m 0,0 c 14.119,-5.113 37.51,-5.305 68.725,22.896 20.835,18.812 38.426,44.302 47.928,61.893 11.791,21.789 19.27,55.141 19.499,87.004 0.229,34.534 -7.937,61.055 -22.399,72.731 C 96.695,258.262 71.32,251.469 40.296,224.834 9.158,198.084 -43.234,111.615 -35.336,50.675 -32.283,26.979 -20.377,9.959 0,0.038 Z m 15.302,-3.625 c -5.419,0 -10.647,0.915 -15.646,2.747 h -0.038 c -20.682,10.074 -32.778,27.36 -35.869,51.4 -7.937,61.247 44.684,148.135 75.937,174.999 21.903,18.812 52.621,37.51 74.677,19.728 14.73,-11.867 23.01,-38.655 22.781,-73.456 -0.229,-32.016 -7.746,-65.52 -19.613,-87.461 C 107.991,66.702 90.323,41.098 69.412,22.208 50.523,5.113 32.092,-3.587 15.34,-3.587 Z"
                 style="fill:#000000;fill-opacity:1;fill-rule:nonzero;stroke:none"
                 id="path336" /></g><g
               transform="translate(696.3073,8460.2588)"
               id="g342"><path
                 d="m 0,0 c 20.949,-7.556 46.211,0.915 73.075,24.46 22.361,19.613 41.975,46.325 52.851,64.794 25.948,43.998 36.442,91.735 29.458,134.435 -4.769,29.116 -16.675,47.966 -34.457,54.415 -20.301,7.403 -47.585,-1.832 -74.869,-25.261 C 10.494,222.277 -15.683,180.607 -27.665,135.541 -37.472,98.68 -44.303,22.896 -0.038,0 Z m 15.798,-3.702 c -5.457,0 -10.837,0.878 -16.141,2.786 H -0.42 c -44.837,23.2 -38.006,99.52 -28.123,136.687 12.02,45.256 38.312,87.079 74.029,117.758 27.551,23.698 55.178,32.932 75.822,25.453 18.126,-6.601 30.222,-25.681 35.069,-55.178 C 163.36,180.913 152.866,132.946 126.803,88.758 106.502,54.339 59.948,-3.702 15.836,-3.702 Z"
                 style="fill:#000000;fill-opacity:1;fill-rule:nonzero;stroke:none"
                 id="path340" /></g><g
               transform="translate(699.2455,8438.3164)"
               id="g346"><path
                 d="m 0,0 c 24.422,-2.823 52.24,10.112 80.363,37.32 30.871,29.917 50.409,64.871 55.675,74.907 26.788,51.019 34.381,106.541 20.835,152.332 -7.212,24.345 -19.042,38.922 -35.221,43.31 C 90.285,316.379 51.973,284.363 36.9,270.244 -0.916,234.718 -27.513,188.889 -38.045,141.228 -42.128,122.721 -45.371,90.629 -41.021,61.094 -37.472,36.977 -27.475,6.831 0,0 Z m 6.678,-1.335 c -2.29,0 -4.541,0.114 -6.792,0.382 H -0.191 C -28.2,5.991 -38.35,36.557 -41.937,60.94 c -4.35,29.651 -1.107,61.895 2.976,80.479 10.532,47.852 37.244,93.833 75.212,129.513 15.188,14.233 53.881,46.477 85.63,37.853 16.523,-4.465 28.619,-19.27 35.908,-43.96 C 171.373,218.806 163.78,163.017 136.877,111.769 131.611,101.733 111.997,66.627 81.05,36.634 55.293,11.677 29.726,-1.335 6.678,-1.335"
                 style="fill:#000000;fill-opacity:1;fill-rule:nonzero;stroke:none"
                 id="path344" /></g><g
               transform="translate(815.9365,8755.458)"
               id="g350"><path
                 d="m 0,0 h -1.145 c -27.513,-0.763 -58.994,-29.764 -75.899,-45.333 -44.951,-41.402 -74.677,-94.749 -83.721,-150.271 -4.35,-26.673 -5.648,-95.246 18.851,-125.239 7.517,-9.196 16.904,-14.081 27.932,-14.538 27.132,2.365 56.362,18.583 84.599,46.898 22.476,22.551 43.464,51.972 57.621,80.707 24.04,48.843 31.291,101.236 20.453,147.447 C 42.586,-34.343 30.947,0 0.038,0 Z m -113.982,-336.373 v 0 c -11.333,0.457 -20.987,5.456 -28.657,14.882 -24.727,30.26 -23.43,99.214 -19.08,126.002 9.082,55.712 38.923,109.288 84.027,150.843 17.019,15.683 48.653,44.837 76.547,45.6 h 1.183 c 31.558,0 43.387,-34.763 49.569,-61.093 10.914,-46.439 3.625,-99.023 -20.53,-148.095 -14.195,-28.849 -35.259,-58.346 -57.811,-80.975 -28.39,-28.467 -57.849,-44.799 -85.209,-47.164 z"
                 style="fill:#000000;fill-opacity:1;fill-rule:nonzero;stroke:none"
                 id="path348" /></g><g
               transform="translate(691.9189,8404.9277)"
               id="g354"><path
                 d="m 0,0 c 18.088,-2.938 48.5,2.251 90.361,43.387 29.116,28.581 52.469,63.573 63.612,84.866 29.153,55.559 36.9,117.722 21.331,170.495 -9.464,31.939 -22.972,60.254 -57.468,51.134 C 91.201,342.86 64.794,319.812 42.471,298.214 -1.107,256.048 -30.108,202.778 -39.19,148.248 -42.548,128.101 -44.303,95.971 -39.266,66.244 -35.183,42.318 -25.071,11.409 0,-0.038 Z m 8.624,-1.641 c -3.205,0 -6.144,0.267 -8.853,0.687 h -0.115 c -20.186,9.196 -33.999,32.358 -39.876,67.046 -5.075,29.84 -3.282,62.085 0.076,82.309 9.121,54.758 38.198,108.182 81.928,150.5 22.4,21.674 48.959,44.799 75.785,51.897 35.335,9.31 49.072,-19.385 58.65,-51.782 C 191.903,245.975 184.08,183.584 154.812,127.795 143.631,106.464 120.202,71.357 91.01,42.7 54.987,7.288 27.322,-1.641 8.586,-1.641 Z"
                 style="fill:#000000;fill-opacity:1;fill-rule:nonzero;stroke:none"
                 id="path352" /></g><g
               transform="translate(688.4846,8390.9229)"
               id="g358"><path
                 d="m 0,0 c 2.099,-0.496 4.159,-1.03 6.258,-1.603 2.023,0.115 4.045,0.306 6.029,0.535 35.527,9.425 67.161,36.289 87.843,55.674 43.349,40.601 73.647,92.002 85.362,144.738 4.77,21.407 8.243,56.437 3.702,90.475 -3.511,26.407 -13.204,61.285 -39.419,77.731 -2.06,0.496 -4.121,0.916 -6.182,1.221 C 112.112,364.841 79.982,339.045 55.484,317.027 11.104,277.074 -20.492,225.865 -33.504,172.785 -45.486,123.865 -46.974,33.733 -0.038,0 Z M 6.144,-2.557 H 6.067 c -2.137,0.573 -4.273,1.145 -6.372,1.641 l -0.153,0.077 c -47.356,33.961 -45.944,124.628 -33.885,173.816 13.05,53.269 44.722,104.669 89.254,144.737 46.86,42.128 72.007,49.913 88.682,52.012 h 0.077 0.076 c 2.137,-0.306 4.312,-0.726 6.449,-1.26 l 0.153,-0.076 c 26.597,-16.6 36.403,-51.821 39.914,-78.417 4.541,-34.153 1.03,-69.298 -3.739,-90.782 C 174.769,146.265 144.357,94.673 100.893,53.957 80.096,34.496 48.348,7.518 12.593,-1.984 H 12.516 C 10.456,-2.251 8.395,-2.442 6.296,-2.557 H 6.22 Z"
                 style="fill:#000000;fill-opacity:1;fill-rule:nonzero;stroke:none"
                 id="path356" /></g><g
               transform="translate(685.1647,8379.3604)"
               id="g362"><path
                 d="m 0,0 c 1.908,-1.221 3.93,-2.289 5.991,-3.205 1.984,0.229 3.969,0.306 5.991,0.229 27.971,8.205 58.078,27.437 91.964,58.803 25.528,23.583 49.111,55.942 66.473,91.048 18.889,38.236 29.497,77.54 30.642,113.753 1.488,47.013 -12.478,86.354 -41.555,116.92 -1.908,1.03 -3.931,1.908 -6.029,2.634 -1.985,-0.23 -4.007,-0.382 -5.991,-0.496 -27.742,-8.51 -57.43,-27.59 -90.629,-58.27 C 14.768,282.531 -18.774,225.255 -32.855,168.168 -40.601,136.725 -42.204,106.847 -37.587,79.334 -32.474,48.959 -19.843,22.247 0,-0.038 Z M 5.877,-4.197 H 5.762 c -2.175,0.992 -4.274,2.136 -6.296,3.396 l -0.115,0.076 c -19.957,22.4 -32.702,49.302 -37.854,79.868 -4.655,27.628 -3.052,57.659 4.732,89.216 14.119,57.239 47.776,114.706 89.98,153.705 33.313,30.757 63.115,49.913 91.124,58.498 2.137,0.115 4.159,0.306 6.182,0.535 h 0.114 0.115 c 2.175,-0.725 4.312,-1.641 6.334,-2.747 l 0.115,-0.077 C 189.499,347.517 203.58,307.907 202.053,260.59 200.909,224.263 190.262,184.806 171.335,146.456 153.935,111.234 130.238,78.799 104.633,55.103 70.595,23.621 40.373,4.312 12.211,-3.93 h -0.076 -0.077 c -2.022,0.076 -4.045,0 -6.029,-0.229 H 5.915 Z"
                 style="fill:#000000;fill-opacity:1;fill-rule:nonzero;stroke:none"
                 id="path360" /></g><g
               transform="translate(688.1412,8365.0127)"
               id="g366"><path
                 d="M 0,0 C 1.832,-0.42 3.701,-0.801 5.533,-1.183 34.61,9.35 65.214,28.734 96.505,56.399 c 49.607,43.884 83.759,100.092 96.123,158.286 6.372,29.877 7.059,62.809 1.946,92.65 -5.686,33.236 -18.278,62.391 -36.518,84.332 l -0.954,0.687 c -1.718,0.305 -3.473,0.572 -5.228,0.763 l -0.802,-0.458 C 121.804,382.433 90.514,362.36 58.002,332.901 12.821,292.033 -18.393,242.197 -32.321,188.774 -49.035,124.705 -39.228,57.048 -6.144,7.784 L -5.762,6.869 C -4.35,5.037 -2.938,3.243 -1.526,1.412 L -0.763,0.42 -0.038,-0.038 Z M 5.686,-2.137 H 5.495 c -1.946,0.42 -3.854,0.802 -5.762,1.221 l -0.153,0.077 -0.992,0.687 -0.839,1.068 c -1.412,1.832 -2.862,3.663 -4.274,5.495 l -0.077,0.114 -0.343,0.878 c -33.198,49.378 -43.005,117.34 -26.253,181.676 13.966,53.576 45.294,103.565 90.59,144.586 32.626,29.535 64.031,49.683 93.299,59.91 l 0.992,0.611 h 0.153 c 1.831,-0.23 3.701,-0.497 5.533,-0.84 l 0.191,-0.076 1.106,-0.84 c 18.393,-22.132 31.1,-51.477 36.786,-84.867 5.113,-29.993 4.426,-63.001 -1.985,-93.032 C 181.066,156.147 146.799,99.748 97.039,55.751 65.71,28.047 35.03,8.624 5.838,-1.984 L 5.609,-2.061 Z"
                 style="fill:#000000;fill-opacity:1;fill-rule:nonzero;stroke:none"
                 id="path364" /></g><g
               transform="translate(537.3739,8791.3281)"
               id="g370"><path
                 d="m 0,0 c -12.898,-31.176 -19.309,-63.535 -19.003,-96.085 0,13.394 1.144,26.979 3.434,40.64 3.129,18.774 8.357,37.357 15.569,55.407 z m 23.01,-228.917 -1.336,1.869 c -22.094,32.207 -35.984,69.26 -40.181,107.152 -6.487,58.536 8.967,117.263 44.684,170.418 11.753,18.165 25.605,35.298 41.327,50.829 30.985,30.718 68.267,55.941 110.738,74.907 l 0.534,0.228 0.229,-0.954 -0.343,-0.266 C 119.935,149.05 68,107.342 32.435,57.812 30.566,55.217 28.734,52.583 26.979,49.95 5.877,17.324 -8.471,-18.774 -14.615,-55.636 -24.842,-117.11 -12.02,-176.182 22.438,-226.437 l 0.076,-0.153 0.496,-2.365 z"
                 style="fill:#000000;fill-opacity:1;fill-rule:nonzero;stroke:none"
                 id="path368" /></g><g
               transform="translate(757.0186,8841.3936)"
               id="g374"><path
                 d="M 0,0 C 0.305,-15.035 -0.839,-30.337 -3.434,-45.792 -7.555,-70.29 -15.302,-94.482 -26.254,-117.531 -8.624,-81.891 1.336,-42.357 0,0 Z m -197.932,-277.494 -0.191,0.953 0.344,0.268 c 7.708,3.434 15.263,7.097 22.666,10.951 45.524,24.193 88.949,59.376 121.156,102.725 25.49,35.526 42.7,75.784 49.607,116.996 9.501,56.438 -0.496,110.815 -28.887,158.208 -0.496,0.84 -0.992,1.641 -1.526,2.481 -2.175,3.473 -4.465,6.945 -6.792,10.341 l -0.077,0.153 -0.61,2.519 1.45,-2.023 c 2.976,-4.312 5.8,-8.701 8.471,-13.127 C -13.432,81.432 -2.099,45.943 0.496,10.073 5.228,-55.255 -16.866,-114.325 -53.08,-163.055 c -10.074,-14.043 -21.445,-27.36 -33.961,-39.723 -25.3,-24.957 -54.721,-46.211 -87.652,-63.421 -7.517,-3.969 -15.073,-7.67 -22.667,-11.067 l -0.534,-0.228 z"
                 style="fill:#000000;fill-opacity:1;fill-rule:nonzero;stroke:none"
                 id="path372" /></g><g
               transform="translate(715.654,8966.5938)"
               id="g378"><path
                 d="m 0,0 c -58.574,-26.216 -110.395,-67.848 -145.883,-117.302 -39.495,-54.987 -56.781,-116.424 -49.988,-177.631 4.159,-37.625 17.934,-74.411 39.8,-106.426 105.014,46.897 206.518,153.514 196.901,286.232 C 38.159,-78.417 26.33,-42.09 6.563,-10.074 4.465,-6.716 2.251,-3.32 0,-0.038 Z m -156.415,-402.542 -0.229,0.344 c -22.094,32.206 -35.984,69.259 -40.181,107.188 -6.831,61.437 10.532,123.103 50.179,178.281 35.641,49.645 87.728,91.467 146.608,117.759 L 0.305,1.183 0.534,0.839 C 2.862,-2.557 5.152,-6.067 7.365,-9.54 27.208,-41.708 39.113,-78.188 41.784,-115.051 51.439,-248.341 -50.599,-355.415 -156.071,-402.39 Z"
                 style="fill:#000000;fill-opacity:1;fill-rule:nonzero;stroke:none"
                 id="path376" /></g><g
               transform="translate(715.654,8966.4795)"
               id="g382"><path
                 d="m 0,0 c -42.204,-18.89 -79.257,-43.96 -110.089,-74.525 -43.845,-43.464 -73.266,-98.986 -82.806,-156.301 -10.189,-61.321 2.557,-120.278 36.824,-170.495 40.677,18.164 76.662,42.166 106.922,71.319 43.692,42.09 73.876,96.162 85.019,152.256 C 47.89,-117.264 37.358,-58.651 5.457,-8.281 3.663,-5.457 1.832,-2.672 0,0 m -156.415,-402.504 -0.229,0.343 c -34.61,50.485 -47.47,109.784 -37.205,171.526 9.578,57.506 39.075,113.181 83.073,156.796 31.023,30.757 68.267,55.942 110.738,74.907 L 0.305,1.221 0.534,0.877 c 1.908,-2.785 3.854,-5.686 5.724,-8.662 32.054,-50.599 42.586,-109.441 30.566,-170.152 -11.181,-56.247 -41.441,-110.509 -85.286,-152.751 -30.451,-29.345 -66.626,-53.461 -107.571,-71.664 l -0.344,-0.152 z"
                 style="fill:#000000;fill-opacity:1;fill-rule:nonzero;stroke:none"
                 id="path380" /></g><g
               transform="translate(591.4074,8756.8701)"
               id="g386"><path
                 d="m 0,0 c 13.661,-1.946 27.513,3.167 41.059,15.149 13.776,12.173 23.392,28.162 27.895,36.595 17.439,32.588 15.492,82.577 -3.778,97.192 -12.097,9.158 -29.23,3.74 -49.607,-15.722 C -2.519,115.89 -32.054,60.712 -24.117,26.102 -21.102,12.975 -13.012,4.197 -0.076,0 Z m 5.724,-1.373 c -1.946,0 -3.93,0.152 -5.877,0.419 h -0.076 c -13.318,4.312 -21.636,13.318 -24.727,26.826 -8.052,34.954 21.712,90.59 39.953,108.029 26.215,25.071 42.089,22.438 50.828,15.798 C 85.4,134.816 87.499,84.256 69.87,51.286 65.329,42.814 55.636,26.712 41.746,14.425 29.879,3.931 17.782,-1.374 5.762,-1.374 Z"
                 style="fill:#000000;fill-opacity:1;fill-rule:nonzero;stroke:none"
                 id="path384" /></g><g
               transform="translate(657.3466,8932.8223)"
               id="g390"><path
                 d="m 0,0 c -22.132,0 -47.432,-20.301 -63.955,-39.609 -18.202,-21.292 -57.735,-125.239 -34.038,-161.91 7.708,-11.982 21.56,-15.187 41.174,-9.502 39.495,11.869 68.992,53.119 83.416,87.767 14.043,33.771 22.056,79.677 2.29,107.113 C 21.522,-5.914 12.325,-0.496 1.526,-0.038 H 0.038 Z m -73.914,-214.722 c -11.105,0 -19.424,4.236 -24.88,12.669 -13.776,21.369 -5.304,63.497 0.992,86.659 8.509,31.368 22.743,64.223 33.16,76.358 16.638,19.461 42.204,39.952 64.68,39.952 h 1.527 c 11.104,-0.458 20.567,-6.029 28.123,-16.484 19.995,-27.781 11.982,-74.03 -2.175,-108.068 -14.501,-34.839 -44.189,-76.356 -83.989,-88.339 -6.372,-1.831 -12.173,-2.785 -17.324,-2.785 z"
                 style="fill:#000000;fill-opacity:1;fill-rule:nonzero;stroke:none"
                 id="path388" /></g><g
               transform="translate(569.4277,8695.5488)"
               id="g394"><path
                 d="m 0,0 c 19.957,-7.709 43.54,-0.229 68.191,21.598 20.644,18.278 38.35,43.348 48.08,60.75 11.868,21.292 19.652,54.643 20.301,87.079 0.725,35.297 -7.136,62.39 -21.484,74.258 C 98.604,257.346 73.762,251.011 43.234,225.482 25.758,210.867 4.617,181.752 -10.646,151.339 -29.001,114.782 -37.549,79.829 -34.687,53.003 -32.092,28.619 -20.415,10.761 0,0 m 15.951,-3.893 c -5.648,0 -11.105,0.993 -16.333,3.015 H -0.42 c -20.72,10.951 -32.588,29.039 -35.221,53.767 -2.862,27.016 5.686,62.123 24.117,98.87 15.302,30.527 36.556,59.72 54.11,74.449 30.947,25.91 56.208,32.168 73.075,18.24 14.615,-12.096 22.59,-39.419 21.827,-75.021 -0.649,-32.588 -8.472,-66.13 -20.415,-87.537 C 107.342,64.412 89.522,39.228 68.801,20.911 50.256,4.502 32.283,-3.854 15.951,-3.854 Z"
                 style="fill:#000000;fill-opacity:1;fill-rule:nonzero;stroke:none"
                 id="path392" /></g><g
               transform="translate(565.3447,8672.3857)"
               id="g398"><path
                 d="m 0,0 c 21.178,-7.632 45.753,0.572 72.961,24.384 22.323,19.537 41.937,46.173 52.812,64.603 25.948,43.883 36.442,91.468 29.535,133.978 -4.732,29.001 -16.561,47.775 -34.267,54.223 -20.262,7.404 -47.508,-1.792 -74.792,-25.184 C 10.723,221.515 -15.416,179.997 -27.437,135.046 -37.243,98.298 -44.15,22.781 0,-0.038 Z m 15.76,-3.663 c -5.419,0 -10.799,0.877 -16.103,2.785 H -0.42 c -44.722,23.087 -37.854,99.214 -27.932,136.229 12.058,45.104 38.312,86.812 73.99,117.416 27.551,23.659 55.179,32.893 75.747,25.376 18.049,-6.602 30.107,-25.605 34.877,-54.95 6.945,-42.776 -3.587,-90.551 -29.65,-134.626 C 106.312,54.263 59.796,-3.625 15.76,-3.625 Z"
                 style="fill:#000000;fill-opacity:1;fill-rule:nonzero;stroke:none"
                 id="path396" /></g><g
               transform="translate(679.2501,8959.3438)"
               id="g402"><path
                 d="m 0,0 c -30.031,0 -63.573,-29.269 -77.578,-42.93 -37.358,-36.442 -63.077,-82.805 -72.35,-130.466 -4.999,-25.681 -7.975,-91.887 15.874,-121.308 7.747,-9.54 17.706,-14.501 29.612,-14.692 25.567,2.251 52.774,17.096 78.684,42.929 20.606,20.53 40.106,47.929 53.576,75.098 25.529,51.63 31.558,106.769 16.485,151.378 C 36.862,-17.897 25.223,-4.809 9.769,-1.107 6.602,-0.344 3.32,0 0.038,0 Z m -104.442,-310.35 v 0 c -12.211,0.191 -22.438,5.266 -30.337,15.036 -13.241,16.332 -17.629,42.738 -19.041,62.008 -1.755,24.269 0.496,47.546 2.938,60.101 9.349,47.89 35.145,94.406 72.656,131.001 15.645,15.264 55.521,49.912 88.186,42.051 15.798,-3.816 27.665,-17.095 35.221,-39.494 15.149,-44.838 9.12,-100.246 -16.523,-152.104 -13.509,-27.283 -33.084,-54.758 -53.767,-75.364 -26.063,-25.987 -53.499,-40.946 -79.295,-43.197 z"
                 style="fill:#000000;fill-opacity:1;fill-rule:nonzero;stroke:none"
                 id="path400" /></g><g
               transform="translate(684.0963,8961.9385)"
               id="g406"><path
                 d="m 0,0 c -28.429,0 -60.635,-25.986 -78.608,-42.93 -43.845,-41.364 -72.77,-94.291 -81.356,-149.049 -4.121,-26.331 -5.037,-93.949 19.194,-123.408 7.48,-9.082 16.752,-13.889 27.666,-14.309 27.055,2.366 56.285,18.545 84.446,46.745 22.438,22.475 43.426,51.82 57.583,80.477 24.651,49.99 31.672,103.336 19.728,150.196 C 41.365,-23.697 28.887,-6.64 11.524,-1.603 7.784,-0.534 3.93,0 0,0 m -113.104,-330.65 v 0 c -11.181,0.42 -20.759,5.38 -28.391,14.691 -13.47,16.408 -18.583,43.349 -20.491,63.115 -2.366,24.69 -0.878,48.31 1.107,61.055 8.624,54.988 37.625,108.105 81.66,149.585 20.606,19.423 59.834,50.637 91.048,41.555 17.706,-5.152 30.413,-22.438 37.778,-51.363 11.982,-47.088 4.961,-100.664 -19.805,-150.842 -14.195,-28.773 -35.259,-58.194 -57.773,-80.746 -28.352,-28.39 -57.773,-44.646 -85.057,-47.05 z"
                 style="fill:#000000;fill-opacity:1;fill-rule:nonzero;stroke:none"
                 id="path404" /></g><g
               transform="translate(560.9945,8617.1689)"
               id="g410"><path
                 d="m 0,0 c 18.087,-2.899 48.386,2.252 90.208,43.272 29.078,28.506 52.431,63.383 63.574,84.6 29.154,55.407 36.938,117.34 21.445,169.961 -9.387,31.825 -22.857,60.024 -57.315,50.943 -26.597,-7.021 -52.965,-29.955 -75.25,-51.515 -43.54,-42.052 -72.541,-95.131 -81.623,-149.508 -3.358,-20.071 -5.151,-52.087 -0.152,-81.737 4.045,-23.85 14.119,-54.682 39.151,-66.054 z m 8.586,-1.641 c -3.206,0 -6.144,0.268 -8.815,0.687 h -0.114 c -20.149,9.158 -33.886,32.245 -39.762,66.817 -5.037,29.765 -3.244,61.895 0.152,82.042 9.12,54.569 38.236,107.839 81.928,150.043 22.4,21.636 48.882,44.685 75.67,51.743 35.297,9.312 48.958,-19.308 58.498,-51.59 C 191.712,245.25 183.89,183.051 154.621,127.414 143.441,106.121 120.011,71.129 90.857,42.548 54.873,7.251 27.246,-1.679 8.548,-1.679 Z"
                 style="fill:#000000;fill-opacity:1;fill-rule:nonzero;stroke:none"
                 id="path408" /></g><g
               transform="translate(557.522,8603.165)"
               id="g414"><path
                 d="m 0,0 c 2.099,-0.496 4.198,-1.03 6.22,-1.603 2.022,0.115 4.045,0.305 6.029,0.535 35.488,9.424 67.084,36.213 87.728,55.521 43.311,40.487 73.61,91.734 85.324,144.318 4.77,21.37 8.243,56.248 3.778,90.17 -3.472,26.292 -13.088,61.093 -39.266,77.464 -2.06,0.496 -4.121,0.916 -6.181,1.221 C 112.227,363.695 80.135,337.977 55.674,315.997 11.333,276.158 -20.262,225.102 -33.275,172.213 -45.257,123.445 -46.821,33.618 -0.038,0.038 Z M 6.144,-2.557 H 6.067 c -2.098,0.573 -4.235,1.145 -6.372,1.641 l -0.153,0.076 c -47.241,33.848 -45.715,124.208 -33.656,173.243 13.05,53.079 44.722,104.327 89.216,144.281 46.783,42.051 71.892,49.836 88.568,51.896 h 0.076 0.076 c 2.137,-0.306 4.312,-0.725 6.411,-1.259 l 0.153,-0.077 c 26.52,-16.56 36.251,-51.629 39.762,-78.187 4.502,-34.038 0.992,-69.069 -3.816,-90.476 C 174.579,145.845 144.166,94.406 100.702,53.805 79.944,34.381 48.233,7.479 12.516,-1.984 H 12.44 C 10.379,-2.252 8.281,-2.442 6.22,-2.557 Z"
                 style="fill:#000000;fill-opacity:1;fill-rule:nonzero;stroke:none"
                 id="path412" /></g><g
               transform="translate(554.3167,8591.5645)"
               id="g418"><path
                 d="m 0,0 c 1.908,-1.221 3.93,-2.29 5.991,-3.205 1.946,0.228 3.969,0.305 5.953,0.228 27.932,8.205 58.002,27.361 91.849,58.652 25.491,23.506 49.073,55.788 66.435,90.818 18.927,38.159 29.536,77.426 30.681,113.525 1.488,46.783 -12.402,85.934 -41.365,116.346 -1.908,1.031 -3.931,1.908 -5.991,2.596 -1.984,-0.23 -4.007,-0.382 -5.991,-0.496 C 119.858,369.954 90.247,350.95 57.048,320.347 15.035,281.615 -18.507,224.529 -32.626,167.634 -40.411,136.305 -42.052,106.503 -37.434,79.104 -32.359,48.806 -19.767,22.171 0,-0.038 Z M 5.838,-4.159 H 5.724 c -2.175,0.992 -4.274,2.137 -6.296,3.395 l -0.115,0.077 c -19.919,22.362 -32.626,49.149 -37.739,79.638 -4.618,27.552 -2.977,57.468 4.846,88.949 14.195,57.049 47.813,114.326 89.941,153.172 33.275,30.68 63.039,49.76 90.972,58.345 2.137,0.115 4.159,0.306 6.144,0.535 h 0.114 0.114 c 2.176,-0.725 4.312,-1.641 6.335,-2.748 l 0.114,-0.076 c 29.154,-30.604 43.197,-70.023 41.67,-117.11 C 200.68,223.766 190.033,184.386 171.068,146.111 153.667,110.967 129.97,78.608 104.404,55.025 70.404,23.62 40.22,4.389 12.096,-3.854 H 12.02 11.944 c -2.023,0.076 -4.045,0 -6.029,-0.229 H 5.8 Z"
                 style="fill:#000000;fill-opacity:1;fill-rule:nonzero;stroke:none"
                 id="path416" /></g><g
               transform="translate(557.2549,8577.2549)"
               id="g422"><path
                 d="m 0,0 c 1.832,-0.42 3.663,-0.802 5.533,-1.184 28.696,10.418 59.032,29.498 90.094,56.782 50.218,44.074 84.675,100.664 97.001,159.353 6.22,29.65 6.869,62.276 1.755,91.888 -5.685,32.931 -18.202,61.855 -36.251,83.606 l -0.954,0.687 c -1.717,0.305 -3.472,0.572 -5.228,0.764 l -0.801,-0.459 C 121.919,381.249 90.705,361.215 58.193,331.871 13.089,291.117 -18.126,241.434 -32.092,188.201 -48.806,124.322 -39.113,56.896 -6.144,7.822 L -5.762,6.944 -5.495,6.602 C -3.93,4.579 -2.366,2.557 -0.763,0.496 L -0.038,0.038 Z M 5.686,-2.137 H 5.495 c -1.908,0.381 -3.854,0.801 -5.762,1.221 l -0.153,0.076 -0.954,0.649 c -1.603,2.06 -3.167,4.122 -4.77,6.143 l -0.381,0.496 -0.344,0.878 c -33.084,49.188 -42.814,116.92 -26.024,181.066 13.966,53.384 45.295,103.259 90.552,144.128 32.588,29.42 63.916,49.53 93.185,59.719 l 0.992,0.573 h 0.152 c 1.87,-0.23 3.74,-0.497 5.533,-0.84 l 0.191,-0.076 1.107,-0.84 c 18.24,-21.98 30.871,-51.019 36.556,-84.141 5.114,-29.727 4.503,-62.467 -1.755,-92.231 C 181.218,155.804 146.684,99.023 96.314,54.797 65.176,27.475 34.763,8.318 5.991,-2.137 L 5.762,-2.214 Z"
                 style="fill:#000000;fill-opacity:1;fill-rule:nonzero;stroke:none"
                 id="path420" /></g><g
               transform="translate(498.6423,8303.958)"
               id="g426"><path
                 d="m 0,0 h -5.152 c -65.404,0.878 -126.23,17.935 -177.02,49.492 -40.258,24.69 -72.236,57.697 -93.948,97.307 l -0.077,0.228 -0.916,3.587 1.794,-3.243 c 18.431,-33.618 45.638,-63.764 78.646,-87.079 4.885,-3.435 9.845,-6.755 14.92,-9.922 15.951,-9.768 33.161,-18.24 51.592,-25.3 C -84.866,7.708 -33.962,-0.42 16.79,1.336 77.196,3.931 138.251,20.415 190.873,48.615 l 0.572,0.305 0.229,-0.954 -0.305,-0.267 C 150.805,25.986 107.075,11.447 61.474,4.541 46.707,2.289 31.825,0.954 16.866,0.42 11.219,0.19 5.609,0.038 0,0.038 Z"
                 style="fill:#000000;fill-opacity:1;fill-rule:nonzero;stroke:none"
                 id="path424" /></g><g
               transform="translate(690.8886,8349.1768)"
               id="g430"><path
                 d="m 0,0 -1.526,2.633 c -0.992,1.756 -1.985,3.472 -2.977,5.228 -2.327,3.968 -4.77,7.861 -7.288,11.676 -13.165,19.805 -29.421,38.122 -48.119,54.149 -25.719,21.903 -56.17,39.609 -90.514,52.354 -52.125,19.347 -111.539,26.482 -169.389,20.606 -37.319,-4.044 -74.448,-13.28 -109.173,-27.169 -13.203,-5.342 -26.101,-11.372 -38.732,-18.087 l -0.534,-0.306 -0.229,0.954 0.305,0.267 c 12.478,6.639 25.414,12.631 38.694,17.973 28.695,11.601 58.65,19.881 89.521,24.689 6.678,1.03 13.394,1.908 20.11,2.595 15.836,1.717 31.71,2.48 47.432,2.29 71.663,-0.878 137.908,-21.141 191.483,-58.69 7.48,-5.227 14.653,-10.799 21.484,-16.675 C -41.326,59.07 -25.567,41.518 -12.44,22.133 -8.242,15.95 -4.312,9.616 -0.725,3.129 V 3.015 L 0,-0.038 Z"
                 style="fill:#000000;fill-opacity:1;fill-rule:nonzero;stroke:none"
                 id="path428" /></g><g
               transform="translate(223.5522,8450.9092)"
               id="g434"><path
                 d="m 0,0 c 30.222,-54.911 80.325,-97.001 144.891,-121.804 58.574,-22.476 126.574,-29.421 191.445,-19.614 45.333,6.868 88.796,21.293 129.169,42.814 l -2.71,4.809 C 431.352,-40.258 380.906,0.61 316.874,24.384 258.72,45.982 191.445,52.393 127.452,42.396 82.729,35.412 39.838,21.141 0,-0.038 Z m 278.257,-146.722 c -46.325,0 -92.345,8.166 -133.672,24.04 C 79.638,-97.764 29.268,-55.331 -1.03,-0.038 l -0.229,0.42 0.419,0.228 c 40.068,21.369 83.188,35.756 128.177,42.778 64.146,9.997 131.612,3.587 189.881,-18.05 64.26,-23.85 114.859,-64.871 146.417,-118.599 l 3.205,-5.686 -0.419,-0.229 c -40.564,-21.713 -84.294,-36.251 -129.895,-43.158 -19.232,-2.9 -38.769,-4.35 -58.269,-4.35 z"
                 style="fill:#000000;fill-opacity:1;fill-rule:nonzero;stroke:none"
                 id="path432" /></g><g
               transform="translate(223.6285,8450.833)"
               id="g438"><path
                 d="m 0,0 c 18.431,-33.466 45.562,-63.421 78.417,-86.659 53.461,-37.817 119.706,-58.308 191.522,-59.262 h 5.151 c 65.596,0 133.023,16.752 190.453,47.432 -1.221,2.176 -2.48,4.388 -3.778,6.525 -19.461,32.741 -47.623,61.971 -81.47,84.523 -53.423,35.564 -118.713,54.492 -188.812,54.758 h -1.488 C 123.827,47.317 58.193,30.985 0,0.076 Z M 275.052,-146.951 H 269.9 c -72.006,0.954 -138.403,21.521 -192.055,59.452 -33.122,23.43 -60.406,53.651 -78.952,87.423 l -0.229,0.42 0.42,0.228 C 57.506,31.71 123.483,48.157 189.957,48.157 h 1.488 c 70.251,-0.267 135.732,-19.27 189.308,-54.911 33.962,-22.629 62.276,-51.934 81.775,-84.828 1.374,-2.29 2.71,-4.655 4.007,-6.983 l 0.229,-0.42 -0.42,-0.229 c -57.658,-30.871 -125.391,-47.737 -191.33,-47.737 z"
                 style="fill:#000000;fill-opacity:1;fill-rule:nonzero;stroke:none"
                 id="path436" /></g><g
               transform="translate(350.6988,8486.7031)"
               id="g442"><path
                 d="m 0,0 c -1.603,-7.899 0.382,-15.417 5.724,-21.675 20.339,-25.223 78.074,-45.257 121.079,-42.052 24.766,1.871 42.662,10.953 51.668,26.369 C 184.576,-15.111 168.206,-0.916 153.4,7.06 108.868,31.062 24.46,30.222 2.862,5.571 1.984,3.777 0.992,1.907 0,0.038 Z m 117.454,-65.023 c -41.937,0 -93.414,19.117 -112.455,42.738 -5.571,6.525 -7.594,14.348 -5.915,22.552 v 0.114 c 1.069,1.87 2.061,3.778 3.015,5.648 21.865,24.994 106.96,25.949 151.797,1.831 21.675,-11.676 30.528,-27.436 25.529,-45.562 v -0.114 c -9.235,-15.722 -27.36,-24.995 -52.507,-26.903 -3.091,-0.228 -6.22,-0.343 -9.426,-0.343 z"
                 style="fill:#000000;fill-opacity:1;fill-rule:nonzero;stroke:none"
                 id="path440" /></g><g
               transform="translate(405.6863,8521.7334)"
               id="g446"><path
                 d="m 0,0 c -24.078,0 -49.035,-3.74 -67.923,-15.493 -13.433,-8.357 -19.805,-18.011 -18.966,-28.695 1.832,-23.278 36.977,-46.288 60.139,-56.057 39.61,-17.324 86.507,-23.048 128.597,-15.722 23.01,4.007 49.683,14.73 55.56,32.779 3.549,10.914 -0.992,23.048 -13.585,36.061 C 115.127,-17.478 66.855,-6.793 40.601,-3.053 28.352,-1.298 14.31,0 0,0 m 64.985,-120.05 c -31.481,0 -63.649,6.487 -92.078,18.928 -23.392,9.883 -58.88,33.198 -60.711,56.856 -0.878,11.105 5.647,21.065 19.423,29.613 16.79,10.417 49.301,21.063 109.173,12.553 26.368,-3.739 74.907,-14.5 103.793,-44.379 12.822,-13.279 17.477,-25.719 13.814,-37.014 -6.029,-18.469 -33.046,-29.383 -56.323,-33.427 -12.058,-2.1 -24.498,-3.13 -37.053,-3.13 z"
                 style="fill:#000000;fill-opacity:1;fill-rule:nonzero;stroke:none"
                 id="path444" /></g><g
               transform="translate(400.1532,8525.4346)"
               id="g450"><path
                 d="m 0,0 c -56.667,0 -81.89,-15.073 -92.422,-25.147 -9.768,-9.349 -13.623,-19.499 -11.409,-30.184 2.709,-13.127 14.805,-27.437 34.992,-41.364 17.057,-11.754 36.404,-20.912 48.805,-25.53 48.425,-18.697 104.213,-22.933 153.057,-11.638 30.413,7.021 49.951,21.026 53.499,38.35 3.359,16.332 -7.517,34.725 -30.641,51.744 C 115.699,-14.233 67.008,-4.503 33.237,-1.526 21.102,-0.458 10.036,0 -0.038,0 Z m 77.005,-141.037 c -32.969,0 -66.664,6.067 -97.344,17.897 -21.216,7.899 -77.768,35.488 -84.408,67.58 -2.29,11.028 1.679,21.484 11.677,31.062 29.115,27.856 91.696,26.902 126.421,23.888 33.886,-2.977 82.768,-12.745 123.14,-42.434 23.468,-17.248 34.496,-35.984 31.024,-52.697 -3.664,-17.744 -23.43,-31.978 -54.225,-39.113 -18.049,-4.161 -37.052,-6.221 -56.285,-6.221 z"
                 style="fill:#000000;fill-opacity:1;fill-rule:nonzero;stroke:none"
                 id="path448" /></g><g
               transform="translate(398.3979,8526.2744)"
               id="g454"><path
                 d="m 0,0 c -37.778,0 -87.308,-5.381 -110.089,-30.833 -8.319,-9.311 -11.257,-19.423 -8.739,-30.069 8.128,-34.038 69.297,-64.681 92.155,-73.61 51.4,-20.644 112.569,-26.139 167.862,-15.073 21.369,4.274 61.131,12.249 70.213,34.84 9.769,24.346 -15.721,47.737 -35.755,63.191 C 139.548,-23.659 89.331,-5.877 34.229,-1.45 25.49,-0.764 13.47,-0.039 -0.076,-0.039 Z m 83.569,-156.11 c -38.121,0 -76.471,7.059 -110.548,20.758 -23.01,8.968 -84.484,39.801 -92.727,74.258 -2.633,10.952 0.382,21.369 8.93,30.948 13.165,14.729 36.251,24.345 68.61,28.658 28.047,3.739 57.086,2.633 76.548,1.068 55.254,-4.465 105.662,-22.323 141.914,-50.294 20.262,-15.645 46.058,-39.343 36.06,-64.299 -9.272,-23.086 -49.34,-31.137 -70.9,-35.45 -18.812,-3.777 -38.312,-5.609 -57.849,-5.609 z"
                 style="fill:#000000;fill-opacity:1;fill-rule:nonzero;stroke:none"
                 id="path452" /></g><g
               transform="translate(397.4821,8525.3584)"
               id="g458"><path
                 d="m 0,0 c -39.724,0 -92.307,-5.457 -119.82,-31.253 -9.578,-8.967 -13.432,-19.041 -11.562,-29.917 6.105,-35.106 69.144,-69.564 92.917,-79.867 56.285,-24.804 124.667,-32.092 187.591,-20.071 l 1.565,0.304 c 22.132,4.237 63.344,12.097 75.708,32.818 13.775,23.124 -8.052,46.669 -28.658,64.603 -39.952,34.801 -97.268,56.781 -161.413,61.895 -9.197,0.724 -21.942,1.45 -36.404,1.45 z m 88.453,-167.748 c -44.341,0 -88.644,8.814 -127.299,25.833 -23.888,10.38 -87.308,45.066 -93.49,80.593 -1.946,11.218 2.022,21.598 11.829,30.795 C -82.729,4.884 1.832,2.289 36.404,-0.496 100.74,-5.647 158.285,-27.704 198.352,-62.62 c 20.873,-18.163 43.005,-42.089 28.848,-65.824 -12.592,-21.103 -54.071,-29.039 -76.356,-33.275 l -1.565,-0.305 c -19.919,-3.817 -40.411,-5.686 -60.864,-5.686 z"
                 style="fill:#000000;fill-opacity:1;fill-rule:nonzero;stroke:none"
                 id="path456" /></g><g
               transform="translate(395.3833,8523.2598)"
               id="g462"><path
                 d="m 0,0 c -42.967,0 -102,-5.877 -130.505,-34.992 -8.586,-8.778 -11.753,-18.698 -9.387,-29.459 8.51,-38.655 86.202,-79.219 113.524,-89.637 56.132,-21.674 121.346,-27.321 183.66,-15.912 l 2.901,0.534 c 24.536,4.465 70.213,12.783 82.881,34.496 14.158,24.27 -12.401,50.714 -37.128,71.091 C 165.306,-30.413 108.868,-8.548 46.974,-2.29 39.533,-1.526 21.827,0 0,0 m 93.528,-176.716 c -41.746,0 -82.996,7.364 -120.239,21.751 -27.475,10.455 -105.549,51.248 -114.135,90.322 -2.442,11.067 0.802,21.293 9.654,30.337 C -87.919,9.921 24.88,0.953 47.05,-1.298 c 62.085,-6.296 118.714,-28.238 159.468,-61.818 16.065,-13.241 53.728,-44.227 37.358,-72.312 -12.898,-22.093 -58.842,-30.451 -83.531,-34.954 l -2.9,-0.534 c -21.102,-3.892 -42.586,-5.8 -63.917,-5.8 z"
                 style="fill:#000000;fill-opacity:1;fill-rule:nonzero;stroke:none"
                 id="path460" /></g><g
               transform="translate(244.7688,8469.7979)"
               id="g466"><path
                 d="m 0,0 c -1.374,-23.162 15.416,-47.775 48.577,-71.167 27.131,-19.193 60.368,-34.152 82.386,-41.784 19.079,-6.716 39.533,-11.829 60.787,-15.111 26.826,-4.198 73.571,-7.327 117.111,-2.366 36.29,4.121 83.225,15.531 101.008,46.249 0.419,2.023 0.686,4.121 0.877,6.182 -5.266,29.955 -36.709,55.293 -59.948,71.739 C 302.984,27.628 240.136,47.433 173.777,49.455 134.931,50.638 40.334,48.729 2.366,5.229 1.45,3.625 0.649,1.832 0,0 Z m 261.086,-133.938 c -27.246,0 -52.431,2.251 -69.488,4.922 -21.293,3.32 -41.785,8.433 -60.941,15.187 C 83.721,-97.611 -4.159,-52.889 -0.954,0.153 v 0.115 c 0.687,1.908 1.526,3.739 2.519,5.495 38.311,43.883 133.213,45.829 172.212,44.607 66.55,-2.022 129.589,-21.903 177.555,-55.903 23.354,-16.561 55.026,-42.089 60.33,-72.426 v -0.076 -0.076 c -0.191,-2.138 -0.496,-4.313 -0.916,-6.411 v -0.153 c -14.233,-24.651 -49.454,-40.831 -101.809,-46.783 -15.912,-1.832 -32.244,-2.557 -47.89,-2.557 z"
                 style="fill:#000000;fill-opacity:1;fill-rule:nonzero;stroke:none"
                 id="path464" /></g><g
               transform="translate(373.8233,8348.6045)"
               id="g470"><path
                 d="m 0,0 c 20.072,-7.021 40.601,-12.249 60.94,-15.569 38.694,-6.334 82.462,-7.365 120.088,-2.824 48.5,5.876 86.125,20.835 108.792,43.273 0.763,1.717 1.526,3.473 2.289,5.227 0,2.252 -0.152,4.541 -0.42,6.792 -8.662,24.118 -29.878,47.891 -64.832,72.541 -50.141,35.336 -113.142,55.064 -182.173,56.972 -40.944,1.146 -140.464,-1.106 -179.997,-46.249 -0.572,-1.869 -1.106,-3.739 -1.641,-5.609 C -128.711,63.573 -58.04,20.987 0,0 m 132.184,-22.133 c -24.041,0 -48.577,1.908 -71.396,5.61 -20.416,3.32 -40.945,8.586 -61.093,15.607 -58.308,21.103 -129.36,63.993 -137.564,115.432 v 0.114 0.115 c 0.534,1.945 1.106,3.892 1.717,5.8 l 0.114,0.19 c 39.762,45.525 139.663,47.815 180.799,46.631 69.221,-1.908 132.412,-21.674 182.706,-57.162 35.107,-24.766 56.438,-48.691 65.215,-73.113 0.267,-2.404 0.419,-4.77 0.457,-7.098 v -0.19 c -0.801,-1.794 -1.602,-3.626 -2.404,-5.419 l -0.114,-0.153 C 267.802,1.603 229.948,-13.471 181.218,-19.347 c -15.531,-1.87 -32.13,-2.824 -48.958,-2.824 z"
                 style="fill:#000000;fill-opacity:1;fill-rule:nonzero;stroke:none"
                 id="path468" /></g><g
               transform="translate(375.3497,8340.0947)"
               id="g474"><path
                 d="m 0,0 c 21.255,-7.518 43.845,-13.051 67.16,-16.446 68.229,-9.922 163.894,-4.771 227.926,39.342 1.144,1.45 2.404,2.786 3.777,4.044 0.649,1.832 0.992,3.74 1.031,5.686 -8.968,26.482 -32.207,52.584 -70.977,79.715 -49.759,34.84 -111.692,54.682 -179.157,57.43 -112.99,4.617 -170.763,-29.001 -190.415,-43.731 -0.992,-1.526 -2.099,-3.015 -3.244,-4.427 -0.152,-2.098 -0.152,-4.235 0.039,-6.334 C -136.686,97.611 -105.243,37.473 0,-0.038 Z m 127.376,-21.674 c -20.301,0 -40.754,1.411 -60.368,4.274 -23.354,3.396 -46.02,8.928 -67.351,16.484 -26.75,9.54 -116.195,46.02 -144.471,115.928 v 0.153 c -0.229,2.213 -0.267,4.465 -0.077,6.716 v 0.152 l 0.115,0.114 c 1.183,1.451 2.289,2.977 3.358,4.541 l 0.114,0.116 c 22.896,17.171 53.729,29.611 91.659,36.975 38.731,7.518 75.479,7.938 99.443,6.984 67.618,-2.747 129.741,-22.666 179.654,-57.62 38.998,-27.323 62.352,-53.577 71.396,-80.288 v -0.153 c 0,-2.098 -0.382,-4.197 -1.107,-6.181 l -0.115,-0.191 c -1.373,-1.26 -2.633,-2.633 -3.815,-4.083 l -0.115,-0.076 C 267.153,2.48 228.956,-11.257 185.263,-17.591 c -18.545,-2.672 -38.159,-4.045 -57.887,-4.045 z"
                 style="fill:#000000;fill-opacity:1;fill-rule:nonzero;stroke:none"
                 id="path472" /></g><g
               transform="translate(379.1656,8331.5088)"
               id="g478"><path
                 d="m 0,0 c 21.293,-7.288 43.654,-12.592 66.435,-15.76 83.645,-11.715 171.297,3.664 234.489,41.136 0.725,1.68 1.717,3.167 2.938,4.503 -8.586,25.185 -31.558,51.896 -68.267,79.409 -52.736,39.495 -122.415,62.085 -196.253,63.573 -69.411,1.412 -135.122,-13.699 -185.149,-42.508 -1.984,-0.955 -3.854,-2.137 -5.571,-3.549 -0.381,-1.45 -0.763,-2.977 -1.106,-4.465 l 0.114,-0.878 C -139.396,93.72 -117.836,68.42 -88.301,46.249 -62.886,27.17 -32.359,11.143 0.038,-0.076 Z m 122.071,-20.567 c -18.583,0 -37.281,1.258 -55.788,3.853 -22.82,3.206 -45.257,8.51 -66.626,15.837 -32.474,11.257 -63.116,27.321 -88.568,46.44 -29.688,22.285 -51.324,47.737 -64.375,75.631 v 0.115 l -0.191,1.106 v 0.076 c 0.382,1.603 0.764,3.205 1.222,4.771 v 0.152 l 0.152,0.076 c 1.832,1.489 3.778,2.747 5.877,3.739 50.141,28.887 116.042,43.999 185.645,42.625 74.028,-1.489 143.936,-24.155 196.787,-63.764 37.51,-28.124 59.986,-54.339 68.686,-80.135 l 0.077,-0.267 -0.191,-0.191 c -1.259,-1.335 -2.29,-2.899 -3.015,-4.579 l -0.076,-0.152 -0.153,-0.077 C 252.118,-4.655 187.782,-20.529 122.071,-20.529 Z"
                 style="fill:#000000;fill-opacity:1;fill-rule:nonzero;stroke:none"
                 id="path476" /></g><g
               transform="translate(367.9468,8516.3145)"
               id="g482"><path
                 d="m 0,0 h -4.923 c -64.794,0.84 -125.047,17.553 -175.494,48.538 -40.716,24.69 -72.999,57.812 -94.826,97.65 l -0.076,0.229 -0.687,3.205 1.565,-2.861 c 18.392,-33.504 45.485,-63.535 78.417,-86.775 5.228,-3.701 10.608,-7.212 16.065,-10.608 15.569,-9.464 32.397,-17.668 50.37,-24.536 45.41,-17.363 96.505,-25.414 147.371,-23.545 59.987,2.71 120.622,19.156 172.976,47.165 l 0.534,0.306 0.229,-0.955 -0.305,-0.267 C 150.691,25.872 107.075,11.371 61.513,4.465 47.05,2.289 32.435,0.916 17.82,0.382 11.868,0.114 5.915,-0.038 0,-0.038 Z"
                 style="fill:#000000;fill-opacity:1;fill-rule:nonzero;stroke:none"
                 id="path480" /></g><g
               transform="translate(560.155,8561.1133)"
               id="g486"><path
                 d="m 0,0 -1.717,2.938 c -0.992,1.755 -1.984,3.473 -2.977,5.228 -4.197,7.174 -8.738,14.081 -13.622,20.797 -11.944,16.332 -26.063,31.519 -41.937,45.066 -25.567,21.75 -55.866,39.266 -90.056,51.897 -52.164,19.308 -111.654,26.368 -169.542,20.377 -37.243,-4.083 -74.296,-13.356 -108.945,-27.284 -12.974,-5.266 -25.681,-11.219 -38.082,-17.821 l -0.573,-0.304 -0.191,0.953 0.306,0.267 c 12.287,6.526 24.994,12.44 38.044,17.668 28.811,11.715 58.918,20.033 89.942,24.88 6.487,0.992 12.974,1.869 19.499,2.519 15.989,1.755 32.016,2.556 47.852,2.365 71.548,-0.801 137.64,-21.025 191.14,-58.422 7.326,-5.113 14.386,-10.569 21.102,-16.332 15.492,-13.127 29.23,-27.779 41.097,-43.807 6.564,-8.852 12.516,-18.049 17.744,-27.55 V 3.32 l 0.878,-3.396 z"
                 style="fill:#000000;fill-opacity:1;fill-rule:nonzero;stroke:none"
                 id="path484" /></g><g
               transform="translate(93.6962,8662.6553)"
               id="g490"><path
                 d="m 0,0 c 30.146,-54.759 80.134,-96.733 144.585,-121.385 58.422,-22.361 126.231,-29.268 190.988,-19.423 45.256,6.869 88.643,21.255 128.94,42.739 -0.916,1.602 -1.794,3.205 -2.71,4.807 C 430.475,-39.877 380.104,0.839 316.188,24.498 258.186,45.981 191.063,52.316 127.261,42.356 82.615,35.373 39.8,21.14 0.038,0.038 Z m 277.418,-146.112 c -46.135,0 -92.002,8.09 -133.176,23.849 C 79.409,-97.459 29.154,-55.179 -1.068,0 l -0.229,0.42 0.419,0.228 c 39.991,21.293 83.035,35.641 127.948,42.663 63.993,9.998 131.268,3.625 189.423,-17.897 64.146,-23.735 114.668,-64.603 146.112,-118.18 0.992,-1.755 1.984,-3.472 2.938,-5.227 l 0.229,-0.42 -0.42,-0.229 c -40.525,-21.674 -84.141,-36.174 -129.703,-43.082 -19.271,-2.938 -38.808,-4.35 -58.308,-4.35 z"
                 style="fill:#000000;fill-opacity:1;fill-rule:nonzero;stroke:none"
                 id="path488" /></g><g
               transform="translate(93.7344,8662.5791)"
               id="g494"><path
                 d="m 0,0 c 18.355,-33.352 45.41,-63.192 78.188,-86.354 53.347,-37.702 119.439,-58.118 191.14,-59.033 67.046,-0.878 136.343,15.95 195.185,47.318 -1.221,2.174 -2.481,4.387 -3.74,6.487 -19.385,32.626 -47.47,61.779 -81.241,84.217 -53.309,35.45 -118.485,54.301 -188.43,54.53 h -1.26 C 123.75,47.165 58.155,30.87 0.038,0 Z m 274.212,-146.379 h -4.922 c -71.892,0.915 -138.175,21.407 -191.674,59.185 -33.046,23.353 -60.254,53.461 -78.684,87.118 l -0.229,0.419 0.419,0.229 c 58.384,31.1 124.285,47.508 190.682,47.508 h 1.259 C 261.2,47.852 326.529,28.963 380.028,-6.602 c 33.885,-22.514 62.085,-51.744 81.546,-84.523 1.374,-2.289 2.71,-4.617 4.007,-6.944 l 0.229,-0.42 -0.42,-0.23 c -57.62,-30.832 -125.315,-47.66 -191.139,-47.66 z"
                 style="fill:#000000;fill-opacity:1;fill-rule:nonzero;stroke:none"
                 id="path492" /></g><g
               transform="translate(220.3468,8698.7158)"
               id="g498"><path
                 d="m 0,0 c -1.603,-7.861 0.343,-15.34 5.686,-21.599 20.262,-25.108 77.768,-45.103 120.697,-41.86 24.842,1.832 42.739,10.952 51.744,26.368 6.297,21.636 -9.272,35.527 -23.468,43.387 C 111.196,30.375 24.727,29.955 2.9,5.571 1.946,3.701 0.992,1.87 0,0.038 Z m 117.111,-64.757 c -41.823,0 -93.147,19.042 -112.15,42.548 -5.533,6.525 -7.594,14.272 -5.877,22.476 v 0.115 c 1.069,1.869 2.061,3.739 3.015,5.647 l 0.076,0.115 c 21.98,24.688 109.174,25.223 152.981,0.954 20.796,-11.525 29.039,-26.941 23.887,-44.609 -9.234,-15.798 -27.398,-25.07 -52.545,-26.94 -3.053,-0.229 -6.182,-0.344 -9.349,-0.344 z"
                 style="fill:#000000;fill-opacity:1;fill-rule:nonzero;stroke:none"
                 id="path496" /></g><g
               transform="translate(275.4106,8733.6309)"
               id="g502"><path
                 d="m 0,0 c -24.04,0 -48.997,-3.739 -67.885,-15.454 -13.394,-8.318 -19.767,-17.973 -18.927,-28.657 1.831,-23.202 36.862,-46.097 59.948,-55.827 39.533,-17.249 86.316,-22.972 128.329,-15.646 22.972,4.007 49.646,14.691 55.484,32.74 3.549,10.876 -1.03,22.973 -13.547,35.908 C 114.783,-17.362 66.588,-6.754 40.411,-3.014 28.2,-1.297 14.233,0.039 -0.038,0.039 Z m 64.565,-119.629 c -31.366,0 -63.458,6.449 -91.811,18.813 -23.315,9.845 -58.689,33.045 -60.558,56.628 -0.878,11.066 5.647,20.988 19.384,29.536 16.752,10.379 49.226,20.987 108.983,12.553 26.292,-3.739 74.716,-14.423 103.526,-44.188 12.784,-13.203 17.401,-25.605 13.738,-36.861 -5.991,-18.431 -32.97,-29.307 -56.247,-33.39 -12.058,-2.099 -24.498,-3.129 -37.053,-3.129 z"
                 style="fill:#000000;fill-opacity:1;fill-rule:nonzero;stroke:none"
                 id="path500" /></g><g
               transform="translate(269.9538,8737.2949)"
               id="g506"><path
                 d="m 0,0 c -56.628,0 -81.852,-15.073 -92.384,-25.109 -9.768,-9.349 -13.622,-19.461 -11.409,-30.108 2.709,-13.089 14.767,-27.36 34.877,-41.212 17.019,-11.715 36.29,-20.797 48.692,-25.414 48.309,-18.622 103.984,-22.819 152.751,-11.562 30.413,7.021 49.874,20.988 53.461,38.312 3.358,16.294 -7.479,34.572 -30.565,51.515 C 115.355,-14.157 66.779,-4.465 33.046,-1.526 20.988,-0.458 9.998,0 -0.038,0 Z m 76.509,-140.541 c -32.893,0 -66.435,6.029 -97.039,17.82 -21.178,7.862 -77.577,35.298 -84.179,67.314 -2.251,10.989 1.679,21.407 11.677,30.985 29.077,27.779 91.544,26.864 126.192,23.85 33.848,-2.939 82.615,-12.669 122.835,-42.243 23.392,-17.171 34.343,-35.793 30.909,-52.469 -3.663,-17.706 -23.392,-31.94 -54.186,-39.037 -18.049,-4.159 -37.053,-6.22 -56.285,-6.22 z"
                 style="fill:#000000;fill-opacity:1;fill-rule:nonzero;stroke:none"
                 id="path504" /></g><g
               transform="translate(268.2367,8738.0957)"
               id="g510"><path
                 d="m 0,0 c -37.701,0 -87.27,-5.342 -110.051,-30.756 -8.319,-9.311 -11.257,-19.385 -8.739,-29.993 8.09,-33.924 69.069,-64.413 91.888,-73.304 51.286,-20.568 112.341,-26.025 167.519,-14.959 21.331,4.275 61.055,12.249 70.098,34.763 9.769,24.308 -15.645,47.585 -35.602,62.963 C 139.129,-23.506 89.026,-5.8 34.038,-1.373 25.338,-0.687 13.432,0 -0.038,0 Z m 82.996,-155.575 c -38.006,0 -76.242,7.021 -110.204,20.644 -22.933,8.929 -84.255,39.648 -92.459,73.952 -2.595,10.915 0.381,21.293 8.929,30.833 13.127,14.692 36.175,24.308 68.496,28.582 27.97,3.74 57.01,2.67 76.395,1.106 55.178,-4.426 105.434,-22.208 141.57,-50.103 20.225,-15.607 45.906,-39.189 35.908,-64.069 -9.234,-23.011 -49.263,-31.023 -70.785,-35.336 -18.813,-3.777 -38.312,-5.647 -57.888,-5.647 z"
                 style="fill:#000000;fill-opacity:1;fill-rule:nonzero;stroke:none"
                 id="path508" /></g><g
               transform="translate(267.5117,8737.1035)"
               id="g514"><path
                 d="m 0,0 c -40.182,0 -89.712,-5.724 -118.256,-30.069 -10.455,-8.929 -14.882,-19.041 -13.241,-30.108 5.266,-35.144 70.29,-70.709 92.651,-80.363 56.132,-24.651 124.361,-31.939 187.209,-19.957 l 1.488,0.267 c 21.866,4.159 62.62,11.906 75.327,32.245 14.31,22.895 -7.022,46.249 -27.17,64.069 C 157.827,-28.467 99.901,-6.258 34.878,-1.335 24.88,-0.572 12.936,0 0,0 m 87.728,-167.099 c -44.226,0 -88.415,8.739 -126.918,25.681 -13.164,5.686 -35.335,17.439 -54.491,31.787 -16.103,12.058 -35.908,30.412 -38.77,49.34 -1.717,11.409 2.862,21.827 13.547,30.985 37.968,32.436 112.684,32.092 153.82,28.963 65.214,-4.923 123.369,-27.208 163.665,-62.81 20.453,-18.049 42.051,-41.785 27.36,-65.29 -12.936,-20.683 -53.919,-28.467 -75.937,-32.665 l -1.488,-0.267 c -19.919,-3.816 -40.373,-5.686 -60.826,-5.686 z"
                 style="fill:#000000;fill-opacity:1;fill-rule:nonzero;stroke:none"
                 id="path512" /></g><g
               transform="translate(265.3747,8734.9668)"
               id="g518"><path
                 d="m 0,0 c -42.929,0 -102.076,-5.838 -130.543,-34.916 -8.586,-8.776 -11.753,-18.659 -9.387,-29.382 8.471,-38.541 85.935,-78.914 113.219,-89.255 55.979,-21.597 121.079,-27.208 183.278,-15.798 l 2.939,0.535 c 24.498,4.464 70.098,12.745 82.729,34.42 14.119,24.192 -12.364,50.56 -36.976,70.823 -40.564,33.351 -96.887,55.139 -158.59,61.36 C 39.266,-1.488 21.713,0 0.076,0 Z m 92.803,-176.066 c -41.631,0 -82.729,7.326 -119.858,21.635 -27.398,10.38 -105.243,51.02 -113.791,89.942 -2.442,11.066 0.802,21.217 9.654,30.26 43.159,44.074 155.805,35.183 177.937,32.97 61.894,-6.22 118.408,-28.086 159.124,-61.551 16.027,-13.165 53.538,-44.036 37.205,-72.044 -12.859,-22.057 -58.727,-30.375 -83.377,-34.878 l -2.939,-0.535 c -21.14,-3.892 -42.585,-5.799 -63.916,-5.799 z"
                 style="fill:#000000;fill-opacity:1;fill-rule:nonzero;stroke:none"
                 id="path516" /></g><g
               transform="translate(114.7601,8681.6582)"
               id="g522"><path
                 d="m 0,0 c -1.412,-23.086 15.34,-47.584 48.424,-70.938 27.055,-19.08 60.177,-34 82.157,-41.593 19.041,-6.678 39.457,-11.753 60.635,-15.073 26.788,-4.16 73.457,-7.25 116.882,-2.29 36.213,4.122 83.073,15.493 100.817,46.134 0.419,2.023 0.686,4.083 0.877,6.145 -5.228,29.84 -36.594,55.101 -59.757,71.471 C 302.374,27.628 239.64,47.317 173.396,49.34 134.588,50.523 40.22,48.577 2.29,5.189 1.374,3.587 0.572,1.832 -0.076,0 Z m 260.322,-133.404 c -27.169,0 -52.201,2.213 -69.22,4.883 -21.255,3.321 -41.709,8.396 -60.826,15.112 C 83.454,-97.229 -4.236,-52.697 -0.954,0.153 v 0.115 c 0.687,1.907 1.526,3.739 2.557,5.495 38.273,43.73 132.985,45.714 171.907,44.531 66.397,-2.023 129.322,-21.789 177.135,-55.636 23.316,-16.523 54.912,-41.937 60.139,-72.159 v -0.076 -0.077 c -0.19,-2.137 -0.496,-4.274 -0.915,-6.372 v -0.153 c -14.272,-24.575 -49.379,-40.716 -101.657,-46.669 -15.912,-1.832 -32.282,-2.556 -47.928,-2.556 z"
                 style="fill:#000000;fill-opacity:1;fill-rule:nonzero;stroke:none"
                 id="path520" /></g><g
               transform="translate(243.5095,8560.8467)"
               id="g526"><path
                 d="m 0,0 c 20.072,-6.983 40.525,-12.211 60.788,-15.493 38.617,-6.296 82.309,-7.288 119.858,-2.747 48.386,5.838 85.935,20.797 108.601,43.158 0.763,1.717 1.527,3.472 2.252,5.189 0,2.251 -0.153,4.541 -0.42,6.754 -8.624,24.117 -29.879,47.852 -64.871,72.465 -49.912,35.069 -115.126,55.178 -183.622,56.628 -40.411,0.84 -138.671,-1.946 -177.555,-46.249 -0.573,-1.87 -1.107,-3.701 -1.641,-5.571 8.166,-50.79 78.646,-93.223 136.572,-114.135 z m 131.764,-22.019 c -23.926,0 -48.386,1.871 -71.091,5.572 -20.339,3.32 -40.83,8.548 -60.978,15.531 -58.193,21.025 -129.055,63.764 -137.183,115.012 v 0.114 0.114 c 0.534,1.947 1.107,3.893 1.717,5.801 l 0.115,0.19 C -96.543,165 2.061,167.786 42.7,166.946 c 68.687,-1.45 134.092,-21.636 184.157,-56.781 35.183,-24.727 56.514,-48.614 65.252,-73.036 0.267,-2.404 0.42,-4.733 0.42,-7.06 v -0.191 c -0.801,-1.793 -1.603,-3.625 -2.404,-5.38 L 290.01,24.345 C 267.191,1.793 229.413,-13.28 180.799,-19.156 165.23,-21.026 148.63,-21.98 131.764,-21.98 Z"
                 style="fill:#000000;fill-opacity:1;fill-rule:nonzero;stroke:none"
                 id="path524" /></g><g
               transform="translate(245.0358,8552.3369)"
               id="g530"><path
                 d="m 0,0 c 21.217,-7.479 43.731,-13.013 67.008,-16.37 68.076,-9.846 163.55,-4.694 227.505,39.304 1.145,1.412 2.404,2.785 3.74,4.045 0.648,1.831 0.992,3.739 1.03,5.647 -9.158,26.559 -32.321,52.545 -70.785,79.447 -49.607,34.688 -111.425,54.453 -178.738,57.163 -112.799,4.541 -170.458,-28.963 -190.072,-43.654 -0.992,-1.526 -2.098,-3.015 -3.243,-4.427 -0.153,-2.098 -0.153,-4.197 0.038,-6.296 C -136.381,97.229 -104.976,37.243 -0.038,0 Z m 127.032,-21.561 c -21.293,0 -41.708,1.565 -60.139,4.237 -23.315,3.357 -45.944,8.89 -67.198,16.408 -26.674,9.464 -115.852,45.753 -144.09,115.47 v 0.153 c -0.229,2.213 -0.267,4.464 -0.076,6.678 v 0.152 l 0.115,0.114 c 1.182,1.451 2.289,2.977 3.358,4.541 l 0.114,0.115 c 22.857,17.133 53.652,29.535 91.506,36.9 38.655,7.518 75.326,7.938 99.252,6.983 67.504,-2.71 129.474,-22.552 179.234,-57.353 38.694,-27.055 61.971,-53.233 71.167,-79.983 v -0.076 -0.076 c -0.038,-2.098 -0.42,-4.159 -1.145,-6.143 l -0.114,-0.191 c -1.336,-1.26 -2.633,-2.633 -3.778,-4.083 l -0.114,-0.076 c -46.86,-32.245 -110.548,-43.73 -168.092,-43.73 z"
                 style="fill:#000000;fill-opacity:1;fill-rule:nonzero;stroke:none"
                 id="path528" /></g><g
               transform="translate(248.8136,8543.751)"
               id="g534"><path
                 d="m 0,0 c 21.255,-7.25 43.578,-12.517 66.283,-15.684 83.492,-11.638 170.953,3.702 234.069,41.098 0.725,1.679 1.717,3.167 2.938,4.503 -8.662,25.643 -32.169,52.736 -69.908,80.516 -52.622,38.731 -122.071,60.75 -195.528,61.932 -35.221,0.572 -124.17,-2.785 -188.85,-45.981 -0.382,-1.45 -0.763,-2.939 -1.107,-4.427 l 0.115,-0.84 C -139.052,93.452 -117.569,68.229 -88.11,46.173 -62.772,27.169 -32.321,11.257 -0.038,0.076 Z m 121.69,-20.453 c -18.507,0 -37.091,1.259 -55.522,3.815 -22.781,3.167 -45.142,8.472 -66.473,15.722 -32.397,11.219 -62.925,27.208 -88.339,46.249 -29.612,22.209 -51.21,47.547 -64.222,75.364 v 0.116 l -0.191,1.106 v 0.076 c 0.382,1.603 0.802,3.205 1.221,4.732 v 0.153 l 0.191,0.114 c 45.715,30.604 114.783,47.432 189.537,46.249 73.647,-1.183 143.288,-23.239 196.062,-62.123 38.045,-28.01 61.704,-55.331 70.366,-81.241 l 0.076,-0.268 -0.19,-0.19 c -1.26,-1.336 -2.29,-2.862 -3.015,-4.579 l -0.076,-0.154 -0.153,-0.076 C 251.584,-4.693 187.286,-20.529 121.652,-20.529 Z"
                 style="fill:#000000;fill-opacity:1;fill-rule:nonzero;stroke:none"
                 id="path532" /></g></g></g></g></g></g></svg>
