<?xml version="1.0" encoding="UTF-8" standalone="no"?>
<!-- Created with Inkscape (http://www.inkscape.org/) -->

<svg
   width="26.15744mm"
   height="12.679892mm"
   viewBox="0 0 26.15744 12.679892"
   version="1.1"
   id="svg5"
   xml:space="preserve"
   xmlns:inkscape="http://www.inkscape.org/namespaces/inkscape"
   xmlns:sodipodi="http://sodipodi.sourceforge.net/DTD/sodipodi-0.dtd"
   xmlns="http://www.w3.org/2000/svg"
   xmlns:svg="http://www.w3.org/2000/svg"><sodipodi:namedview
     id="namedview7"
     pagecolor="#ffffff"
     bordercolor="#000000"
     borderopacity="0.25"
     inkscape:showpageshadow="2"
     inkscape:pageopacity="0.0"
     inkscape:pagecheckerboard="0"
     inkscape:deskcolor="#d1d1d1"
     inkscape:document-units="mm"
     showgrid="false" /><defs
     id="defs2"><clipPath
       clipPathUnits="userSpaceOnUse"
       id="clipPath682"><path
         d="M 0,11179.31 H 1200 V 0 H 0 Z"
         id="path680" /></clipPath></defs><g
     id="g676"
     transform="matrix(0.35277776,0,0,-0.35277778,-21.91925,3924.7548)"><g
       id="g678"
       clip-path="url(#clipPath682)"><g
         id="g684"
         transform="translate(103.6913,11103.965)"><path
           d="M 0,0 C -3.076,0 -5.755,1.812 -7.115,4.482 -7.565,2.846 -8.276,1.329 -9.207,-0.011 -6.958,-2.702 -3.662,-4.395 0,-4.395 3.662,-4.395 6.958,-2.691 9.207,0 8.276,1.341 7.554,2.856 7.115,4.493 5.755,1.824 3.076,0 0,0"
           style="fill:#00a340;fill-opacity:1;fill-rule:nonzero;stroke:none"
           id="path686" /></g><g
         id="g688"
         transform="translate(75.3163,11112.435)"><path
           d="m 0,0 c 0,4.669 3.62,8.459 8.067,8.459 1.552,0 3.002,-0.463 4.233,-1.263 L 0.295,-2.237 C 0.108,-1.523 0,-0.775 0,0 m 21.26,3.987 c 1.361,2.659 4.039,4.472 7.115,4.472 3.076,0 5.755,-1.813 7.115,-4.482 0.439,1.626 1.161,3.141 2.092,4.482 -2.249,2.691 -5.545,4.395 -9.207,4.395 -3.662,0 -6.958,-1.693 -9.207,-4.384 C 18.823,8.063 18.509,7.635 18.216,7.185 17.267,5.706 16.607,4.01 16.307,2.186 H 16.301 C 16.296,2.153 16.294,2.12 16.289,2.088 16.25,1.838 16.222,1.585 16.196,1.33 16.188,1.241 16.174,1.152 16.167,1.062 16.14,0.712 16.123,0.357 16.123,0 c 0,-1.429 -0.345,-2.791 -0.941,-3.978 -1.361,-2.668 -4.039,-4.493 -7.115,-4.493 -2.192,0 -4.181,0.927 -5.637,2.424 L 15.182,3.977 c 0,0 0,0.001 0,0.001 0.439,1.626 1.151,3.141 2.092,4.481 -2.249,2.691 -5.545,4.395 -9.207,4.395 C 1.308,12.854 -4.185,7.086 -4.185,0 c 0,-1.773 0.343,-3.463 0.962,-5.001 l -9.68,-7.605 c -0.103,-0.085 -0.196,-0.169 -0.28,-0.263 h 6.934 l 5.3,4.166 c 2.241,-2.557 5.452,-4.162 9.016,-4.162 3.662,0 6.958,1.703 9.207,4.394 0.335,0.408 0.649,0.835 0.942,1.275 1.318,2.054 2.092,4.537 2.092,7.196 0,1.438 0.346,2.801 0.952,3.987"
           style="fill:#00a340;fill-opacity:1;fill-rule:nonzero;stroke:none"
           id="path690" /></g><g
         id="g692"
         transform="translate(123.9996,11103.965)"><path
           d="m 0,0 c -3.076,0 -5.755,1.812 -7.115,4.482 -0.607,1.187 -0.952,2.549 -0.952,3.989 0,1.438 0.345,2.8 0.952,3.987 1.36,2.659 4.039,4.472 7.115,4.472 4.447,0 8.067,-3.79 8.067,-8.459 C 8.067,3.802 4.447,0 0,0 m 0,21.324 c -3.662,0 -6.968,-1.703 -9.207,-4.394 -0.346,-0.407 -0.659,-0.835 -0.952,-1.285 -1.319,-2.055 -2.093,-4.527 -2.093,-7.174 0,-2.659 0.774,-5.131 2.093,-7.186 C -9.866,0.835 -9.553,0.407 -9.207,0 -6.968,-2.691 -3.662,-4.395 0,-4.395 c 6.759,0 12.252,5.768 12.252,12.866 0,7.086 -5.493,12.853 -12.252,12.853"
           style="fill:#00a340;fill-opacity:1;fill-rule:nonzero;stroke:none"
           id="path694" /></g><g
         id="g696"
         transform="translate(62.671,11093.271)"><path
           d="M 0,0 V -1.457 H 2.415 V -1.936 H 0 V -3.399 H 2.704 V -3.872 H -0.492 V 0.473 H 2.704 V 0 Z"
           style="fill:#00a340;fill-opacity:1;fill-rule:nonzero;stroke:none"
           id="path698" /></g><g
         id="g700"
         transform="translate(71.5432,11093.743)"><path
           d="m 0,0 v -4.345 h -0.571 l -2.684,3.669 V -4.345 H -3.747 V 0 h 0.571 l 2.684,-3.655 V 0 Z"
           style="fill:#00a340;fill-opacity:1;fill-rule:nonzero;stroke:none"
           id="path702" /></g><g
         id="g704"
         transform="translate(77.8036,11093.743)"><path
           d="M 0,0 -1.759,-4.345 H -2.323 L -4.082,0 h 0.538 L -2.041,-3.787 -0.538,0 Z"
           style="fill:#00a340;fill-opacity:1;fill-rule:nonzero;stroke:none"
           id="path706" /></g><path
         d="m 80.474,11089.398 h -0.492 v 4.345 h 0.492 z"
         style="fill:#00a340;fill-opacity:1;fill-rule:nonzero;stroke:none"
         id="path708" /><g
         id="g710"
         transform="translate(83.6572,11091.531)"><path
           d="m 0,0 h 1.503 c 0.463,0 0.783,0.145 0.958,0.434 0.066,0.109 0.098,0.249 0.098,0.42 0,0.275 -0.094,0.493 -0.282,0.652 -0.188,0.16 -0.437,0.24 -0.748,0.24 H 0 Z m 0,-2.133 h -0.492 v 4.345 h 2.08 c 0.442,0 0.796,-0.123 1.063,-0.368 0.267,-0.24 0.4,-0.571 0.4,-0.99 0,-0.543 -0.225,-0.913 -0.675,-1.11 C 2.249,-0.312 2.124,-0.354 2.002,-0.381 L 3.143,-2.133 H 2.559 l -1.05,1.667 H 0 Z"
           style="fill:#00a340;fill-opacity:1;fill-rule:nonzero;stroke:none"
           id="path712" /></g><g
         id="g714"
         transform="translate(91.112,11089.825)"><path
           d="m 0,0 c 0.516,0 0.934,0.168 1.253,0.505 0.307,0.324 0.46,0.737 0.46,1.24 0,0.504 -0.153,0.917 -0.46,1.241 C 0.934,3.322 0.516,3.491 0,3.491 c -0.516,0 -0.934,-0.169 -1.253,-0.505 -0.307,-0.324 -0.46,-0.737 -0.46,-1.241 0,-0.503 0.153,-0.916 0.46,-1.24 C -0.934,0.168 -0.516,0 0,0 M 0,3.971 C 0.647,3.971 1.179,3.754 1.595,3.32 2.002,2.9 2.205,2.376 2.205,1.745 2.205,1.115 2.002,0.591 1.595,0.171 1.179,-0.263 0.647,-0.479 0,-0.479 c -0.648,0 -1.179,0.216 -1.595,0.65 -0.407,0.42 -0.61,0.944 -0.61,1.574 0,0.631 0.203,1.155 0.61,1.575 0.416,0.434 0.947,0.651 1.595,0.651"
           style="fill:#00a340;fill-opacity:1;fill-rule:nonzero;stroke:none"
           id="path716" /></g><g
         id="g718"
         transform="translate(99.4791,11093.743)"><path
           d="m 0,0 v -4.345 h -0.571 l -2.684,3.669 V -4.345 H -3.747 V 0 h 0.571 l 2.684,-3.655 V 0 Z"
           style="fill:#00a340;fill-opacity:1;fill-rule:nonzero;stroke:none"
           id="path720" /></g><g
         id="g722"
         transform="translate(105.9167,11093.743)"><path
           d="m 0,0 v -4.345 h -0.571 l -2.684,3.669 V -4.345 H -3.747 V 0 h 0.571 l 2.684,-3.655 V 0 Z"
           style="fill:#00a340;fill-opacity:1;fill-rule:nonzero;stroke:none"
           id="path724" /></g><g
         id="g726"
         transform="translate(109.0993,11093.271)"><path
           d="M 0,0 V -1.457 H 2.415 V -1.936 H 0 V -3.399 H 2.704 V -3.872 H -0.492 V 0.473 H 2.704 V 0 Z"
           style="fill:#00a340;fill-opacity:1;fill-rule:nonzero;stroke:none"
           id="path728" /></g><g
         id="g730"
         transform="translate(118.4506,11093.743)"><path
           d="m 0,0 v -4.345 h -0.492 v 3.597 L -2.1,-2.815 -3.734,-0.748 V -4.345 H -4.226 V 0 h 0.571 L -2.1,-2.061 -0.571,0 Z"
           style="fill:#00a340;fill-opacity:1;fill-rule:nonzero;stroke:none"
           id="path732" /></g><g
         id="g734"
         transform="translate(121.6334,11093.271)"><path
           d="M 0,0 V -1.457 H 2.415 V -1.936 H 0 V -3.399 H 2.704 V -3.872 H -0.492 V 0.473 H 2.704 V 0 Z"
           style="fill:#00a340;fill-opacity:1;fill-rule:nonzero;stroke:none"
           id="path736" /></g><g
         id="g738"
         transform="translate(130.5056,11093.743)"><path
           d="m 0,0 v -4.345 h -0.571 l -2.684,3.669 V -4.345 H -3.747 V 0 h 0.571 l 2.684,-3.655 V 0 Z"
           style="fill:#00a340;fill-opacity:1;fill-rule:nonzero;stroke:none"
           id="path740" /></g><g
         id="g742"
         transform="translate(136.2804,11093.271)"><path
           d="M 0,0 H -1.516 V -3.872 H -2.008 V 0 H -3.524 V 0.473 H 0 Z"
           style="fill:#00a340;fill-opacity:1;fill-rule:nonzero;stroke:none"
           id="path744" /></g></g></g></svg>
