<?xml version="1.0" encoding="UTF-8"?>
<svg id="Calque_2" data-name="Calque 2" xmlns="http://www.w3.org/2000/svg" viewBox="0 0 208.92 175.02">
  <g id="icones">
    <g>
      <g>
        <path d="m157.07,162.9l-.35-.5c-5.81-8.5-9.47-18.25-10.58-28.18-1.71-15.33,2.29-30.7,11.58-44.63,3.11-4.84,6.78-9.39,10.95-13.53,8.13-8.08,17.91-14.7,29.06-19.68l.14-.06.05.25-.09.07c-15.43,6.89-29.06,17.86-38.38,30.89-.53.73-1.04,1.47-1.53,2.21-5.48,8.54-9.2,17.98-10.78,27.6-2.65,16.14.73,31.66,9.77,44.9l.02.04.13.62Zm-6.18-59.98c-3.45,8.45-5.1,17.23-4.86,26.04-.06-3.83.23-7.73.87-11.66.8-4.87,2.15-9.7,3.99-14.38Z"/>
        <path d="m156.73,162.51l-.05-.25.09-.07c2.03-.91,4.02-1.87,5.96-2.88,11.92-6.34,23.29-15.56,31.73-26.92,6.71-9.36,11.24-19.98,13.05-30.85,2.43-14.62-.09-28.71-7.31-41.04-.23-.4-.47-.8-.72-1.19-.57-.91-1.17-1.83-1.79-2.72l-.02-.04-.13-.61.35.49c.9,1.31,1.75,2.64,2.54,4,4.77,8.15,7.64,17.29,8.32,26.5,1.16,15.78-3.69,31.52-14.03,45.52,0,0,0,0-.01.01-2.64,3.69-5.61,7.18-8.89,10.42-6.43,6.36-13.89,11.8-22.22,16.25-2.2,1.19-4.44,2.3-6.73,3.32l-.14.06Zm51.9-73.24c.1,4.04-.19,8.16-.88,12.32-1.08,6.49-3.12,12.89-6.02,18.98,4.69-9.48,7.32-20.01,6.91-31.3Z"/>
        <path d="m156.77,162.46l-.06-.09c-5.81-8.5-9.47-18.25-10.58-28.18-1.8-16.14,2.73-32.34,13.12-46.85,9.35-13.06,23.02-24.06,38.48-30.97l.09-.04.06.09c.62.9,1.22,1.82,1.79,2.73h0c5.22,8.46,8.35,18.05,9.06,27.74,1.16,15.78-3.69,31.52-14.03,45.52-9.31,12.62-22.75,23.28-37.85,30.01l-.09.04Zm40.97-105.82c-15.39,6.89-28.98,17.84-38.29,30.84-10.35,14.45-14.87,30.6-13.07,46.68,1.1,9.86,4.72,19.53,10.48,27.98,27.56-12.32,54.19-40.35,51.63-75.24-.71-9.65-3.83-19.2-9.03-27.63h0c-.55-.88-1.13-1.77-1.73-2.64Z"/>
        <path d="m156.78,162.49l-.06-.09c-9.08-13.29-12.47-28.88-9.81-45.08,2.48-15.12,10.21-29.76,21.77-41.24,8.13-8.08,17.91-14.7,29.06-19.68l.09-.04.06.09c.51.74,1.02,1.51,1.5,2.27,8.42,13.29,11.21,28.76,8.07,44.72-2.91,14.8-10.86,29.07-22.36,40.17-8,7.72-17.5,14.05-28.23,18.83l-.09.04Zm40.97-105.82c-11.08,4.96-20.8,11.55-28.89,19.59-11.52,11.44-19.22,26.04-21.7,41.1-2.64,16.1.71,31.59,9.71,44.81,10.67-4.76,20.11-11.07,28.06-18.74,11.47-11.07,19.39-25.29,22.29-40.04,3.13-15.9.35-31.3-8.04-44.54h0c-.46-.73-.95-1.47-1.44-2.18Z"/>
        <path d="m166.73,112.22c-.52,0-1.03-.04-1.55-.11h-.02c-3.5-1.13-5.69-3.51-6.5-7.06-2.11-9.19,5.68-23.81,10.46-28.39,6.87-6.58,11.04-5.89,13.33-4.16,5.16,3.91,5.72,17.21,1.09,25.88-1.19,2.23-3.73,6.46-7.37,9.69-3.11,2.76-6.28,4.16-9.44,4.16Zm-1.5-.36c3.59.52,7.22-.83,10.78-3.98,3.61-3.2,6.13-7.4,7.32-9.62,2.09-3.91,3.24-9.28,3.08-14.37-.16-5.26-1.66-9.34-4.1-11.19-3.17-2.41-7.67-.97-13.01,4.14-4.75,4.55-12.49,19.05-10.39,28.15.79,3.46,2.92,5.77,6.33,6.87Z"/>
        <path d="m163.14,122.04c-2.92,0-5.11-1.11-6.54-3.33-3.63-5.62-1.41-16.69.24-22.79,2.23-8.25,5.96-16.88,8.69-20.08,4.46-5.23,11.38-10.72,17.36-10.48,2.92.12,5.41,1.58,7.39,4.33,5.25,7.3,3.16,19.46-.55,28.41-3.8,9.16-11.58,20.07-22.04,23.22h0c-1.67.48-3.19.73-4.55.73Zm19.35-56.44c-5.81,0-12.45,5.33-16.78,10.4-4.78,5.6-15.13,32.92-8.9,42.57,2.03,3.15,5.67,3.99,10.81,2.5,10.37-3.12,18.1-13.96,21.88-23.07,3.68-8.88,5.77-20.95.58-28.17-1.94-2.69-4.36-4.11-7.2-4.23-.13,0-.26,0-.38,0Z"/>
        <path d="m163.67,128.99c-1.42,0-2.79-.24-4.1-.72h-.01c-5.42-2.64-8.59-7.17-9.4-13.47-2.08-16.05,11.71-38.82,19.9-45.86,5.74-4.93,13.79-9.83,19.57-5.17,3.86,3.11,6.03,10.13,5.97,19.25-.06,8.39-2.03,17.17-5.14,22.92-2.5,4.62-7.13,11.33-12.61,16.28-4.95,4.48-9.78,6.76-14.17,6.76Zm-4.01-.95c3.7,1.34,9.83,1.39,18.01-6,5.46-4.93,10.07-11.61,12.56-16.22,3.09-5.71,5.05-14.45,5.11-22.8.06-9.05-2.08-16-5.87-19.06-4.47-3.6-11.12-1.82-19.25,5.16-8.16,7.01-21.89,29.67-19.82,45.64.8,6.21,3.92,10.67,9.26,13.27Z"/>
        <path d="m162.53,135.01c-1.43,0-2.84-.23-4.23-.73h-.02c-11.75-6.08-9.96-26.08-7.37-35.82,3.15-11.86,10.04-22.82,19.4-30.86,7.22-6.21,14.46-8.63,19.87-6.67,4.75,1.73,7.92,6.73,9.19,14.46,1.83,11.24-.92,23.81-7.75,35.39-5.32,9.02-17.52,24.23-29.08,24.23Zm-4.14-.97c5.49,1.98,12.11-.24,19.15-6.41,5.86-5.14,11-12.14,13.85-16.98,6.8-11.53,9.55-24.04,7.72-35.23-1.25-7.63-4.37-12.57-9.03-14.26-5.32-1.94-12.47.48-19.62,6.62-9.32,8.01-16.18,18.93-19.32,30.74-2.57,9.66-4.36,29.52,7.24,35.52Z"/>
        <path d="m160.91,140.14c-.6,0-1.19-.03-1.78-.1h-.02c-7.34-1.82-10-9.83-10.94-16.22-1.14-7.77-.29-16.22.78-21.09,2.76-12.54,9.76-24.59,19.71-33.94,3.98-3.73,14.12-12.18,22.44-9.92,4.33,1.17,7.5,5.05,9.41,11.52,3.56,12.06,1.57,26.68-5.48,40.11-1.38,2.63-6.52,11.83-14.63,19.69-6.75,6.54-13.45,9.95-19.49,9.95Zm-1.75-.35c6.4.74,13.69-2.65,21.06-9.78,8.09-7.84,13.21-17,14.59-19.63,7.02-13.37,9.01-27.92,5.46-39.92-1.89-6.38-4.99-10.2-9.23-11.35-8.22-2.23-18.26,6.16-22.21,9.86-9.91,9.31-16.88,21.32-19.64,33.81-1.07,4.85-1.92,13.26-.78,21,.93,6.32,3.55,14.22,10.75,16.01Z"/>
        <path d="m159.87,144.83h0c-2.97-.12-5.5-1.43-7.51-3.9-6.48-7.93-6.14-26-5-33.02,2.38-14.6,10.2-28.64,22.02-39.53,4.46-4.11,12.75-11.75,20.06-11.95.1,0,.21,0,.31,0,8.27,0,11.37,9.11,12.99,16.01,2.86,12.17.95,25.95-5.38,38.81-3.72,7.56-9.24,15.29-15.15,21.22-7.44,7.46-15.16,11.74-22.33,12.36h0Zm29.87-88.15c-.1,0-.2,0-.3,0-7.21.2-15.46,7.8-19.89,11.88-11.78,10.85-19.57,24.83-21.94,39.38-1.14,6.99-1.48,24.96,4.94,32.82,1.97,2.41,4.43,3.69,7.32,3.81,7.11-.62,14.77-4.87,22.17-12.29,5.89-5.91,11.39-13.62,15.1-21.15,6.3-12.8,8.2-26.53,5.36-38.64-1.6-6.81-4.65-15.81-12.75-15.81Z"/>
        <path d="m159.5,148.97c-.84,0-1.61-.07-2.32-.18h-.03c-5.29-2.41-8.91-8.48-10.45-17.57-1.33-7.82-.86-16.27.02-21.57,2.39-14.35,10.01-28.35,21.47-39.44,5.87-5.68,12.83-11.74,19.86-13.6,9.26-2.44,12.86,5.08,15.37,13.57,4.11,13.9,2.06,30.25-5.61,44.87-2.93,5.59-9.07,14.79-16.72,22.3-9.44,9.28-16.69,11.62-21.6,11.62Zm-2.26-.43c4.74.77,12.71-.59,23.68-11.37,7.63-7.49,13.75-16.66,16.67-22.24,7.64-14.56,9.67-30.85,5.59-44.68-2.48-8.37-6.02-15.79-15.06-13.4-6.98,1.84-13.9,7.88-19.75,13.54-11.42,11.05-19.02,25.01-21.4,39.3-.88,5.28-1.34,13.7-.02,21.49,1.07,6.27,3.72,14.37,10.29,17.37Z"/>
        <path d="m157.95,152.88h-.02c-.56-.15-1.12-.3-1.67-.43l-.04-.02c-12.41-8.9-12.04-32.66-8.88-45.55,3.42-13.96,11.72-27.43,23.39-37.93,12.28-11.04,18.87-13.08,23.24-13.63h.02s.02,0,.02,0c.56.08,1.13.19,1.69.33l.04.02c6.97,4.35,9.54,13.58,10.46,20.55,1.19,8.95.27,18.16-.98,23.79-3.08,13.87-11.05,27.39-22.44,38.06-5.45,5.1-13.77,12.17-23.14,14.66h-.02c-.54.07-1.08.12-1.63.15h-.02Zm-1.61-.67c.55.13,1.09.27,1.64.42.53-.03,1.06-.08,1.58-.14,9.31-2.47,17.6-9.51,23.02-14.59,11.36-10.64,19.3-24.11,22.37-37.93,1.25-5.61,2.16-14.79.97-23.71-.92-6.92-3.46-16.06-10.33-20.37-.54-.13-1.08-.24-1.62-.32-8.25,1.03-16.67,7.79-23.09,13.56-11.63,10.47-19.91,23.89-23.32,37.8-3.14,12.82-3.53,36.44,8.77,45.28Z"/>
        <path d="m157.01,156.34h-.03c-.57-.26-1.12-.56-1.65-.89l-.03-.02c-5.23-5.87-8.57-12.92-9.92-20.93-1.22-7.24-.8-15.11,1.24-23.38,3.7-15,12.52-30.06,23.58-40.28,8.73-8.06,16.54-13.08,23.88-15.33.56-.03,1.09-.08,1.62-.14h.03s.03,0,.03,0c.57.19,1.13.43,1.66.72l.03.02c7.68,8.06,11.37,18.44,10.97,30.84-.3,9.52-3.09,19.86-8.05,29.91-4.56,9.23-10.77,17.73-17.48,23.94-8.92,8.25-16.84,13.31-24.22,15.47h-.02s-.02,0-.02,0c-.53-.02-1.06,0-1.58.06h-.03Zm-1.54-1.1c.5.32,1.03.6,1.57.84.52-.06,1.04-.08,1.57-.06,7.33-2.15,15.22-7.19,24.1-15.41,6.69-6.18,12.87-14.66,17.42-23.86,4.95-10.02,7.73-20.32,8.03-29.81.39-12.32-3.27-22.63-10.89-30.64-.5-.27-1.03-.5-1.58-.69-.52.06-1.05.1-1.57.13-7.27,2.23-15.05,7.23-23.75,15.27-11.03,10.19-19.82,25.2-23.51,40.16-2.03,8.24-2.45,16.07-1.24,23.28,1.34,7.96,4.65,14.96,9.85,20.8Z"/>
        <path d="m157.74,159.56h-.05c-.51-.11-1.01-.21-1.51-.32l-.04-.02-.26-.18-.22-.28c-.37-.48-.75-.96-1.12-1.44l-.02-.03-.09-.23c-8.7-12.94-11.27-30.75-6.88-47.61,3.66-14.04,11.87-27.14,23.74-37.89,8.55-7.74,16.78-13.02,24.45-15.7l.26-.16h.04c.48.06.97.13,1.45.22l.05.02.29.22c4.82,5.8,8.15,13.49,9.64,22.24,1.34,7.86,1.16,16.51-.52,24.38-3.25,15.3-12.23,30.08-25.27,41.61-8.21,7.26-16.25,12.35-23.9,15.13l-.06.02Zm-1.49-.56c.48.11.97.21,1.45.31,7.62-2.76,15.64-7.84,23.84-15.09,13-11.5,21.95-26.23,25.19-41.48,1.67-7.83,1.85-16.46.51-24.28-1.49-8.71-4.79-16.35-9.57-22.1l-.25-.18c-.45-.08-.91-.15-1.37-.2l-.21.12c-7.67,2.68-15.87,7.94-24.39,15.66-11.84,10.71-20.02,23.77-23.67,37.77-4.38,16.79-1.81,34.52,6.86,47.43l.1.24c.37.48.74.95,1.11,1.43l.2.26.19.12Z"/>
      </g>
      <g>
        <path d="m122.77,107.27l-.35-.49c-5.79-8.44-9.43-18.15-10.53-28.08-1.7-15.34,2.35-30.73,11.71-44.66,3.08-4.76,6.71-9.25,10.83-13.32,8.12-8.05,17.89-14.66,29.02-19.63l.14-.06.06.25-.09.07c-15.39,6.87-29,17.8-38.32,30.78-.49.68-.97,1.37-1.43,2.06-5.53,8.55-9.29,18.01-10.9,27.67-2.68,16.11.68,31.59,9.71,44.76l.02.04.13.62Zm-6.03-59.99c-3.38,8.17-5.06,16.65-4.98,25.18,0-3.51.3-7.07.9-10.65.82-4.92,2.19-9.79,4.08-14.52Z"/>
        <path d="m122.43,106.88l-.05-.25.09-.07c2.02-.9,4-1.86,5.94-2.87,11.93-6.34,23.31-15.56,31.75-26.92,6.68-9.31,11.19-19.86,13-30.66,2.49-14.79-.13-29.04-7.57-41.46-.13-.22-.26-.43-.4-.65h0c-.57-.91-1.17-1.82-1.78-2.71l-.02-.04-.16-.66.38.53c.78,1.13,1.52,2.28,2.22,3.44,4.95,8.26,7.92,17.56,8.6,26.96,1.24,17.12-4.55,32.6-14.04,45.37-2.64,3.68-5.62,7.17-8.9,10.41-6.63,6.54-14.34,12.11-22.97,16.62-1.97,1.04-3.95,2.01-5.94,2.9l-.14.06Zm51.87-72.72c.08,3.94-.22,7.95-.9,12-1.08,6.42-3.11,12.76-5.98,18.8,4.62-9.34,7.23-19.7,6.88-30.8Z"/>
        <path d="m122.47,106.84l-.06-.09c-5.79-8.44-9.43-18.15-10.53-28.09-1.79-16.1,2.76-32.26,13.15-46.72,9.34-13.01,22.99-23.97,38.42-30.86l.09-.04.06.09c.61.89,1.21,1.81,1.79,2.72h0c5.2,8.43,8.32,17.99,9.02,27.65,2.53,34.93-24.21,62.99-51.85,75.3l-.09.04ZM163.46,1.35c-15.35,6.87-28.93,17.78-38.23,30.74-10.35,14.41-14.88,30.51-13.1,46.55,1.09,9.86,4.7,19.5,10.43,27.89,27.52-12.29,54.12-40.23,51.6-75.01-.7-9.62-3.8-19.14-8.98-27.53-.55-.88-1.13-1.77-1.72-2.63Z"/>
        <path d="m122.47,106.86l-.06-.09c-9.07-13.23-12.44-28.77-9.75-44.95,2.51-15.07,10.24-29.66,21.77-41.09,8.13-8.06,17.89-14.66,29.02-19.63l.09-.04.06.09c.5.73,1.01,1.49,1.5,2.27h0c8.4,13.26,11.16,28.68,8.01,44.59-2.93,14.74-10.86,28.96-22.35,40.03-7.98,7.69-17.46,14.01-28.19,18.78l-.09.04ZM163.46,1.38c-11.06,4.95-20.77,11.52-28.85,19.53-11.49,11.39-19.2,25.94-21.7,40.96-2.67,16.07.67,31.52,9.65,44.68,10.66-4.76,20.09-11.05,28.02-18.69,11.45-11.03,19.36-25.2,22.28-39.9,3.15-15.85.39-31.21-7.97-44.41h0c-.47-.74-.95-1.47-1.43-2.17Z"/>
        <path d="m132.4,56.67c-.51,0-1.03-.04-1.54-.11h-.02c-3.49-1.13-5.67-3.49-6.48-7.03-2.11-9.16,5.69-23.74,10.47-28.31,6.87-6.57,11.03-5.88,13.32-4.14,5.13,3.9,5.68,17.15,1.06,25.79-1.19,2.22-3.73,6.44-7.37,9.66-3.11,2.75-6.28,4.14-9.43,4.14Zm-1.5-.36c3.58.51,7.21-.83,10.76-3.97,3.61-3.19,6.13-7.38,7.31-9.59,4.57-8.54,4.06-21.64-.99-25.47-3.17-2.4-7.66-.98-13,4.12-4.74,4.54-12.48,19-10.4,28.07.79,3.44,2.91,5.74,6.3,6.84Z"/>
        <path d="m128.81,66.47c-2.91,0-5.09-1.11-6.52-3.32-3.61-5.6-1.39-16.64.26-22.71,2.23-8.22,5.96-16.83,8.69-20.01,4.36-5.1,11.06-10.47,16.95-10.47.13,0,.27,0,.4,0,2.91.12,5.39,1.58,7.37,4.32,5.24,7.28,3.14,19.4-.57,28.32-3.8,9.13-11.58,20.01-22.01,23.15h0c-1.67.48-3.19.73-4.54.73Zm19.37-56.27c-5.8,0-12.43,5.32-16.76,10.38-4.77,5.58-15.13,32.82-8.92,42.43,2.02,3.14,5.65,3.98,10.79,2.49,10.35-3.11,18.08-13.92,21.86-23,3.68-8.85,5.78-20.88.6-28.07-1.93-2.68-4.34-4.1-7.17-4.22-.13,0-.26,0-.39,0Z"/>
        <path d="m129.32,73.4c-1.48,0-2.91-.26-4.28-.79h-.01c-5.43-2.87-8.54-7.61-9.23-14.09-.75-7.08,1.49-16.28,6.32-25.91,4.01-8,9.58-15.65,14.18-19.51,8.11-6.79,14.73-8.43,19.15-4.78,3.83,3.17,5.92,10.33,5.72,19.66-.17,8.54-2.22,17.33-5.35,22.94-2.55,4.58-7.22,11.18-12.65,15.98-4.86,4.3-9.57,6.49-13.85,6.49Zm-4.18-1.02c5.23,2.02,11.41.06,17.87-5.66,5.41-4.79,10.05-11.36,12.6-15.92,3.11-5.58,5.15-14.32,5.32-22.82.19-9.25-1.87-16.35-5.63-19.46-4.32-3.58-10.83-1.92-18.83,4.77-4.58,3.83-10.12,11.46-14.12,19.43-4.81,9.58-7.05,18.74-6.3,25.77.68,6.39,3.74,11.07,9.09,13.89Z"/>
        <path d="m128.2,79.41c-1.42,0-2.83-.23-4.22-.73h-.02c-11.72-6.05-9.92-26-7.32-35.7,3.16-11.82,10.04-22.75,19.39-30.77,7.22-6.2,14.46-8.62,19.85-6.65,4.73,1.73,7.89,6.71,9.14,14.4,1.82,11.21-.94,23.73-7.77,35.28-5.32,8.99-17.51,24.16-29.05,24.16Zm-4.13-.96c5.55,2,11.99-.15,19.12-6.39,5.85-5.12,10.99-12.1,13.84-16.93,6.8-11.5,9.55-23.97,7.74-35.11-1.24-7.6-4.34-12.52-8.98-14.21-5.31-1.94-12.45.47-19.6,6.6-9.31,7.99-16.16,18.87-19.31,30.65-2.57,9.63-4.38,29.42,7.19,35.4Z"/>
        <path d="m126.55,84.58h0c-3.2-.05-5.88-1.38-7.95-3.94-3.47-4.28-4.62-11.2-4.99-16.25-.46-6.36.13-12.46.77-15.75,2.45-12.55,9.21-24.74,19.04-34.33,4.1-4,14.55-13.08,23.11-11.02,4.14,1,7.25,4.48,9.23,10.35,3.97,11.75,2.39,26.27-4.33,39.86-3.54,7.15-8.67,14.35-14.09,19.75-6.83,6.81-14.02,10.73-20.78,11.32h0ZM153.92,3.25c-7.87,0-16.66,7.67-20.33,11.25-9.79,9.55-16.53,21.7-18.96,34.19-1.31,6.73-2.09,24.08,4.16,31.79,2.03,2.5,4.64,3.8,7.76,3.85,6.7-.59,13.83-4.48,20.62-11.25,5.4-5.38,10.51-12.56,14.04-19.68,6.69-13.53,8.27-27.98,4.32-39.67-1.95-5.79-5-9.22-9.05-10.19-.83-.2-1.69-.29-2.55-.29Z"/>
        <path d="m125.55,89.22h0c-2.93-.11-5.44-1.41-7.44-3.85-3.53-4.3-4.87-11.36-5.37-16.54-.62-6.47-.23-12.66.29-16,2.26-14.41,9.86-28.33,21.4-39.2,5.4-5.09,15.68-13.27,23.86-10.89,4.64,1.35,7.97,5.88,9.9,13.46,3.14,12.34,1.3,26.38-5.19,39.53-3.72,7.54-9.24,15.25-15.14,21.16-7.43,7.44-15.14,11.7-22.29,12.33h0ZM155.19,2.57c-7.45,0-15.89,6.81-20.6,11.25-11.49,10.84-19.07,24.71-21.32,39.06-1.08,6.9-1.32,24.62,5.03,32.34,1.96,2.38,4.39,3.64,7.25,3.75,7.09-.62,14.75-4.86,22.13-12.25,5.88-5.89,11.38-13.58,15.09-21.09,6.46-13.1,8.3-27.08,5.17-39.36-1.91-7.49-5.18-11.96-9.73-13.28-.98-.28-1.99-.42-3.02-.42Z"/>
        <path d="m125.18,93.35c-.84,0-1.61-.07-2.31-.18h-.03c-5.28-2.4-8.88-8.45-10.42-17.51-1.32-7.8-.85-16.22.04-21.5,2.39-14.3,10.02-28.26,21.47-39.32,5.87-5.67,12.81-11.71,19.83-13.56,9.25-2.44,12.83,5.06,15.33,13.52,4.08,13.85,2.03,30.15-5.64,44.73-2.93,5.58-9.07,14.75-16.71,22.24-9.43,9.25-16.67,11.59-21.57,11.59Zm-2.25-.43c4.74.76,12.68-.59,23.64-11.34,7.62-7.47,13.74-16.61,16.66-22.17,7.64-14.52,9.68-30.75,5.62-44.54-2.46-8.34-5.99-15.73-15.02-13.35-6.97,1.84-13.88,7.85-19.72,13.5-11.41,11.02-19.01,24.93-21.39,39.18-.88,5.26-1.35,13.65-.04,21.42,1.06,6.25,3.7,14.33,10.26,17.31Z"/>
        <path d="m123.63,97.26h-.02c-.55-.15-1.11-.3-1.67-.43l-.04-.02c-12.38-8.87-11.98-32.55-8.82-45.4,3.42-13.91,11.72-27.34,23.38-37.81C148.72,2.58,155.3.54,159.67,0h.02s.02,0,.02,0c.56.08,1.13.19,1.68.33l.04.02c6.95,4.34,9.5,13.53,10.42,20.49,1.18,8.92.26,18.1-1,23.71-3.08,13.82-11.05,27.3-22.44,37.94-5.44,5.09-13.75,12.14-23.11,14.62h-.02c-.54.07-1.09.12-1.63.15h-.02Zm-1.61-.67c.55.13,1.1.27,1.63.42.53-.03,1.06-.08,1.58-.14,9.3-2.47,17.58-9.49,22.99-14.55,11.35-10.61,19.29-24.04,22.36-37.82,1.25-5.6,2.16-14.74.99-23.63-.91-6.89-3.43-16.01-10.29-20.3-.54-.13-1.08-.24-1.62-.32-8.23,1.03-16.64,7.77-23.05,13.53-11.62,10.44-19.9,23.82-23.31,37.68-3.14,12.78-3.55,36.32,8.71,45.12Z"/>
        <path d="m122.71,100.72h-.03c-.57-.26-1.12-.56-1.65-.89l-.03-.02c-5.22-5.86-8.55-12.88-9.89-20.87-1.21-7.22-.78-15.06,1.27-23.31,3.72-14.95,12.53-29.96,23.57-40.14,8.72-8.04,16.52-13.04,23.84-15.29.56-.03,1.09-.08,1.61-.14h.03s.03,0,.03,0c.57.19,1.13.43,1.66.72l.03.02c7.64,8.02,11.32,18.35,10.92,30.69-.3,9.5-3.09,19.82-8.06,29.85-4.56,9.21-10.77,17.69-17.47,23.87-8.91,8.23-16.82,13.27-24.19,15.43h-.02s-.02,0-.02,0c-.53-.02-1.06,0-1.58.06h-.03Zm-1.53-1.09c.5.32,1.03.6,1.57.84.51-.06,1.04-.08,1.56-.06,7.32-2.15,15.2-7.17,24.07-15.37,6.68-6.16,12.86-14.62,17.41-23.8,4.96-10,7.74-20.29,8.04-29.75.39-12.26-3.25-22.52-10.84-30.49-.5-.27-1.03-.5-1.57-.68-.52.06-1.05.1-1.57.13-7.26,2.23-15.02,7.21-23.72,15.23-11.01,10.15-19.8,25.11-23.5,40.02-2.04,8.21-2.47,16.02-1.26,23.2,1.33,7.94,4.63,14.92,9.81,20.74Z"/>
        <path d="m123.44,103.94h-.05c-.5-.1-1.01-.21-1.51-.32l-.04-.02-.25-.17c-.42-.54-.83-1.08-1.25-1.61l-.1-.13-.09-.23c-8.67-12.89-11.22-30.64-6.82-47.45,3.66-13.99,11.87-27.06,23.73-37.77,8.54-7.71,16.75-12.98,24.42-15.65l.26-.15h.04c.49.06.98.13,1.45.22l.05.02.29.22c4.78,5.76,8.09,13.37,9.58,22.05,1.34,7.79,1.18,16.37-.46,24.17-3.25,15.43-12.3,30.31-25.5,41.9-8.16,7.16-16.13,12.18-23.67,14.92l-.06.02Zm-1.49-.56c.48.11.96.21,1.45.31,7.52-2.73,15.47-7.73,23.61-14.88,13.16-11.55,22.19-26.38,25.42-41.76,1.63-7.77,1.8-16.32.46-24.08-1.49-8.63-4.77-16.21-9.5-21.91l-.25-.18c-.45-.08-.91-.15-1.37-.2l-.21.12c-7.66,2.67-15.84,7.92-24.36,15.61-11.82,10.68-20,23.7-23.66,37.65-4.38,16.74-1.84,34.41,6.8,47.27l.1.23.07.09c.41.53.82,1.06,1.24,1.6l.19.12Z"/>
      </g>
      <g>
        <path d="m106.59,175c-.45,0-.9,0-1.35,0-17.14-.23-33.08-4.7-46.39-12.97-10.55-6.47-18.93-15.12-24.62-25.5l-.02-.06-.24-.94.47.85c4.83,8.81,11.96,16.71,20.61,22.82,1.28.9,2.58,1.77,3.91,2.6,4.18,2.56,8.69,4.78,13.52,6.63,11.87,4.55,25.21,6.68,38.51,6.22,15.83-.68,31.83-5,45.62-12.39l.15-.08.06.25-.08.07c-10.63,5.69-22.09,9.5-34.04,11.31-3.87.59-7.77.94-11.69,1.08-1.48.06-2.95.1-4.42.1Z"/>
        <path d="m156.97,163.15l-.4-.69c-.26-.46-.52-.91-.78-1.37-.61-1.04-1.25-2.06-1.91-3.06-3.45-5.19-7.71-9.99-12.61-14.19-6.74-5.74-14.72-10.38-23.72-13.72-13.66-5.07-29.23-6.94-44.39-5.4-9.78,1.06-19.51,3.48-28.61,7.12-3.46,1.4-6.84,2.98-10.15,4.74l-.14.08-.06-.25.08-.07c3.27-1.74,6.66-3.31,10.14-4.71,7.52-3.04,15.37-5.21,23.46-6.47,1.75-.27,3.51-.5,5.27-.68,4.15-.45,8.31-.65,12.43-.6,18.78.23,36.14,5.54,50.18,15.38,1.96,1.37,3.84,2.83,5.63,4.37,4.75,4.04,8.88,8.64,12.32,13.72,1.1,1.62,2.13,3.28,3.07,4.98v.03s.19.8.19.8Z"/>
        <path d="m107.42,174.94c-12.14,0-24.2-2.14-35.03-6.3-17.02-6.53-30.22-17.65-38.16-32.14l-.06-.11.11-.06c10.5-5.6,21.8-9.37,33.59-11.21,16.81-2.62,34.49-.94,49.76,4.73,16.84,6.25,30.1,17,38.37,31.08h0s.84,1.49.84,1.49l-.11.06c-10.63,5.69-22.09,9.5-34.04,11.31-5.04.76-10.16,1.14-15.27,1.14Zm-72.92-38.45c7.92,14.39,21.05,25.42,37.97,31.92,15.35,5.89,33.17,7.71,50.17,5.14,11.88-1.8,23.27-5.58,33.85-11.22l-.71-1.26c-8.24-14.03-21.46-24.74-38.24-30.97-15.24-5.66-32.87-7.34-49.64-4.72-11.72,1.83-22.96,5.57-33.4,11.12Z"/>
        <path d="m106.6,175.02c-.45,0-.9,0-1.35,0-18.87-.25-36.27-5.64-50.33-15.58-8.68-6.14-15.83-14.06-20.69-22.91l-.06-.11.11-.06c15.31-8.16,32.6-12.47,50.02-12.47.13,0,.26,0,.39,0,18.41.07,35.57,5.05,49.61,14.39,8.9,5.93,16.32,13.61,21.43,22.23h0c.36.6.71,1.22,1.05,1.83l.06.11-.11.06c-15.11,8.09-32.86,12.51-50.14,12.51Zm-72.08-38.51c4.83,8.77,11.94,16.62,20.55,22.71,14.01,9.91,31.37,15.28,50.19,15.53.45,0,.9,0,1.35,0,17.19,0,34.86-4.39,49.91-12.43-.32-.57-.65-1.15-.99-1.71h0c-5.1-8.58-12.48-16.24-21.35-22.15-14-9.32-31.11-14.28-49.48-14.35-.13,0-.26,0-.39,0-17.34,0-34.54,4.28-49.79,12.38Z"/>
        <path d="m98.6,144.15c-10.99,0-24.48-5.01-29.47-11.2-1.46-1.71-1.99-3.76-1.55-5.91v-.03c.28-.49.54-.99.79-1.48,5.73-6.55,28.03-6.8,39.78-.48,5.68,3.06,8,7.19,6.69,11.94v.03c-2.42,4.12-7.17,6.55-13.76,7.05-.81.06-1.63.09-2.47.09Zm-30.78-17.04c-.42,2.07.1,4.04,1.5,5.68h0c5.33,6.61,20.46,11.86,31.73,11.02,6.49-.49,11.18-2.87,13.54-6.91,1.6-5.83-2.69-9.55-6.57-11.64-11.67-6.29-33.79-6.07-39.45.39-.23.47-.49.96-.75,1.45Z"/>
        <path d="m99.26,149.39c-8.25,0-16.68-1.7-24.13-4.96-6.13-2.59-15.43-8.7-15.91-14.9-.23-2.91,1.48-5.52,5.09-7.76,4.4-2.73,12.92-5.52,28.61-3.29,6.91.98,19.63,3.8,27.2,11.63,3.36,3.48,4.58,6.74,3.62,9.7-1.58,4.84-8.66,7.7-14.76,8.76-3.16.55-6.42.82-9.71.82Zm-17.03-31.46c-6.31,0-12.85.98-17.8,4.06-3.52,2.19-5.19,4.72-4.97,7.52.48,6.1,9.69,12.13,15.76,14.69h0c10.38,4.54,22.67,6.04,33.7,4.12,6.03-1.05,13.02-3.86,14.56-8.59.93-2.86-.26-6.04-3.56-9.45-7.52-7.77-20.17-10.57-27.05-11.55-3.21-.46-6.89-.8-10.64-.8Z"/>
        <path d="m100.96,153.92c-8.64,0-17.47-1.59-25.51-4.69-5.56-2.07-20.38-9.3-22.12-17.71-.6-2.89.44-5.63,3.06-8.14,7.63-7.3,24.03-7.05,33.13-6.26,8.88.78,21.69,3.34,32.27,11.12,6.15,4.52,9.04,9.43,8.13,13.81-.96,4.65-6.14,8.38-14.21,10.25-4.73,1.09-9.71,1.63-14.75,1.63Zm-20.18-36.96c-14.85,0-21.46,3.95-24.22,6.59-2.56,2.45-3.57,5.11-2.99,7.91.71,3.44,3.88,7.19,9.17,10.84,4.47,3.08,9.54,5.48,12.79,6.69h0c12.69,4.9,27.31,6.01,40.11,3.05,7.97-1.84,13.09-5.51,14.02-10.05.88-4.28-1.97-9.1-8.03-13.56-10.53-7.74-23.29-10.29-32.14-11.07-3.18-.28-6.08-.4-8.72-.4Z"/>
        <path d="m102.22,157.65c-9.99,0-20.04-1.85-28.97-5.44-6.03-2.35-22.14-10.43-24.3-19.46-.69-2.87.1-5.6,2.34-8.11,3.45-3.86,9.5-6.38,17.98-7.51,7.35-.98,14.96-.69,20.06-.28,14.48,1.17,27.69,5.85,37.19,13.18,5.31,4.1,12.07,10.31,9.45,16.85-2.43,6.05-12.93,8.16-18.58,9.29-4.93.99-10.04,1.47-15.16,1.47Zm-21.9-40.91c-9.9,0-22.88,1.41-28.85,8.08-2.18,2.44-2.95,5.09-2.29,7.88,2.13,8.92,18.16,16.95,24.15,19.29h0c13.47,5.41,29.5,6.85,43.99,3.95,5.6-1.12,16.02-3.21,18.4-9.13,2.56-6.38-4.12-12.51-9.37-16.56-9.46-7.31-22.62-11.97-37.06-13.13-2.29-.18-5.44-.37-8.99-.37Z"/>
        <path d="m103.26,160.94c-11.62,0-23.23-2.31-33.36-6.77h0c-6.26-2.72-22.88-11.81-24.5-21.12-.51-2.94.53-5.66,3.1-8.07,9.9-9.28,32.06-8.6,41.12-7.87,16.86,1.35,31.94,7.13,42.44,16.28,5.47,4.76,11.27,11.03,7.56,17.25-3.3,5.53-14.17,7.61-20.01,8.72l-.41.08c-5.22,1-10.59,1.49-15.95,1.49Zm-23.18-43.96c-10.41,0-24.19,1.43-31.4,8.19-2.51,2.35-3.52,4.99-3.03,7.84,1.6,9.2,18.12,18.23,24.35,20.93h0c14.75,6.5,32.67,8.41,49.16,5.26l.41-.08c5.8-1.11,16.6-3.17,19.84-8.6,3.61-6.06-2.11-12.23-7.51-16.93-10.47-9.12-25.49-14.88-42.3-16.22-2.41-.19-5.75-.38-9.54-.38Z"/>
        <path d="m104.04,163.84c-10.94,0-21.75-1.93-31.51-5.7h0c-7.2-2.74-27.66-13.43-29.91-23.67-.64-2.9.21-5.58,2.53-7.95,11.34-11.59,40.9-9.24,46.71-8.65,16.27,1.65,31.11,7.4,41.79,16.2,4.21,3.47,14.08,11.59,9.79,18.95-3.38,5.79-15.42,7.98-21.89,9.16l-.76.14c-5.53,1.02-11.16,1.52-16.75,1.52Zm-24.51-46.31c-11.26,0-26.73,1.54-34.2,9.17-2.25,2.3-3.08,4.9-2.46,7.72,2.23,10.13,22.59,20.76,29.75,23.49h0c14.71,5.68,31.8,7.16,48.13,4.17l.76-.14c6.43-1.17,18.4-3.35,21.72-9.04,3.71-6.36-3.25-13.29-9.73-18.63-10.65-8.77-25.44-14.5-41.66-16.14-1.95-.2-6.59-.6-12.31-.6Z"/>
        <path d="m108.48,166.64c-7.14,0-13.74-.59-18.21-1.29-5.58-.87-10.95-2.21-15.97-3.98h0c-12.3-4.25-35.33-15.97-34.49-29.87v-.03c.18-.5.4-.98.66-1.44,10.04-11.5,34.91-12.01,45.13-11.69,17.44.53,33.96,5.74,46.53,14.65,6.12,4.34,14.42,11.03,15.81,18.98v.02s0,.02,0,.02c-.05.56-.13,1.13-.24,1.68v.04c-3.73,6.46-12.96,10.7-26.68,12.26-4.17.48-8.45.67-12.55.67Zm-68.42-35.1c-.36,6.07,4.04,12.52,12.73,18.65,7.11,5.03,15.82,8.95,21.59,10.95h0c5,1.76,10.36,3.1,15.93,3.96,7.03,1.1,19.28,1.92,30.69.62,9.51-1.08,21.81-4.07,26.47-12.12.11-.53.18-1.08.23-1.62-1.38-7.85-9.62-14.49-15.71-18.8-12.53-8.88-29-14.07-46.39-14.6-10.18-.31-34.97.19-44.92,11.59-.24.42-.45.89-.62,1.37Z"/>
        <path d="m108.52,169.1c-6.3,0-12.73-.5-18.71-1.47-5.35-.87-10.73-2.25-16.01-4.09h0c-15.28-5.53-33.9-16.77-36.05-30.25v-.03s0-.03,0-.03c.14-.51.29-1.02.45-1.52l.03-.05c10.42-11.93,36.6-12.53,47.38-12.22,18.14.5,34.7,5.68,47.88,14.98,9.2,6.49,14.79,12.76,17.09,19.16.07.63.11,1.25.12,1.86v.05c-.21.47-.42.95-.63,1.42l-.03.04c-5.98,5.93-15.9,9.88-28.67,11.42-4.07.49-8.42.74-12.83.74Zm-34.64-5.8c5.26,1.84,10.64,3.21,15.97,4.08,10.14,1.66,21.61,1.93,31.47.74,12.71-1.54,22.57-5.46,28.51-11.34.2-.45.4-.91.6-1.37,0-.59-.04-1.19-.11-1.78-2.27-6.32-7.83-12.55-16.99-19.01-13.14-9.26-29.65-14.43-47.74-14.93-10.73-.3-36.81.29-47.17,12.12-.15.49-.29.98-.43,1.47,2.16,13.36,20.68,24.52,35.89,30.02Z"/>
        <path d="m107.66,171.21c-5.32,0-10.68-.37-15.82-1.12-6.12-.89-12.06-2.34-17.65-4.32h0c-7.01-2.5-30.45-12.06-37.86-30.38v-.04c-.06-.58-.07-1.17-.02-1.76v-.04s.03-.03.03-.03c.31-.38.6-.78.88-1.19l.03-.03c6-4.5,14.08-7.76,24.02-9.69,10.15-1.97,19.78-2.08,26.06-1.83,17.72.72,34,5.94,47.08,15.1,10.22,7.16,16.34,14.04,18.71,21.04v.04c0,.55-.1,1.1-.29,1.62l-.03.05c-.36.33-.69.69-1,1.07l-.03.02c-7.48,5.16-17.49,8.76-28.94,10.42-4.86.7-10,1.06-15.17,1.06Zm-33.38-5.68c5.57,1.97,11.49,3.42,17.6,4.31,17.88,2.6,42.95,1.25,59.73-10.31.3-.38.63-.73.99-1.06.17-.48.26-.98.27-1.49-2.35-6.94-8.44-13.78-18.6-20.89-13.04-9.13-29.27-14.33-46.95-15.05-29.61-1.21-44.75,7.6-49.9,11.46-.26.4-.55.79-.85,1.16-.04.55-.04,1.11.01,1.66,1.88,4.63,10.12,20.39,37.7,30.22h0Z"/>
        <path d="m107.27,173.17c-4.87,0-9.77-.33-14.62-1.01-5.98-.84-11.86-2.23-17.46-4.15h0c-8.51-2.95-16.54-7.16-23.21-12.17-7.78-5.84-13.45-12.51-16.87-19.82v-.03s-.05-.29-.05-.29v-.02c.1-.42.2-.84.32-1.25v-.04s.04-.02.04-.02c.48-.39.99-.72,1.54-.98,13.14-7.57,30.41-11.53,48.65-11.17,19.4.39,37.72,6.33,51.57,16.71,9.83,7.37,15.72,14.24,18,21l.02.07-.05.05c-.33.35-.6.76-.79,1.2l-.02.04-.04.02c-12.95,7.69-29.81,11.85-47.03,11.85Zm-31.99-5.39c5.58,1.91,11.44,3.3,17.41,4.13,21.92,3.07,44.89-.96,61.45-10.78.19-.44.45-.83.77-1.18-2.25-6.6-8.27-13.6-17.89-20.81-13.82-10.35-32.08-16.27-51.43-16.66-18.19-.37-35.41,3.59-48.52,11.14-.52.25-1.01.56-1.46.93-.1.38-.2.78-.29,1.17l.03.23c3.4,7.27,9.05,13.9,16.79,19.71,6.66,5,14.66,9.2,23.15,12.14h0Z"/>
      </g>
      <g>
        <path d="m72.34,119.35c-.43,0-.86,0-1.29,0-16.98-.22-32.77-4.6-45.99-12.72-10.67-6.47-19.13-15.15-24.85-25.59l-.02-.06-.18-.84.41.75c4.82,8.78,11.92,16.65,20.55,22.74,1.37.97,2.78,1.89,4.21,2.78,4.08,2.48,8.49,4.63,13.2,6.43,11.9,4.55,25.29,6.66,38.62,6.17,15.72-.71,31.61-5.02,45.33-12.36l.14-.08.06.25-.08.07c-10.62,5.68-22.05,9.48-33.99,11.29-3.79.57-7.62.93-11.45,1.07-1.56.07-3.12.11-4.67.11Z"/>
        <path d="m122.71,107.61l-.45-.77c-.26-.46-.52-.91-.78-1.37-1.1-1.88-2.29-3.69-3.57-5.45-3.13-4.28-6.83-8.26-10.99-11.81-6.7-5.7-14.64-10.29-23.6-13.6-13.67-5.06-29.26-6.91-44.43-5.34-9.76,1.07-19.47,3.5-28.55,7.15-3.4,1.38-6.73,2.94-9.98,4.67l-.15.08-.05-.25.08-.07c3.22-1.71,6.55-3.26,9.97-4.63,7.55-3.07,15.44-5.25,23.57-6.52,1.7-.26,3.4-.49,5.11-.66,4.19-.46,8.39-.67,12.54-.62,18.75.21,36.07,5.51,50.09,15.31,1.92,1.34,3.77,2.77,5.53,4.28,4.06,3.44,7.66,7.28,10.77,11.48,1.72,2.32,3.28,4.73,4.65,7.22v.03s.23.89.23.89Z"/>
        <path d="m73.17,119.29c-12.09,0-24.11-2.12-34.9-6.25C21.28,106.54,8.11,95.46.19,81l-.06-.11.11-.06c10.48-5.58,21.76-9.34,33.53-11.18,16.77-2.62,34.4-.95,49.64,4.69,16.81,6.22,30.05,16.93,38.29,30.97h0c.26.46.52.91.77,1.37l.06.11-.11.06c-10.62,5.68-22.05,9.48-33.99,11.29-5.05.77-10.17,1.14-15.28,1.14ZM.47,81c7.9,14.35,21,25.35,37.89,31.81,15.31,5.86,33.08,7.67,50.05,5.09,11.86-1.8,23.23-5.57,33.79-11.2-.24-.42-.47-.84-.71-1.26-8.21-13.99-21.41-24.66-38.16-30.86-15.2-5.63-32.79-7.29-49.51-4.68-11.7,1.83-22.92,5.56-33.34,11.09Z"/>
        <path d="m72.34,119.38c-.43,0-.86,0-1.29,0-18.84-.24-36.21-5.61-50.23-15.51-8.66-6.12-15.79-14.01-20.62-22.83l-.06-.11.11-.06c15.3-8.15,32.57-12.45,49.97-12.45.11,0,.22,0,.33,0,18.38.06,35.5,5.01,49.52,14.33,8.88,5.9,16.27,13.56,21.37,22.15h0c.36.6.71,1.21,1.05,1.82l.06.11-.11.06c-15.1,8.08-32.84,12.49-50.09,12.49ZM.48,81.02c4.81,8.74,11.9,16.56,20.49,22.63,13.98,9.88,31.3,15.23,50.09,15.47,17.57.23,35.73-4.18,51.15-12.4-.32-.57-.65-1.15-.98-1.7h0c-5.08-8.55-12.44-16.19-21.29-22.07-13.97-9.29-31.05-14.23-49.38-14.29-.11,0-.22,0-.33,0-17.32,0-34.51,4.27-49.74,12.36Z"/>
        <path d="m64.35,88.52c-10.96,0-24.41-4.99-29.39-11.15-1.45-1.71-1.99-3.74-1.54-5.89v-.03c.28-.49.54-.98.79-1.48l.02-.03c5.76-6.47,28.61-6.61,40.09-.25,5.45,3.02,7.61,7.06,6.26,11.69-2.42,4.14-7.18,6.57-13.77,7.06-.8.06-1.62.09-2.45.09Zm-30.69-16.97c-.42,2.06.09,4.02,1.49,5.66h0c5.31,6.58,20.38,11.82,31.63,10.97,6.51-.48,11.2-2.87,13.56-6.91,1.65-5.67-2.43-9.31-6.15-11.37-11.39-6.31-34.05-6.2-39.77.19-.25.49-.5.97-.76,1.45Z"/>
        <path d="m65.01,93.75c-8.22,0-16.63-1.69-24.06-4.93-6.11-2.58-15.38-8.66-15.87-14.84-.23-2.9,1.48-5.5,5.08-7.74,4.39-2.72,12.9-5.5,28.56-3.29,6.89.98,19.58,3.78,27.13,11.58,3.35,3.46,4.56,6.71,3.6,9.66-1.57,4.83-8.64,7.68-14.74,8.75-3.16.55-6.42.82-9.71.82Zm-16.92-31.35c-6.3,0-12.84.98-17.79,4.05-3.51,2.18-5.18,4.71-4.96,7.51.48,6.08,9.66,12.08,15.71,14.63h0c10.36,4.52,22.62,6.02,33.63,4.1,6.02-1.05,13.01-3.85,14.54-8.58.93-2.85-.27-6.02-3.55-9.41-7.5-7.75-20.13-10.53-26.99-11.51-3.2-.45-6.86-.8-10.6-.8Z"/>
        <path d="m66.71,98.27c-8.62,0-17.41-1.58-25.43-4.67-5.55-2.06-20.33-9.25-22.06-17.64-.59-2.88.44-5.61,3.06-8.12,7.62-7.28,23.99-7.04,33.07-6.25,8.87.77,21.65,3.32,32.19,11.07,6.13,4.5,9,9.38,8.1,13.75-.96,4.64-6.13,8.37-14.2,10.23-4.73,1.09-9.71,1.63-14.75,1.63Zm-20.05-36.83c-14.84,0-21.45,3.95-24.21,6.58-2.56,2.45-3.57,5.1-2.99,7.89.71,3.43,3.87,7.17,9.14,10.8,4.46,3.07,9.51,5.45,12.76,6.66h0c12.66,4.88,27.25,5.98,40.03,3.03,7.97-1.84,13.07-5.5,14.01-10.04.88-4.27-1.96-9.06-8.01-13.5-10.5-7.71-23.23-10.25-32.07-11.02-3.16-.28-6.04-.4-8.67-.4Z"/>
        <path d="m67.96,102c-9.96,0-19.98-1.84-28.88-5.41h0c-6.01-2.34-22.08-10.39-24.23-19.38-.68-2.86.1-5.58,2.34-8.08,3.44-3.85,9.48-6.37,17.95-7.49,7.33-.98,14.94-.7,20.02-.29,14.46,1.16,27.63,5.82,37.1,13.13,5.3,4.09,12.03,10.27,9.41,16.79-2.42,6.03-12.91,8.13-18.55,9.26-4.93.99-10.04,1.48-15.17,1.48Zm-21.75-40.77c-9.88,0-22.87,1.4-28.84,8.06-2.18,2.44-2.95,5.08-2.29,7.86,2.12,8.89,18.1,16.88,24.08,19.21h0c13.44,5.39,29.44,6.82,43.9,3.92,5.59-1.12,16-3.21,18.37-9.11,2.56-6.37-4.1-12.47-9.33-16.5-9.43-7.28-22.56-11.92-36.97-13.08-2.28-.18-5.4-.36-8.93-.36Z"/>
        <path d="m69.01,105.28c-11.59,0-23.17-2.29-33.26-6.73h0c-3.45-1.49-9.26-4.57-14.28-8.33-4.22-3.16-9.41-7.97-10.16-12.93-.45-2.99.75-5.72,3.55-8.12,9.95-8.5,29.53-8.41,40.31-7.59,17.09,1.29,32.33,7.13,42.89,16.46,5.36,4.73,11.02,10.95,7.17,17.11-3.39,5.42-14.13,7.46-19.9,8.56l-.39.07c-5.22,1-10.58,1.49-15.94,1.49Zm-22.99-43.79c-10.53,0-23.51,1.5-30.99,7.88-2.74,2.34-3.9,4.99-3.47,7.89,1.38,9.21,18.42,18.53,24.28,21.06h0c14.71,6.46,32.59,8.37,49.06,5.23l.39-.07c5.73-1.09,16.41-3.12,19.74-8.45,3.75-6-1.84-12.12-7.12-16.79-10.53-9.29-25.71-15.11-42.75-16.4-2.62-.2-5.75-.35-9.14-.35Z"/>
        <path d="m69.78,108.19c-10.91,0-21.68-1.92-31.41-5.67h0c-7.18-2.72-27.58-13.37-29.82-23.57-.64-2.9.21-5.56,2.53-7.93,11.31-11.55,40.83-9.22,46.63-8.64,16.22,1.63,31.03,7.36,41.7,16.13,4.2,3.45,14.03,11.54,9.75,18.88-3.37,5.78-15.39,7.96-21.85,9.14l-.77.14c-5.54,1.02-11.16,1.52-16.75,1.52Zm-24.32-46.14c-11.25,0-26.75,1.53-34.21,9.15-2.25,2.3-3.08,4.89-2.46,7.7,2.22,10.1,22.52,20.68,29.67,23.39h0c14.67,5.66,31.73,7.13,48.03,4.14l.77-.14c6.42-1.17,18.37-3.34,21.68-9.02,3.7-6.34-3.24-13.25-9.69-18.56-10.63-8.74-25.39-14.45-41.56-16.08-1.94-.19-6.54-.58-12.21-.58Z"/>
        <path d="m74.21,110.98c-7.12,0-13.68-.58-18.14-1.28-5.57-.87-10.93-2.2-15.94-3.96-12.27-4.24-35.25-15.91-34.39-29.76v-.03c.18-.5.4-.98.67-1.44,10.03-11.46,34.85-11.98,45.05-11.67,17.4.53,33.89,5.71,46.42,14.58,6.11,4.33,14.39,10.99,15.76,18.91v.02s0,.02,0,.02c-.05.56-.13,1.12-.24,1.67v.04c-3.74,6.44-12.94,10.67-26.64,12.23-4.17.48-8.46.67-12.56.67ZM5.99,76.02c-.37,6.05,4.02,12.47,12.69,18.59,7.09,5,15.77,8.91,21.53,10.9h0c4.99,1.75,10.34,3.08,15.89,3.95,7.02,1.09,19.25,1.9,30.63.6,9.49-1.08,21.77-4.06,26.42-12.09.11-.53.18-1.07.23-1.61-1.37-7.82-9.59-14.44-15.66-18.73-12.49-8.85-28.93-14.01-46.29-14.54-10.17-.31-34.9.2-44.84,11.57-.24.42-.45.88-.62,1.36Z"/>
        <path d="m74.26,113.45c-6.27,0-12.68-.49-18.63-1.46-5.33-.87-10.7-2.24-15.98-4.07h0c-15.25-5.51-33.82-16.71-35.95-30.14v-.03s0-.03,0-.03c.14-.51.29-1.02.45-1.52l.03-.05c10.25-11.71,36.09-12.44,46.74-12.22,18,.38,35.14,5.67,48.26,14.88,9.22,6.48,14.81,12.74,17.1,19.14.07.63.11,1.24.11,1.85v.05c-.21.47-.42.95-.63,1.41l-.03.04c-5.98,5.91-15.88,9.86-28.62,11.4-4.08.49-8.43.74-12.85.74Zm-34.53-5.77c5.26,1.83,10.62,3.2,15.93,4.06,10.12,1.65,21.57,1.91,31.41.72,12.68-1.53,22.52-5.45,28.46-11.31.2-.45.4-.91.59-1.36,0-.59-.04-1.19-.11-1.77-2.26-6.32-7.83-12.54-17-18.99-13.08-9.19-30.17-14.46-48.12-14.84-10.59-.22-36.34.51-46.53,12.12-.15.49-.29.97-.43,1.46,2.14,13.31,20.61,24.43,35.79,29.91Z"/>
        <path d="m73.42,115.56c-5.58,0-10.93-.41-15.76-1.11-6.11-.88-12.04-2.33-17.61-4.3h0c-6.99-2.48-30.36-11.99-37.76-30.26v-.04c-.06-.58-.07-1.17-.02-1.75v-.04s.03-.03.03-.03c.31-.38.6-.78.88-1.19l.03-.03c5.99-4.49,14.06-7.74,23.98-9.67,10.13-1.97,19.74-2.08,26.01-1.83,17.69.71,33.93,5.91,46.97,15.03,10.14,7.09,16.24,13.95,18.65,20.96v.02s0,.02,0,.02c-.01.55-.11,1.09-.3,1.61l-.03.05c-.35.33-.69.69-.99,1.07l-.03.02c-12.28,8.45-28.97,11.46-44.05,11.46Zm-33.29-5.65c5.56,1.96,11.46,3.41,17.56,4.29,17.84,2.58,42.86,1.23,59.62-10.3.3-.37.63-.73.98-1.06.17-.48.26-.98.27-1.48-2.4-6.96-8.47-13.77-18.55-20.82-13-9.09-29.2-14.27-46.84-14.98-29.56-1.19-44.67,7.59-49.81,11.44-.26.4-.55.79-.85,1.16-.04.55-.04,1.1.01,1.65,1.87,4.62,10.1,20.34,37.6,30.1h0Z"/>
        <path d="m73.01,117.52c-4.85,0-9.72-.33-14.55-1-5.97-.83-11.83-2.22-17.42-4.12h0c-8.49-2.94-16.49-7.13-23.15-12.12-7.76-5.82-13.42-12.46-16.83-19.75v-.03s-.05-.29-.05-.29v-.02c.1-.42.21-.84.32-1.24v-.04s.05-.03.05-.03c11.98-8.02,30.08-12.43,49.67-12.12,19.3.31,37.55,6.09,51.38,16.28,9.97,7.34,16.17,14.5,18.44,21.29l.02.07-.05.05c-.33.35-.6.75-.79,1.2l-.02.04-.04.02c-12.94,7.68-29.79,11.83-46.99,11.83Zm-31.89-5.36c5.57,1.9,11.42,3.28,17.37,4.11,21.88,3.05,44.8-.97,61.34-10.77.19-.44.45-.83.77-1.18-2.27-6.72-8.43-13.82-18.32-21.1-13.79-10.15-31.99-15.92-51.24-16.23-9.23-.15-32.54.73-49.49,12.05-.1.38-.2.77-.29,1.16l.03.22c3.39,7.25,9.02,13.86,16.74,19.64,6.64,4.98,14.62,9.15,23.08,12.08h0Z"/>
      </g>
    </g>
  </g>
</svg>