<svg xmlns="http://www.w3.org/2000/svg" id="Calque_2" data-name="Calque 2" viewBox="0 0 70.08 77.48"><defs><style>      .cls-1 {        fill: #f9c;      }    </style></defs><g id="icones"><path class="cls-1" d="m59.46,38.74c6.04-1.07,10.62-6.41,10.62-12.85,0-7.21-5.75-13.04-12.85-13.04-4.28,0-8.07,2.12-10.41,5.38.68-1.59,1.06-3.35,1.06-5.19,0-7.2-5.75-13.04-12.85-13.04s-12.85,5.84-12.85,13.04c0,1.84.38,3.6,1.06,5.19-2.34-3.26-6.12-5.38-10.4-5.38C5.75,12.85,0,18.69,0,25.89c0,6.43,4.59,11.78,10.62,12.85-6.04,1.07-10.62,6.42-10.62,12.85,0,7.2,5.75,13.04,12.85,13.04,4.28,0,8.07-2.12,10.4-5.38-.68,1.59-1.06,3.34-1.06,5.19,0,7.2,5.75,13.04,12.85,13.04s12.85-5.84,12.85-13.04c0-1.85-.38-3.6-1.06-5.19,2.34,3.26,6.12,5.38,10.41,5.38,7.09,0,12.85-5.84,12.85-13.04,0-6.43-4.59-11.78-10.62-12.85Zm-15.07,12.85c0,1.84.38,3.6,1.06,5.19-2.34-3.26-6.12-5.39-10.4-5.39s-8.07,2.12-10.4,5.39c.68-1.59,1.06-3.35,1.06-5.19,0-6.43-4.59-11.78-10.63-12.85,6.04-1.07,10.63-6.41,10.63-12.85,0-1.84-.38-3.6-1.06-5.19,2.34,3.26,6.12,5.38,10.4,5.38s8.07-2.12,10.4-5.38c-.68,1.59-1.06,3.35-1.06,5.19,0,6.43,4.59,11.78,10.62,12.85-6.04,1.07-10.62,6.42-10.62,12.85Z"></path></g></svg>