<svg xmlns="http://www.w3.org/2000/svg" id="Calque_2" data-name="Calque 2" viewBox="0 0 48.47 77.95"><defs><style>      .cls-1 {        fill: #f6a570;      }    </style></defs><g id="icones"><path class="cls-1" d="m48.47,21.38v50.65c0,3.26-2.66,5.92-5.92,5.92H5.92c-3.26,0-5.92-2.66-5.92-5.92v-22.4h0c0-4.37,1.52-8.4,4.05-11.57,3.02-3.79,9.31-5.23,13.95-3.83.99.3,2.04.46,3.12.46,2.14,0,4.14-.63,5.82-1.7.76-.48,1.45-1.05,2.07-1.71.31-.32.6-.66.87-1.03,1.33-1.8,2.11-4.03,2.11-6.44,0-.15,0-.29,0-.43,0-.04,0-.08,0-.12,0-.13,0-.27-.03-.4,0-.15-.02-.29-.05-.42-.02-.19-.06-.4-.09-.59-.03-.17-.06-.33-.1-.5-.04-.17-.07-.33-.13-.49-1.1-3.92-4.36-6.94-8.4-7.71-.17-.04-.33-.06-.5-.08-.32-.06-.66-.09-.99-.1h-.05c-.08,0-.18,0-.26,0-.08,0-.18,0-.26,0-.82,0-1.63.09-2.41.27-.78.18-1.51.43-2.22.77,0,0,0,0,0,0-.93.44-1.8,1.02-2.56,1.69t0,0c-.13.12-.26.23-.37.35-.98.95-1.78,2.09-2.35,3.35-.14.32-.27.65-.38.97-.11.33-.2.67-.29,1.02-.16.69-.25,1.4-.27,2.13,0,.1-.02.2-.02.3,0,.78.08,1.53.24,2.26.47,2.17-1,4.31-3.21,4.41-.1,0-.21,0-.31,0C3.15,30.49.04,27.38,0,23.56h0v-.05C0,10.53,10.53,0,23.51,0h3.58c11.81,0,21.38,9.57,21.38,21.38Z"></path></g></svg>