<svg xmlns="http://www.w3.org/2000/svg" id="Calque_2" data-name="Calque 2" viewBox="0 0 238.66 17.31"><defs><style>      .cls-1 {        fill: #fff;      }    </style></defs><g id="collectivites"><g><path class="cls-1" d="m27.96,14.35c-2.07,0-3.87-1.22-4.79-3.01-.3,1.1-.78,2.12-1.41,3.02,1.52,1.81,3.73,2.95,6.2,2.95s4.68-1.15,6.2-2.96c-.63-.9-1.11-1.92-1.41-3.02-.92,1.79-2.72,3.02-4.79,3.02Z"></path><path class="cls-1" d="m23.18,5.96c.92-1.79,2.72-3,4.79-3s3.87,1.22,4.79,3.01c.29-1.09.78-2.11,1.41-3.01-1.52-1.81-3.73-2.96-6.2-2.96s-4.68,1.14-6.2,2.95c-.24.27-.45.56-.64.86-.64,1-1.08,2.13-1.28,3.37h0s0,.05,0,.07c-.03.17-.05.34-.07.51,0,.06-.02.12-.02.18-.02.24-.03.47-.03.71,0,.96-.24,1.88-.64,2.67-.92,1.79-2.72,3.02-4.79,3.02-1.48,0-2.82-.63-3.79-1.63l8.58-6.74h0c.29-1.09.78-2.11,1.41-3.01-1.52-1.81-3.73-2.96-6.2-2.96C9.74,0,6.05,3.88,6.05,8.65c0,1.19.23,2.33.64,3.37L.19,17.13c-.07.06-.13.11-.19.18h4.66l3.56-2.81c1.51,1.72,3.67,2.8,6.07,2.8s4.68-1.15,6.2-2.96c.23-.27.44-.56.64-.85.89-1.38,1.41-3.05,1.41-4.84,0-.97.23-1.89.64-2.68Zm-14.3,2.68c0-3.14,2.44-5.69,5.43-5.69,1.04,0,2.02.31,2.84.85l-8.08,6.35c-.13-.49-.2-1-.2-1.52Z"></path><path class="cls-1" d="m41.62,0c-2.46,0-4.69,1.15-6.2,2.96-.24.27-.45.56-.64.86-.89,1.38-1.41,3.04-1.41,4.82s.52,3.45,1.41,4.83c.2.3.41.59.64.86,1.51,1.81,3.73,2.96,6.2,2.96,4.55,0,8.25-3.88,8.25-8.65S46.17,0,41.62,0Zm0,14.35c-2.07,0-3.87-1.22-4.79-3.01-.41-.8-.64-1.72-.64-2.68s.24-1.89.64-2.68c.92-1.79,2.72-3,4.79-3,3,0,5.43,2.55,5.43,5.69s-2.44,5.7-5.43,5.7Z"></path><path class="cls-1" d="m54.4,2.08v5.64h9.42v1.86h-9.42v5.69h10.51v1.86h-12.43V.27h12.43v1.86h-10.51v-.05Z"></path><path class="cls-1" d="m80.47.22v16.86h-2.24l-10.46-14.23v14.23h-1.92V.22h2.24l10.46,14.18V.22h1.92Z"></path><path class="cls-1" d="m97.3.22l-6.84,16.86h-2.19L81.42.22h2.08l5.86,14.73L95.22.22h2.08Z"></path><path class="cls-1" d="m100.16,17.08h-1.92V.22h1.92v16.86Z"></path><path class="cls-1" d="m103.02,17.08h-1.92V.22h8.05c1.7,0,3.12.49,4.11,1.42,1.04.93,1.53,2.24,1.53,3.83,0,2.14-.88,3.56-2.63,4.32-.49.22-.99.38-1.48.49l4.43,6.79h-2.24l-4.11-6.46h-5.86v6.46h.11Zm0-8.27h5.86c1.81,0,3.07-.55,3.72-1.7.27-.44.38-.99.38-1.64,0-1.09-.38-1.92-1.09-2.52-.71-.6-1.7-.93-2.9-.93h-5.97v6.79Z"></path><path class="cls-1" d="m124.61,0c2.52,0,4.6.82,6.19,2.52,1.59,1.64,2.35,3.67,2.35,6.13s-.77,4.49-2.35,6.13c-1.64,1.7-3.67,2.52-6.19,2.52s-4.6-.82-6.19-2.52c-1.59-1.64-2.35-3.67-2.35-6.13s.77-4.49,2.35-6.13,3.67-2.52,6.19-2.52Zm0,15.44c2.03,0,3.61-.66,4.87-1.97,1.2-1.26,1.81-2.85,1.81-4.82s-.6-3.56-1.81-4.82c-1.26-1.31-2.85-1.97-4.87-1.97s-3.61.66-4.87,1.97c-1.2,1.26-1.81,2.85-1.81,4.82s.6,3.56,1.81,4.82c1.26,1.31,2.85,1.97,4.87,1.97Z"></path><path class="cls-1" d="m148.72.22v16.86h-2.24l-10.46-14.23v14.23h-1.92V.22h2.24l10.46,14.18V.22h1.92Z"></path><path class="cls-1" d="m164.28.22v16.86h-2.24l-10.46-14.23v14.23h-1.92V.22h2.24l10.46,14.18V.22h1.92Z"></path><path class="cls-1" d="m167.15,2.08v5.64h9.36v1.86h-9.36v5.69h10.51v1.86h-12.43V.27h12.43v1.86h-10.51v-.05Z"></path><path class="cls-1" d="m195.03.22v16.86h-1.92V3.12l-6.24,8.05-6.35-8.05v13.96h-1.92V.22h2.24l6.02,7.99,5.97-7.99h2.19Z"></path><path class="cls-1" d="m197.89,2.08v5.64h9.36v1.86h-9.36v5.69h10.51v1.86h-12.43V.27h12.43v1.86h-10.51v-.05Z"></path><path class="cls-1" d="m223.97.22v16.86h-2.24l-10.46-14.23v14.23h-1.92V.22h2.24l10.46,14.18V.22h1.92Z"></path><path class="cls-1" d="m238.66,2.08h-5.91v15.06h-1.92V2.08h-5.91V.22h13.69v1.86h.05Z"></path></g></g></svg>