<?xml version="1.0" encoding="UTF-8" standalone="no"?>
<!-- Created with Inkscape (http://www.inkscape.org/) -->

<svg
   width="16.318298mm"
   height="16.202637mm"
   viewBox="0 0 16.318298 16.202637"
   version="1.1"
   id="svg5"
   xml:space="preserve"
   xmlns:inkscape="http://www.inkscape.org/namespaces/inkscape"
   xmlns:sodipodi="http://sodipodi.sourceforge.net/DTD/sodipodi-0.dtd"
   xmlns="http://www.w3.org/2000/svg"
   xmlns:svg="http://www.w3.org/2000/svg"><sodipodi:namedview
     id="namedview7"
     pagecolor="#ffffff"
     bordercolor="#000000"
     borderopacity="0.25"
     inkscape:showpageshadow="2"
     inkscape:pageopacity="0.0"
     inkscape:pagecheckerboard="0"
     inkscape:deskcolor="#d1d1d1"
     inkscape:document-units="mm"
     showgrid="false" /><defs
     id="defs2"><clipPath
       clipPathUnits="userSpaceOnUse"
       id="clipPath3014"><path
         d="M 0,11179.31 H 1200 V 0 H 0 Z"
         id="path3012" /></clipPath></defs><g
     id="g3008"
     transform="matrix(0.35277776,0,0,-0.35277778,-202.37538,1298.371)"><g
       id="g3010"
       clip-path="url(#clipPath3014)"><g
         id="g3016"
         transform="translate(576.1644,3673.061)"><path
           d="m 0,0 c -0.457,-5.483 -0.314,-10.997 0.428,-16.448 0.013,-0.204 0.104,-0.394 0.254,-0.532 0.15,-0.137 0.347,-0.212 0.551,-0.208 0.204,0.004 0.398,0.086 0.542,0.23 0.145,0.143 0.228,0.337 0.233,0.54 C 2.516,-10.93 2.348,-5.402 1.507,0.044 1.504,0.143 1.481,0.24 1.441,0.331 1.4,0.421 1.343,0.502 1.271,0.57 1.199,0.638 1.114,0.691 1.022,0.726 0.929,0.761 0.831,0.778 0.732,0.775 0.633,0.772 0.536,0.749 0.446,0.709 0.356,0.668 0.274,0.611 0.207,0.539 0.139,0.467 0.086,0.382 0.051,0.29 0.016,0.197 -0.003,0.099 0,0"
           style="fill:#000000;fill-opacity:1;fill-rule:evenodd;stroke:none"
           id="path3018" /></g><g
         id="g3020"
         transform="translate(586.9815,3679.5916)"><path
           d="M 0,0 C -2.01,-22.45 1.509,-17.714 1.464,-17.035 1.911,-11.369 1.923,-5.677 1.499,-0.01 1.5,0.189 1.422,0.38 1.283,0.522 1.214,0.592 1.131,0.647 1.041,0.686 0.95,0.724 0.853,0.744 0.754,0.745 0.555,0.746 0.364,0.668 0.223,0.529 0.081,0.389 0.001,0.199 0,0"
           style="fill:#000000;fill-opacity:1;fill-rule:evenodd;stroke:none"
           id="path3022" /></g><g
         id="g3024"
         transform="translate(598.767,3675.54)"><path
           d="m 0,0 c -0.629,-4.069 -0.567,-8.215 0.181,-12.264 0.015,-0.204 0.108,-0.395 0.26,-0.532 0.152,-0.138 0.352,-0.21 0.556,-0.203 0.205,0.007 0.399,0.093 0.542,0.24 0.142,0.147 0.222,0.344 0.222,0.549 C 2.245,-8.145 2.157,-4.031 1.499,0.01 1.498,0.208 1.418,0.399 1.276,0.538 1.135,0.678 0.943,0.756 0.745,0.754 0.546,0.753 0.356,0.673 0.216,0.531 0.077,0.39 -0.001,0.199 0,0"
           style="fill:#000000;fill-opacity:1;fill-rule:evenodd;stroke:none"
           id="path3026" /></g><g
         id="g3028"
         transform="translate(609.5978,3673.906)"><path
           d="m 0,0 c 0.003,-0.104 0.026,-0.206 0.069,-0.301 0.042,-0.094 0.103,-0.18 0.178,-0.251 0.075,-0.071 0.164,-0.127 0.261,-0.164 0.097,-0.037 0.2,-0.055 0.304,-0.052 0.104,0.003 0.206,0.027 0.301,0.069 0.095,0.042 0.18,0.103 0.251,0.178 0.071,0.076 0.127,0.165 0.164,0.261 0.037,0.097 0.055,0.201 0.052,0.304 C 3.199,8.22 -2.279,9.131 0,0"
           style="fill:#000000;fill-opacity:1;fill-rule:evenodd;stroke:none"
           id="path3030" /></g><g
         id="g3032"
         transform="translate(577.1058,3646.843)"><path
           d="m 0,0 c -0.592,-3.852 -0.547,-7.776 0.131,-11.614 0.014,-0.2 0.103,-0.387 0.25,-0.523 0.146,-0.137 0.339,-0.213 0.539,-0.213 0.2,0 0.393,0.076 0.54,0.213 0.146,0.136 0.235,0.323 0.249,0.523 0.573,3.859 0.502,7.785 -0.21,11.62 C 1.504,0.107 1.488,0.209 1.452,0.304 1.416,0.4 1.362,0.487 1.291,0.56 1.221,0.634 1.136,0.692 1.043,0.732 0.949,0.771 0.848,0.792 0.746,0.792 0.645,0.791 0.544,0.77 0.451,0.729 0.357,0.689 0.273,0.63 0.203,0.556 0.134,0.482 0.08,0.394 0.045,0.299 0.01,0.203 -0.006,0.102 0,0"
           style="fill:#000000;fill-opacity:1;fill-rule:evenodd;stroke:none"
           id="path3034" /></g><g
         id="g3036"
         transform="translate(587.5795,3654.0237)"><path
           d="m 0,0 c -0.45,-4.677 -0.27,-9.395 0.534,-14.023 0.02,-0.201 0.115,-0.387 0.266,-0.52 0.152,-0.133 0.348,-0.203 0.55,-0.196 0.201,0.008 0.392,0.092 0.534,0.235 0.142,0.143 0.223,0.335 0.228,0.536 C 2.558,-9.286 2.352,-4.565 1.499,0.06 1.498,0.16 1.478,0.26 1.438,0.352 1.398,0.445 1.34,0.528 1.267,0.598 1.195,0.667 1.109,0.721 1.015,0.757 0.92,0.793 0.82,0.809 0.72,0.805 0.619,0.802 0.52,0.777 0.429,0.735 0.338,0.692 0.257,0.631 0.189,0.556 0.122,0.481 0.071,0.394 0.038,0.298 0.006,0.203 -0.007,0.1 0,0"
           style="fill:#000000;fill-opacity:1;fill-rule:evenodd;stroke:none"
           id="path3038" /></g><g
         id="g3040"
         transform="translate(599.1414,3653.437)"><path
           d="m 0,0 c -0.666,-4.916 -0.581,-9.904 0.251,-14.795 0.015,-0.209 0.112,-0.404 0.271,-0.542 0.158,-0.137 0.365,-0.206 0.574,-0.191 0.209,0.015 0.404,0.112 0.541,0.271 0.138,0.158 0.207,0.365 0.192,0.574 C 2.193,-9.779 2.082,-4.85 1.497,0.033 1.484,0.226 1.397,0.406 1.254,0.536 1.112,0.666 0.924,0.737 0.731,0.732 0.538,0.728 0.354,0.649 0.217,0.512 0.081,0.375 0.002,0.191 -0.002,-0.002 Z"
           style="fill:#000000;fill-opacity:1;fill-rule:evenodd;stroke:none"
           id="path3042" /></g><g
         id="g3044"
         transform="translate(610.2151,3661.5669)"><path
           d="m 0,0 c -0.561,-8.738 -0.494,-17.504 0.199,-26.232 0.014,-0.199 0.103,-0.386 0.249,-0.523 0.147,-0.136 0.339,-0.212 0.54,-0.212 0.2,0 0.393,0.076 0.539,0.212 0.147,0.137 0.236,0.324 0.25,0.523 0.584,8.74 0.494,17.512 -0.27,26.238 C 1.492,0.196 1.406,0.374 1.266,0.503 1.126,0.633 0.942,0.704 0.751,0.703 0.561,0.703 0.377,0.63 0.238,0.499 0.099,0.369 0.015,0.19 0.002,0 Z"
           style="fill:#000000;fill-opacity:1;fill-rule:evenodd;stroke:none"
           id="path3046" /></g><g
         id="g3048"
         transform="translate(612.6132,3666.7737)"><path
           d="M 0,0 C -1.025,0.121 -2.054,0.205 -3.085,0.253 -3.187,0.246 -3.29,0.26 -3.387,0.294 -3.484,0.327 -3.573,0.381 -3.649,0.45 -3.725,0.519 -3.786,0.603 -3.828,0.697 -3.871,0.79 -3.894,0.891 -3.896,0.994 c -0.003,0.102 0.016,0.204 0.054,0.3 0.038,0.095 0.095,0.182 0.168,0.254 0.073,0.073 0.159,0.13 0.254,0.169 0.096,0.038 0.198,0.056 0.3,0.054 3.024,0.344 6.069,0.463 9.11,0.357 C 7.752,2.136 7.395,-0.648 6.908,-4.447 6.748,-5.647 6.61,-6.85 6.494,-8.054 6.501,-8.163 6.487,-8.271 6.45,-8.374 6.414,-8.476 6.357,-8.57 6.283,-8.649 6.209,-8.729 6.12,-8.792 6.02,-8.835 5.92,-8.878 5.813,-8.901 5.705,-8.901 5.596,-8.901 5.489,-8.878 5.389,-8.835 5.29,-8.792 5.2,-8.729 5.126,-8.649 5.052,-8.57 4.995,-8.476 4.959,-8.374 4.923,-8.271 4.908,-8.163 4.916,-8.054 4.73,-5.247 4.754,-4.246 4.781,-3.038 4.79,-2.66 4.8,-2.263 4.802,-1.782 4.252,-2.207 3.521,-2.749 2.558,-3.465 0.82,-4.757 -1.671,-6.609 -5.201,-9.32 c -5.346,-4.103 -6.976,-6.189 -8.232,-5.982 -1.071,0.173 -1.868,2.017 -4.464,5.695 -6.853,-4.798 -9.89,-6.78 -12.822,-8.692 -2.01,-1.311 -3.974,-2.592 -7.086,-4.728 -0.162,-0.099 -0.355,-0.133 -0.541,-0.096 -0.185,0.037 -0.351,0.143 -0.462,0.296 -0.111,0.154 -0.16,0.344 -0.137,0.532 0.023,0.188 0.116,0.361 0.26,0.483 4.265,3.298 8.594,6.512 12.984,9.641 5.332,3.817 7.072,5.658 8.361,5.382 1.113,-0.237 1.891,-2.06 4.36,-5.558 5.989,4.738 10.229,7.549 16.697,11.84 l 0.3,0.198 C 2.319,-0.247 1.128,-0.12 0,0"
           style="fill:#000000;fill-opacity:1;fill-rule:evenodd;stroke:none"
           id="path3050" /></g><g
         id="g3052"
         transform="translate(988.5793,3664.8931)"
         inkscape:export-filename="picto-40-economies.svg"
         inkscape:export-xdpi="96"
         inkscape:export-ydpi="96"><path
           d="m 0,0 c -0.859,0.323 -1.765,0.502 -2.682,0.533 -2.948,0.213 -7.672,0.213 -9.785,0.213 0.728,1.616 2.167,4.795 2.859,6.251 0.089,0.213 0.462,0.693 0.462,1.066 0,0.373 -0.728,1.101 -1.225,0.23 0,-0.106 -0.196,-0.372 -0.373,-0.745 -0.995,-2.007 -3.428,-7.211 -3.428,-7.211 -0.053,-0.104 -0.081,-0.22 -0.081,-0.337 0,-0.117 0.028,-0.233 0.081,-0.337 0.063,-0.098 0.15,-0.177 0.253,-0.23 0.103,-0.053 0.218,-0.078 0.333,-0.072 3.998,0.035 7.994,-0.154 11.97,-0.569 h 0.249 c -0.071,-0.134 -0.148,-0.264 -0.231,-0.39 -1.114,-1.427 -2.299,-2.797 -3.552,-4.103 -2.256,-2.397 -5.008,-5.15 -7.317,-7.405 -1.971,-2.007 -11.987,-11.366 -16.392,-14.9 l -0.692,-0.533 c 0.416,1.414 1.013,2.769 1.776,4.031 2.006,3.694 5.221,8.542 8.116,13.32 0.182,0.236 0.282,0.527 0.282,0.825 0,0.299 -0.1,0.59 -0.282,0.826 -0.24,0.292 -0.572,0.492 -0.942,0.568 -0.678,0.079 -1.363,0.079 -2.042,0 l -5.807,-0.142 h -1.155 c 0.143,0.32 0.356,0.711 0.498,1.101 1.598,4.494 5.878,15.025 7.245,17.76 0.764,0.195 2.576,0.231 2.735,0.248 1.332,0.107 2.7,0.16 4.067,0.196 h 6.216 c 0.077,-0.001 0.153,0.015 0.224,0.046 0.07,0.031 0.134,0.076 0.185,0.133 0.052,0.057 0.092,0.124 0.116,0.198 0.024,0.073 0.033,0.15 0.025,0.227 0.008,0.076 -10e-4,0.154 -0.025,0.227 -0.024,0.073 -0.064,0.14 -0.116,0.197 -0.051,0.057 -0.115,0.102 -0.185,0.133 -0.071,0.031 -0.147,0.047 -0.224,0.046 h -7.281 c -1.03,0 -2.078,0 -3.144,-0.124 h -2.859 c -0.318,-0.028 -0.612,-0.182 -0.817,-0.426 -1.279,-2.291 -6.056,-13.426 -7.849,-18.114 -0.264,-0.638 -0.489,-1.29 -0.675,-1.954 -0.062,-0.186 -0.072,-0.386 -0.028,-0.577 0.044,-0.191 0.139,-0.366 0.276,-0.506 0.296,-0.247 0.651,-0.412 1.03,-0.48 0.591,-0.055 1.186,-0.055 1.776,0 l 5.737,-0.018 c 0.253,-0.029 0.502,-0.083 0.745,-0.16 -3.392,-5.451 -7.103,-10.904 -8.773,-14.58 -0.538,-1.048 -0.881,-2.185 -1.012,-3.356 -0.053,-0.398 0,-0.802 0.153,-1.173 0.153,-0.371 0.4,-0.695 0.717,-0.941 0.196,-0.117 0.42,-0.179 0.649,-0.179 0.228,0 0.452,0.062 0.648,0.179 0.719,0.414 1.397,0.896 2.024,1.439 4.405,3.552 14.421,13.16 16.41,15.166 3.179,3.197 7.103,7.406 9.554,10.212 0.954,0.951 1.683,2.104 2.131,3.374 C 0.554,-0.643 0.493,-0.476 0.394,-0.332 0.294,-0.189 0.158,-0.074 0,0"
           style="fill:#000000;fill-opacity:1;fill-rule:evenodd;stroke:none"
           id="path3054" /></g><g
         id="g3056"
         transform="translate(975.9943,3390.2632)"
         inkscape:export-filename="picto-valorisation.svg"
         inkscape:export-xdpi="96"
         inkscape:export-ydpi="96"><path
           d="m 0,0 c -1.574,-0.555 -3.106,-1.222 -4.584,-1.998 -0.379,-0.231 -0.758,-0.505 -1.136,-0.778 -0.09,0.093 -0.175,0.191 -0.252,0.294 -0.981,0.965 -2.059,1.825 -3.218,2.566 -0.07,0.062 -0.152,0.11 -0.241,0.14 C -9.52,0.255 -9.614,0.267 -9.708,0.261 -9.802,0.256 -9.893,0.231 -9.978,0.19 -10.062,0.149 -10.137,0.091 -10.2,0.021 c -0.062,-0.071 -0.109,-0.153 -0.14,-0.241 -0.03,-0.089 -0.043,-0.183 -0.037,-0.277 0.006,-0.094 0.03,-0.185 0.071,-0.27 0.042,-0.084 0.099,-0.16 0.17,-0.222 0.778,-0.988 1.409,-2.103 2.103,-3.154 l 0.189,-0.294 -0.189,-0.169 c -1.171,-1.189 -2.247,-2.469 -3.218,-3.827 -0.078,-0.075 -0.141,-0.165 -0.183,-0.264 -0.043,-0.099 -0.065,-0.206 -0.065,-0.314 0,-0.109 0.022,-0.216 0.065,-0.315 0.042,-0.099 0.105,-0.189 0.183,-0.264 0.074,-0.075 0.163,-0.134 0.26,-0.175 0.098,-0.041 0.202,-0.062 0.308,-0.062 0.105,0 0.21,0.021 0.307,0.062 0.098,0.041 0.186,0.1 0.261,0.175 0.673,0.631 1.367,1.199 2.103,1.767 0.736,0.568 1.135,0.841 1.703,1.241 l 0.189,-0.232 c 0.841,-1.03 1.704,-1.998 2.524,-3.007 0.057,-0.09 0.13,-0.168 0.217,-0.229 0.087,-0.061 0.185,-0.105 0.288,-0.128 0.103,-0.024 0.211,-0.026 0.315,-0.009 0.105,0.019 0.205,0.057 0.294,0.114 0.09,0.056 0.168,0.13 0.229,0.217 0.061,0.086 0.105,0.184 0.129,0.288 0.023,0.103 0.026,0.21 0.008,0.315 -0.018,0.104 -0.056,0.204 -0.113,0.294 -0.547,1.199 -1.094,2.418 -1.767,3.617 l -0.231,0.337 0.505,0.357 c 1.388,1.094 2.713,2.251 4.206,3.302 0.084,0.042 0.16,0.101 0.222,0.173 0.061,0.071 0.108,0.155 0.138,0.245 0.029,0.09 0.04,0.185 0.032,0.279 -0.007,0.094 -0.033,0.186 -0.077,0.27 C 0.728,-0.235 0.61,-0.12 0.465,-0.051 0.32,0.018 0.156,0.036 0,0"
           style="fill:#000000;fill-opacity:1;fill-rule:evenodd;stroke:none"
           id="path3058" /></g><g
         id="g3060"
         transform="translate(990.1053,3401.9558)"><path
           d="M 0,0 C 0.084,0.043 0.159,0.102 0.221,0.173 0.282,0.245 0.329,0.329 0.358,0.418 0.387,0.508 0.399,0.603 0.391,0.697 0.384,0.791 0.358,0.883 0.315,0.967 0.273,1.052 0.214,1.126 0.142,1.188 0.07,1.25 -0.013,1.296 -0.103,1.325 -0.193,1.354 -0.287,1.366 -0.382,1.359 -0.476,1.351 -0.568,1.325 -0.652,1.283 -2.231,0.698 -3.763,-0.005 -5.236,-0.82 c -0.399,-0.24 -0.785,-0.5 -1.157,-0.778 -0.073,0.107 -0.157,0.206 -0.252,0.294 -0.974,0.984 -2.053,1.859 -3.218,2.608 -0.134,0.133 -0.315,0.208 -0.505,0.208 -0.189,0 -0.37,-0.075 -0.504,-0.208 -0.069,-0.065 -0.124,-0.143 -0.161,-0.23 -0.038,-0.087 -0.057,-0.18 -0.057,-0.275 0,-0.094 0.019,-0.188 0.057,-0.275 0.037,-0.087 0.092,-0.165 0.161,-0.23 0.799,-1.009 1.43,-2.103 2.103,-3.175 l 0.21,-0.295 -0.21,-0.168 c -1.124,-1.169 -2.151,-2.428 -3.071,-3.764 -0.078,-0.075 -0.14,-0.165 -0.183,-0.264 -0.042,-0.099 -0.064,-0.206 -0.064,-0.315 0,-0.108 0.022,-0.215 0.064,-0.314 0.043,-0.099 0.105,-0.189 0.183,-0.264 0.154,-0.153 0.362,-0.238 0.578,-0.238 0.217,0 0.425,0.085 0.579,0.238 0.673,0.631 1.346,1.199 2.103,1.766 0.757,0.569 1.135,0.842 1.703,1.262 l 0.19,-0.252 c 0.841,-1.03 1.724,-2.103 2.523,-3.007 0.117,-0.179 0.298,-0.305 0.506,-0.352 0.208,-0.048 0.427,-0.012 0.609,0.099 0.178,0.117 0.305,0.297 0.356,0.504 0.051,0.207 0.021,0.425 -0.083,0.611 -0.568,1.199 -1.115,2.418 -1.788,3.617 0,0 -0.147,0.21 -0.21,0.337 l 0.484,0.357 C -2.902,-2.208 -1.556,-1.052 0,0"
           style="fill:#000000;fill-opacity:1;fill-rule:evenodd;stroke:none"
           id="path3062" /></g><g
         id="g3064"
         transform="translate(973.3446,3413.438)"><path
           d="M 0,0 C -0.099,0.041 -0.206,0.061 -0.313,0.059 -0.42,0.058 -0.526,0.035 -0.624,-0.008 c -0.098,-0.044 -0.186,-0.106 -0.26,-0.184 -0.073,-0.078 -0.13,-0.17 -0.168,-0.271 -0.074,-0.203 -0.065,-0.428 0.025,-0.625 0.091,-0.197 0.256,-0.35 0.459,-0.426 -1.689,-3.915 -3.896,-7.586 -6.561,-10.914 -1.607,-2.01 -3.457,-3.812 -5.51,-5.363 -1.348,-1.031 -2.809,-1.906 -4.353,-2.608 -1.114,-0.504 -2.277,-0.892 -3.47,-1.157 -0.673,-0.168 -1.346,-0.189 -2.103,-0.294 2.154,1.333 4.144,2.914 5.93,4.711 1.553,1.596 2.961,3.327 4.206,5.173 0.813,1.216 1.564,2.473 2.25,3.764 0.951,1.687 1.753,3.453 2.398,5.279 0.445,1.255 0.721,2.563 0.82,3.891 0.007,0.144 -0.027,0.288 -0.098,0.414 -0.071,0.126 -0.175,0.23 -0.302,0.301 0.007,0.094 -0.008,0.189 -0.045,0.277 -0.037,0.087 -0.093,0.165 -0.165,0.227 -1.135,0.61 -2.271,1.22 -3.449,1.767 -0.673,0.336 -1.346,0.631 -2.103,0.904 1.073,0.631 2.313,1.262 2.545,1.409 2.103,1.451 4.395,2.902 6.498,4.458 2.103,1.557 4.206,3.239 6.162,4.984 0.102,0.106 0.174,0.237 0.21,0.379 -0.018,-0.09 -0.018,-0.183 0,-0.273 C 2.986,12.471 3.365,9.106 3.933,5.741 4.185,4.29 4.521,2.86 4.858,1.43 l 0.946,-3.196 z m 5.804,-9.001 c 0.292,0.099 0.543,0.292 0.715,0.547 0.19,0.231 0.463,0.883 0.547,0.988 0.084,0.106 0.315,0.673 0.442,1.031 0.242,0.689 0.446,1.391 0.609,2.103 l 0.295,0.463 c 0.211,0.771 0.211,1.584 0,2.355 C 8.16,-0.168 7.529,1.514 7.402,2.145 7.024,3.533 6.75,4.963 6.393,6.351 6.162,7.298 5.909,8.223 5.636,9.169 5.005,11.546 4.332,13.88 3.533,16.214 3.483,16.4 3.363,16.559 3.198,16.657 3.033,16.755 2.836,16.785 2.65,16.74 2.482,16.678 2.336,16.568 2.229,16.425 c 0.008,0.083 0,0.167 -0.025,0.246 -0.026,0.08 -0.067,0.153 -0.122,0.216 C 2.02,16.973 1.941,17.045 1.85,17.098 1.759,17.152 1.658,17.185 1.553,17.197 1.448,17.209 1.341,17.199 1.241,17.167 1.14,17.135 1.047,17.083 0.967,17.013 -0.295,16.109 -1.577,15.226 -2.881,14.385 -4.69,13.186 -6.603,12.092 -8.454,10.957 -9.695,10.2 -10.915,9.379 -12.155,8.622 c -1.366,-0.847 -2.686,-1.767 -3.954,-2.755 -0.219,-0.175 -0.392,-0.4 -0.506,-0.656 -0.113,-0.256 -0.163,-0.536 -0.146,-0.816 l -1.136,-2.418 c -0.179,-0.392 -0.32,-0.8 -0.42,-1.22 -0.061,-0.214 -0.072,-0.439 -0.032,-0.658 0.041,-0.218 0.13,-0.425 0.263,-0.604 0.494,-0.489 1.08,-0.875 1.725,-1.135 1.233,-0.382 2.501,-0.642 3.785,-0.778 0.113,-0.043 0.234,-0.059 0.355,-0.047 0.12,0.011 0.236,0.05 0.339,0.112 0.104,0.063 0.191,0.149 0.257,0.25 0.065,0.102 0.107,0.217 0.122,0.337 0.06,0.203 0.038,0.422 -0.06,0.61 -0.098,0.188 -0.265,0.332 -0.466,0.399 -0.631,0.252 -1.451,0.652 -2.292,1.072 -1.41,0.674 -1.115,0.253 -0.842,2.903 l 0.947,-0.19 c 0.799,-0.21 1.598,-0.441 2.397,-0.715 0.799,-0.273 2.103,-0.799 3.26,-1.219 -0.179,-1.134 -0.512,-2.238 -0.989,-3.281 -0.755,-1.654 -1.656,-3.238 -2.692,-4.732 -1.072,-1.724 -2.313,-3.427 -3.596,-5.152 -1.23,-1.689 -2.55,-3.311 -3.953,-4.858 -1.839,-2.089 -3.963,-3.908 -6.309,-5.405 -0.173,-0.021 -0.332,-0.106 -0.445,-0.238 -0.113,-0.133 -0.172,-0.303 -0.165,-0.477 0,-0.095 0.019,-0.188 0.056,-0.275 0.038,-0.088 0.093,-0.166 0.162,-0.231 0.069,-0.065 0.15,-0.115 0.239,-0.148 0.09,-0.032 0.184,-0.046 0.279,-0.04 1.988,-0.048 3.977,0.051 5.951,0.295 1.371,0.13 2.725,0.405 4.038,0.82 1.789,0.636 3.486,1.506 5.047,2.586 1.545,1.094 2.957,2.364 4.206,3.786 3.455,4.151 6.095,8.917 7.781,14.048 L 5.257,-4.038 5.951,-4.29 C 3.281,-7.339 5.678,-6.834 3.028,-5.994 2.933,-5.942 2.829,-5.91 2.721,-5.899 2.613,-5.888 2.505,-5.898 2.401,-5.93 2.297,-5.961 2.201,-6.012 2.117,-6.081 2.034,-6.15 1.964,-6.234 1.914,-6.33 1.822,-6.521 1.805,-6.74 1.867,-6.943 1.93,-7.146 2.066,-7.317 2.25,-7.424 2.902,-7.993 3.606,-8.5 4.353,-8.938 4.814,-9.13 5.328,-9.153 5.804,-9.001"
           style="fill:#000000;fill-opacity:1;fill-rule:evenodd;stroke:none"
           id="path3066" /></g><g
         id="g3068"
         transform="translate(946.2369,3423.8899)"><path
           d="M 0,0 C 0.639,0.696 1.518,1.124 2.46,1.199 3.344,1.199 3.764,0.273 3.848,-0.61 4.185,-3.533 1.956,-3.47 0.61,-2.986 0.085,-2.818 -0.367,-2.477 -0.673,-2.019 -1.073,-1.262 -0.568,-0.568 0,0 M -0.336,-4.563 C 3.87,-5.804 5.972,-3.596 5.972,-0.505 6.039,0.536 5.716,1.564 5.067,2.38 4.418,3.196 3.489,3.742 2.46,3.912 1.45,3.859 0.467,3.568 -0.41,3.064 -1.287,2.56 -2.033,1.856 -2.587,1.01 c -0.417,-0.631 -0.624,-1.378 -0.59,-2.134 0.034,-0.756 0.307,-1.482 0.78,-2.073 0.538,-0.647 1.255,-1.122 2.061,-1.366"
           style="fill:#000000;fill-opacity:1;fill-rule:evenodd;stroke:none"
           id="path3070" /></g><g
         id="g3072"
         transform="translate(943.6501,3406.0776)"><path
           d="M 0,0 C -0.463,0.757 0,1.451 0.61,2.103 1.251,2.8 2.128,3.235 3.07,3.323 3.954,3.323 4.374,2.397 4.458,1.493 4.9,-2.376 0.799,-1.367 0,0 M 6.646,1.514 C 6.714,2.545 6.4,3.566 5.764,4.38 5.127,5.195 4.214,5.747 3.197,5.93 2.164,5.91 1.153,5.637 0.251,5.135 -0.651,4.632 -1.416,3.916 -1.977,3.049 -2.391,2.416 -2.594,1.668 -2.557,0.912 c 0.038,-0.756 0.315,-1.48 0.791,-2.069 0.557,-0.628 1.289,-1.074 2.102,-1.282 4.185,-1.346 6.267,0.862 6.31,3.953"
           style="fill:#000000;fill-opacity:1;fill-rule:evenodd;stroke:none"
           id="path3074" /></g><g
         id="g3076"
         transform="translate(217.579,3419.2236)"
         inkscape:export-filename="picto-ROI-immédiat.svg"
         inkscape:export-xdpi="96"
         inkscape:export-ydpi="96"><path
           d="M 0,0 C 0.874,0.343 1.601,0.98 2.055,1.801 L 2.408,2.232 2.643,1.821 C 3.134,1.081 3.809,0.48 4.6,0.078 4.878,-0.078 5.166,-0.216 5.462,-0.333 5.026,-0.557 4.608,-0.812 4.209,-1.096 3.743,-1.435 3.333,-1.844 2.995,-2.31 2.86,-2.467 2.742,-2.637 2.643,-2.819 2.304,-2.154 1.815,-1.578 1.214,-1.135 0.698,-0.762 0.131,-0.465 -0.47,-0.254 Z m -3.817,-0.196 c 0.355,-0.071 0.715,-0.123 1.076,-0.156 0.017,-0.118 0.069,-0.228 0.15,-0.315 0.08,-0.087 0.185,-0.148 0.301,-0.175 0.81,-0.185 1.584,-0.502 2.29,-0.939 0.655,-0.403 1.152,-1.018 1.409,-1.743 0.076,-0.221 0.122,-0.451 0.138,-0.685 v -2.173 c -0.006,-0.206 0.058,-0.407 0.183,-0.571 0.125,-0.164 0.302,-0.28 0.502,-0.329 0.117,-0.029 0.239,-0.033 0.358,-0.013 0.119,0.021 0.232,0.065 0.333,0.131 0.101,0.067 0.187,0.153 0.253,0.253 0.067,0.101 0.112,0.214 0.132,0.333 v 1.136 c 0.12,0.393 0.277,0.773 0.47,1.135 0.162,0.346 0.359,0.674 0.587,0.979 0.336,0.389 0.733,0.719 1.175,0.979 0.486,0.292 0.989,0.553 1.507,0.783 0.294,0.137 0.999,0.313 1.41,0.548 0.257,0.119 0.479,0.3 0.646,0.529 0.156,0.19 0.231,0.434 0.209,0.679 C 9.29,0.436 9.173,0.663 8.985,0.822 8.795,1.007 8.545,1.118 8.281,1.135 7.974,1.115 7.667,1.115 7.361,1.135 L 6.323,1.409 C 5.991,1.525 5.67,1.669 5.364,1.84 4.683,2.115 4.122,2.621 3.778,3.269 3.435,4.05 3.198,4.873 3.073,5.716 3.026,5.946 2.902,6.153 2.721,6.303 2.506,6.441 1.566,6.715 1.429,5.736 V 4.522 C 1.395,4.157 1.323,3.796 1.214,3.446 1.135,3.1 1.016,2.765 0.861,2.447 0.683,2.078 0.429,1.751 0.115,1.488 -0.199,1.225 -0.565,1.031 -0.959,0.92 -1.847,0.687 -2.774,0.641 -3.68,0.783 -3.745,0.792 -3.81,0.788 -3.873,0.772 -3.936,0.756 -3.995,0.727 -4.046,0.688 -4.098,0.649 -4.142,0.6 -4.175,0.544 -4.208,0.488 -4.229,0.427 -4.238,0.362 -4.247,0.298 -4.243,0.232 -4.227,0.17 c 0.016,-0.063 0.045,-0.122 0.084,-0.174 0.039,-0.052 0.088,-0.095 0.144,-0.128 0.056,-0.033 0.117,-0.055 0.182,-0.064"
           style="fill:#000000;fill-opacity:1;fill-rule:evenodd;stroke:none"
           id="path3078" /></g><g
         id="g3080"
         transform="translate(239.9547,3394.1467)"><path
           d="M 0,0 H -1.801 C -2.388,0 -2.995,0 -3.583,0.117 -4.76,0.227 -5.919,0.49 -7.028,0.9 v 4.17 c 0.951,-0.537 1.972,-0.939 3.034,-1.194 0.645,-0.133 1.3,-0.212 1.958,-0.235 0.656,-0.012 1.312,0.041 1.958,0.157 1.302,0.227 2.562,0.649 3.739,1.253 V 4.072 c 0,-1.136 0,-2.232 0.098,-3.211 C 2.554,0.398 1.287,0.115 0,0.019 Z m -6.03,14.682 c 0.332,-0.138 0.672,-0.255 1.018,-0.352 0.355,-0.097 0.714,-0.176 1.077,-0.235 1.661,-0.254 3.351,-0.254 5.012,0 1.138,0.172 2.219,0.615 3.151,1.292 0,-1.097 -0.156,-2.369 -0.215,-3.779 C 2.724,11.135 1.371,10.858 0,10.786 h -1.801 c -0.587,0 -1.194,0 -1.782,0.118 -1.128,0.117 -2.238,0.367 -3.308,0.744 v 3.445 z M -6.891,6.519 v 3.269 c -0.01,0.169 -0.01,0.339 0,0.509 0.94,-0.522 1.948,-0.911 2.995,-1.155 0.642,-0.151 1.299,-0.229 1.958,-0.235 0.656,-0.012 1.312,0.041 1.958,0.157 1.309,0.224 2.576,0.646 3.758,1.252 V 6.343 C 2.518,5.892 1.199,5.628 -0.137,5.559 h -1.801 c -0.587,0 -1.194,0 -1.782,0.118 -1.128,0.101 -2.24,0.345 -3.308,0.724 z m 12.666,3.915 c 0,3.211 -0.313,6.049 -0.392,7.439 C 5.378,17.947 5.356,18.019 5.319,18.084 5.281,18.148 5.23,18.203 5.168,18.245 5.08,18.629 4.899,18.985 4.64,19.282 4.279,19.65 3.854,19.948 3.387,20.163 2.766,20.457 2.107,20.662 1.429,20.77 1.355,20.784 1.28,20.783 1.207,20.767 1.134,20.75 1.065,20.719 1.004,20.675 0.944,20.631 0.893,20.575 0.855,20.51 0.817,20.446 0.792,20.375 0.783,20.3 0.769,20.228 0.77,20.154 0.785,20.082 0.8,20.01 0.829,19.942 0.871,19.882 0.913,19.822 0.967,19.771 1.029,19.731 1.091,19.692 1.161,19.666 1.233,19.654 1.714,19.556 2.181,19.399 2.623,19.185 3.036,19.007 3.404,18.74 3.7,18.401 3.794,18.273 3.859,18.127 3.893,17.972 3.927,17.817 3.928,17.656 3.896,17.501 3.885,17.355 3.842,17.212 3.771,17.084 3.701,16.956 3.602,16.844 3.485,16.757 2.695,16.275 1.803,15.987 0.881,15.915 c -1.474,-0.209 -2.97,-0.209 -4.444,0 -0.285,0.038 -0.566,0.097 -0.842,0.177 -0.28,0.08 -0.554,0.178 -0.822,0.293 l -1.037,0.568 c -0.15,0.086 -0.281,0.202 -0.385,0.34 -0.104,0.137 -0.18,0.295 -0.222,0.462 0.014,0.206 0.076,0.405 0.182,0.582 0.105,0.177 0.251,0.326 0.425,0.436 0.737,0.57 1.583,0.983 2.486,1.214 0.906,0.273 1.861,0.347 2.799,0.215 0.063,-0.012 0.128,-0.013 0.191,-0.001 0.063,0.013 0.123,0.037 0.177,0.073 0.053,0.035 0.1,0.081 0.136,0.134 0.036,0.053 0.061,0.113 0.074,0.176 0.012,0.063 0.013,0.128 0.001,0.191 -0.013,0.063 -0.037,0.123 -0.073,0.177 -0.035,0.054 -0.081,0.1 -0.134,0.136 -0.053,0.036 -0.113,0.061 -0.176,0.074 -1.076,0.245 -2.193,0.245 -3.269,0 -1.097,-0.19 -2.147,-0.589 -3.093,-1.175 -0.395,-0.229 -0.729,-0.55 -0.974,-0.935 -0.245,-0.385 -0.395,-0.823 -0.436,-1.277 -0.032,-0.667 0.184,-1.323 0.607,-1.84 -0.255,-1.723 -0.489,-3.915 -0.607,-6.245 0,-1.077 0,-2.173 -0.117,-3.289 -0.118,-1.116 0,-2.212 0,-3.289 0,-1.076 0,-1.957 0.137,-2.975 -0.1,0.066 -0.205,0.125 -0.314,0.176 -0.62,0.294 -1.279,0.498 -1.957,0.607 -0.143,0.015 -0.287,-0.024 -0.402,-0.111 -0.115,-0.087 -0.193,-0.214 -0.218,-0.356 -0.025,-0.141 0.005,-0.287 0.084,-0.408 0.079,-0.12 0.2,-0.207 0.34,-0.241 0.481,-0.098 0.948,-0.256 1.39,-0.47 0.416,-0.182 0.789,-0.449 1.096,-0.783 0.08,-0.117 0.134,-0.251 0.157,-0.391 v -0.118 c 0,-0.293 -0.137,-0.587 -0.196,-0.9 L -8.77,-3.093 c -0.782,-0.483 -1.668,-0.772 -2.584,-0.842 -1.481,-0.21 -2.983,-0.21 -4.464,0 -0.293,0 -0.567,0.117 -0.841,0.176 -0.275,0.078 -0.543,0.176 -0.803,0.294 l -1.057,0.489 c -0.174,0.09 -0.324,0.221 -0.436,0.381 -0.113,0.16 -0.185,0.345 -0.21,0.539 0.015,0.208 0.078,0.409 0.183,0.589 0.106,0.18 0.25,0.333 0.424,0.449 0.751,0.558 1.601,0.97 2.505,1.214 0.903,0.257 1.85,0.324 2.78,0.195 0.063,-0.014 0.128,-0.016 0.192,-0.005 0.064,0.011 0.125,0.034 0.179,0.069 0.055,0.035 0.102,0.08 0.139,0.133 0.037,0.052 0.064,0.112 0.078,0.175 0.029,0.13 0.007,0.266 -0.063,0.38 -0.069,0.113 -0.18,0.195 -0.309,0.227 -1.085,0.226 -2.205,0.226 -3.289,0 -1.096,-0.205 -2.144,-0.61 -3.093,-1.194 -0.395,-0.229 -0.729,-0.55 -0.974,-0.935 -0.245,-0.385 -0.394,-0.823 -0.436,-1.277 -0.013,-0.375 0.054,-0.749 0.196,-1.096 0,-0.314 -0.117,-0.607 -0.157,-0.92 -0.019,-0.287 -0.019,-0.575 0,-0.862 -0.021,-0.293 -0.021,-0.587 0,-0.881 0.07,-0.517 0.181,-1.028 0.333,-1.527 -0.089,-0.091 -0.14,-0.214 -0.14,-0.342 0,-0.128 0.051,-0.251 0.14,-0.343 0.466,-0.414 0.987,-0.763 1.547,-1.037 0.539,-0.259 1.095,-0.481 1.664,-0.666 0.64,-0.186 1.295,-0.317 1.957,-0.392 0.651,-0.063 1.307,-0.063 1.958,0 1.373,0.164 2.702,0.59 3.915,1.253 0.07,0.028 0.133,0.07 0.186,0.123 0.053,0.053 0.095,0.116 0.122,0.186 0.028,0.069 0.041,0.144 0.038,0.219 -0.002,0.075 -0.02,0.149 -0.052,0.216 -0.028,0.07 -0.069,0.133 -0.123,0.186 -0.052,0.053 -0.116,0.095 -0.186,0.122 -0.069,0.028 -0.144,0.041 -0.219,0.038 -0.075,-0.002 -0.148,-0.02 -0.216,-0.052 -0.9,-0.294 -1.835,-0.465 -2.78,-0.509 -0.704,-0.049 -1.41,-0.049 -2.114,0 -0.708,0.027 -1.414,0.092 -2.114,0.196 -0.629,0.052 -1.252,0.163 -1.86,0.332 l -0.509,0.216 c 0,0.607 0.117,1.194 0.157,1.801 v 0.783 l 0.743,-0.333 c 0.329,-0.153 0.669,-0.277 1.018,-0.372 l 1.077,-0.235 c 1.667,-0.263 3.364,-0.263 5.031,0 0.839,0.143 1.651,0.413 2.408,0.803 -0.01,-0.098 -0.01,-0.196 0,-0.294 0.117,-0.646 0.274,-1.272 0.411,-1.957 0.005,-0.075 0.025,-0.148 0.058,-0.215 0.033,-0.067 0.079,-0.127 0.136,-0.176 0.056,-0.049 0.122,-0.086 0.193,-0.11 0.071,-0.024 0.145,-0.033 0.22,-0.028 0.074,0.003 0.146,0.02 0.213,0.051 0.067,0.031 0.127,0.075 0.176,0.13 0.05,0.055 0.087,0.119 0.111,0.189 0.024,0.07 0.034,0.144 0.029,0.217 0,0.509 0.117,0.979 0.195,1.468 0.987,-0.577 2.057,-1 3.172,-1.252 0.642,-0.151 1.298,-0.23 1.957,-0.235 0.656,-0.012 1.312,0.04 1.958,0.156 1.57,0.258 3.078,0.809 4.444,1.625 0.066,0.031 0.125,0.076 0.174,0.131 0.049,0.054 0.087,0.118 0.11,0.187 0.024,0.07 0.033,0.143 0.028,0.216 -0.005,0.073 -0.025,0.145 -0.058,0.21 C 4.667,-4.747 4.622,-4.685 4.566,-4.635 4.51,-4.584 4.444,-4.546 4.372,-4.522 4.3,-4.498 4.225,-4.489 4.149,-4.496 4.074,-4.503 4.001,-4.525 3.935,-4.562 2.61,-5.058 1.217,-5.348 -0.196,-5.423 h -1.801 c -0.587,0 -1.194,0 -1.781,0.137 -1.151,0.099 -2.283,0.349 -3.367,0.744 v 0.783 c -0.136,0.968 -0.136,1.949 0,2.917 0.997,-0.575 2.071,-1.004 3.191,-1.273 1.344,-0.26 2.727,-0.26 4.071,0 1.366,0.24 2.687,0.689 3.916,1.332 0,-1.234 0,-2.252 0.097,-2.917 -0.015,-0.082 -0.012,-0.166 0.009,-0.247 0.021,-0.081 0.059,-0.156 0.113,-0.22 0.053,-0.065 0.119,-0.116 0.195,-0.152 0.076,-0.035 0.158,-0.054 0.241,-0.054 0.084,0 0.166,0.019 0.242,0.054 0.075,0.036 0.142,0.087 0.195,0.152 0.054,0.064 0.092,0.139 0.113,0.22 0.021,0.081 0.024,0.165 0.008,0.247 0.098,1.37 0.294,4.209 0.431,7.419 V 6.91 c 0,1.077 0.137,2.486 0.098,3.524"
           style="fill:#000000;fill-opacity:1;fill-rule:evenodd;stroke:none"
           id="path3082" /></g><g
         id="g3084"
         transform="translate(218.7144,3398.1206)"><path
           d="m 0,0 h -1.801 c -0.607,0 -1.175,0 -1.781,0.137 -1.149,0.108 -2.28,0.358 -3.368,0.744 v 3.993 l 0.235,-0.137 c 0.273,-0.146 0.554,-0.277 0.842,-0.391 0.33,-0.148 0.671,-0.272 1.018,-0.372 0.348,-0.097 0.701,-0.175 1.057,-0.235 1.668,-0.253 3.364,-0.253 5.031,0 0.972,0.144 1.905,0.483 2.741,0.998 V 2.427 C 3.974,2.055 4.15,1.292 4.209,0.842 2.863,0.326 1.44,0.041 0,0 m 4.835,-0.783 c 0.074,-0.008 0.148,-0.001 0.219,0.02 0.071,0.022 0.137,0.057 0.193,0.105 0.057,0.047 0.104,0.106 0.137,0.172 0.034,0.066 0.053,0.138 0.058,0.212 0.174,0.924 0.278,1.86 0.313,2.799 V 3.7 C 5.737,4.087 5.697,4.472 5.638,4.855 5.521,5.697 5.364,6.401 5.246,6.812 5.285,7.163 5.251,7.518 5.147,7.854 5.043,8.191 4.87,8.503 4.64,8.77 4.278,9.145 3.846,9.445 3.367,9.651 2.752,9.958 2.091,10.163 1.409,10.258 1.337,10.272 1.263,10.271 1.191,10.256 1.119,10.241 1.051,10.212 0.991,10.169 0.931,10.127 0.88,10.074 0.841,10.012 0.801,9.949 0.775,9.88 0.763,9.808 0.749,9.734 0.75,9.659 0.765,9.586 0.78,9.513 0.809,9.443 0.851,9.381 0.892,9.32 0.946,9.267 1.008,9.226 1.071,9.185 1.14,9.156 1.214,9.142 1.698,9.057 2.167,8.898 2.604,8.672 3.025,8.5 3.401,8.232 3.7,7.889 3.79,7.763 3.854,7.62 3.887,7.469 3.921,7.317 3.924,7.161 3.896,7.008 3.88,6.858 3.834,6.713 3.76,6.582 3.686,6.45 3.585,6.335 3.465,6.245 2.679,5.771 1.795,5.482 0.881,5.403 c -1.48,-0.21 -2.983,-0.21 -4.463,0 -0.309,0.08 -0.61,0.185 -0.901,0.313 -0.274,0.071 -0.542,0.163 -0.803,0.274 l -1.057,0.489 c -0.172,0.09 -0.319,0.221 -0.429,0.382 -0.109,0.16 -0.177,0.346 -0.197,0.539 0.013,0.206 0.073,0.406 0.175,0.586 0.101,0.179 0.242,0.334 0.412,0.451 0.756,0.548 1.605,0.952 2.506,1.194 0.901,0.267 1.85,0.334 2.78,0.196 0.065,-0.014 0.133,-0.015 0.199,-0.004 0.066,0.012 0.129,0.037 0.186,0.073 0.056,0.037 0.105,0.084 0.143,0.14 0.038,0.055 0.065,0.117 0.079,0.183 0.018,0.129 -0.012,0.26 -0.084,0.368 -0.072,0.109 -0.182,0.186 -0.308,0.219 -1.078,0.226 -2.191,0.226 -3.269,0 C -5.245,10.61 -6.294,10.212 -7.243,9.631 -7.643,9.409 -7.981,9.09 -8.227,8.703 -8.474,8.317 -8.62,7.876 -8.653,7.419 -8.679,7.066 -8.626,6.711 -8.496,6.382 -8.65,5.422 -8.754,4.455 -8.809,3.484 V 1.527 c 0,-0.705 0,-1.273 0.117,-1.958 0.118,-1.448 0.313,-2.76 0.47,-3.778 -0.062,-0.114 -0.081,-0.246 -0.052,-0.372 0.029,-0.127 0.103,-0.238 0.209,-0.313 l 0.156,-0.118 c 0.042,-0.061 0.095,-0.114 0.157,-0.156 0.431,-0.395 0.904,-0.743 1.409,-1.038 0.273,-0.164 0.571,-0.283 0.881,-0.352 0.298,-0.1 0.607,-0.159 0.92,-0.176 0.71,-0.077 1.425,-0.077 2.134,0 0.082,-0.016 0.167,-0.013 0.247,0.008 0.081,0.021 0.156,0.059 0.221,0.113 0.064,0.053 0.115,0.12 0.151,0.195 0.035,0.076 0.054,0.158 0.054,0.242 0,0.083 -0.019,0.166 -0.054,0.241 -0.036,0.076 -0.087,0.142 -0.151,0.195 -0.065,0.054 -0.14,0.092 -0.221,0.113 -0.08,0.021 -0.165,0.024 -0.247,0.009 -0.724,0.176 -1.311,0.411 -1.957,0.587 l -1.195,0.391 -1.487,0.568 v 3.524 c 0.968,-0.549 2.009,-0.958 3.093,-1.214 0.643,-0.141 1.299,-0.22 1.957,-0.235 0.656,-0.01 1.312,0.042 1.958,0.157 1.454,0.258 2.857,0.754 4.15,1.468 0.015,-0.078 0.047,-0.151 0.093,-0.215 0.046,-0.065 0.106,-0.118 0.175,-0.157 0.068,-0.039 0.145,-0.063 0.224,-0.07 0.079,-0.006 0.158,0.004 0.232,0.031"
           style="fill:#000000;fill-opacity:1;fill-rule:evenodd;stroke:none"
           id="path3086" /></g><g
         id="g3088"
         transform="translate(228.7766,3426.7214)"><path
           d="m 0,0 c 0.803,0 1.547,-0.313 2.349,-0.45 h 0.176 v -0.118 c 0.086,-0.857 0.23,-1.707 0.431,-2.545 0.01,-0.148 0.076,-0.288 0.185,-0.39 0.109,-0.102 0.253,-0.158 0.402,-0.158 0.151,0.015 0.291,0.085 0.392,0.197 0.101,0.113 0.157,0.259 0.156,0.41 0,0.842 0.235,1.644 0.314,2.506 h 0.117 c 0.856,0.076 1.703,0.24 2.525,0.489 0.138,0.041 0.254,0.133 0.327,0.256 0.072,0.124 0.096,0.27 0.065,0.41 C 7.416,0.742 7.347,0.865 7.243,0.954 7.14,1.043 7.008,1.094 6.871,1.096 6.099,1.115 5.328,1.174 4.561,1.272 4.561,2.173 4.444,3.054 4.444,3.954 4.452,4.028 4.445,4.102 4.422,4.172 4.399,4.242 4.361,4.306 4.311,4.36 4.261,4.414 4.199,4.457 4.131,4.485 4.063,4.513 3.989,4.525 3.915,4.522 3.784,4.534 3.653,4.496 3.548,4.417 3.443,4.337 3.371,4.221 3.348,4.091 3.069,3.284 2.84,2.46 2.662,1.625 V 1.37 C 1.767,1.315 0.876,1.191 0,0.998 -0.065,0.999 -0.13,0.985 -0.189,0.959 -0.249,0.933 -0.303,0.895 -0.347,0.847 -0.391,0.799 -0.425,0.743 -0.446,0.681 -0.467,0.62 -0.475,0.554 -0.47,0.489 -0.465,0.364 -0.415,0.245 -0.328,0.155 -0.242,0.065 -0.125,0.01 0,0"
           style="fill:#000000;fill-opacity:1;fill-rule:evenodd;stroke:none"
           id="path3090" /></g><g
         id="g3092"
         transform="translate(250.6126,3653.1904)"><path
           d="m 0,0 c -0.113,1.257 0.131,2.946 0,4.409 -0.038,0.746 -0.216,1.478 -0.525,2.157 -0.245,0.485 -0.649,0.869 -1.145,1.089 -0.701,0.275 -1.431,0.47 -2.176,0.581 -1.189,0.217 -2.394,0.33 -3.602,0.338 -1.776,-0.011 -3.55,-0.136 -5.31,-0.375 -3.996,-0.469 -2.608,-1.051 -2.608,3.508 l -0.244,5.76 c -0.001,0.911 -0.076,1.821 -0.225,2.72 -0.153,0.744 -0.566,1.408 -1.163,1.876 -0.416,0.319 -0.896,0.543 -1.407,0.657 -0.638,0.169 -1.332,0.225 -1.876,0.338 -0.496,0.082 -0.998,0.125 -1.501,0.131 h -1.482 c -1.293,-0.144 -2.558,-0.479 -3.753,-0.994 -0.859,-0.323 -1.63,-0.843 -2.251,-1.52 -0.234,-0.28 -0.389,-0.616 -0.45,-0.976 -0.058,-0.624 -0.058,-1.251 0,-1.876 l 0.45,-9.005 c 0.024,-0.134 0.095,-0.255 0.2,-0.343 0.104,-0.087 0.236,-0.135 0.372,-0.135 0.136,0 0.268,0.048 0.373,0.135 0.105,0.088 0.175,0.209 0.2,0.343 l -0.319,9.005 v 1.445 c 0.001,0.203 0.067,0.4 0.187,0.563 0.495,0.495 1.099,0.867 1.764,1.088 1.452,0.611 3.022,0.893 4.596,0.825 1.351,-0.047 2.681,-0.346 3.921,-0.881 0.311,-0.275 0.522,-0.644 0.601,-1.051 0.1,-0.822 0.144,-1.649 0.131,-2.477 l 0.15,-5.628 c -0.145,-1.246 -0.226,-2.498 -0.244,-3.752 -0.017,-0.53 0.141,-1.052 0.451,-1.482 0.349,-0.307 0.792,-0.486 1.257,-0.507 1.026,0.018 2.05,0.125 3.058,0.319 1.519,0.281 2.87,0.281 4.221,0.281 1.379,0.019 2.756,-0.107 4.109,-0.375 2.495,-0.469 2.157,-1.688 2.176,-1.97 0.094,-1.501 -0.169,-3.208 0,-4.465 0,-0.769 0.188,-1.726 0.188,-2.627 0.006,-0.478 -0.07,-0.954 -0.225,-1.407 0,-0.243 -0.413,-0.262 -0.676,-0.319 -0.6,-0.15 -1.238,-0.187 -1.707,-0.281 -0.919,-0.15 -1.876,-0.281 -2.927,-0.357 -1.538,-0.112 -3.114,-0.15 -4.521,-0.15 -0.582,0 -1.482,0.169 -2.27,0.207 -0.457,0.018 -0.913,-0.039 -1.351,-0.169 -0.236,-0.073 -0.446,-0.21 -0.609,-0.395 -0.162,-0.186 -0.27,-0.413 -0.311,-0.656 -0.062,-0.536 -0.062,-1.077 0,-1.613 0,-1.37 0.132,-2.758 0.15,-4.146 v -1.652 c -0.048,-1.224 -0.204,-2.442 -0.469,-3.639 -0.117,-0.659 -0.409,-1.274 -0.844,-1.782 -0.15,-0.151 -0.45,0 -0.713,0 -0.262,0 -0.769,0.093 -1.05,0.112 -1.425,0.084 -2.853,0.084 -4.278,0 -0.564,-0.004 -1.128,0.028 -1.689,0.094 -1.106,0.131 -1.632,1.163 -2.007,2.364 -0.478,2.102 -0.766,4.243 -0.863,6.397 0.054,0.856 0.054,1.715 0,2.571 -0.049,0.292 -0.156,0.572 -0.314,0.823 -0.157,0.251 -0.363,0.469 -0.605,0.64 -0.432,0.266 -0.909,0.45 -1.407,0.544 -0.989,0.21 -1.993,0.341 -3.002,0.394 -1.145,0.113 -2.346,0.282 -3.527,0.469 -1.182,0.188 -2.383,0.45 -3.509,0.713 l -2.551,0.544 c -0.052,0.374 -0.083,0.749 -0.094,1.126 0,1.051 0.169,2.232 0.169,2.664 -0.066,1.102 -0.022,2.209 0.131,3.302 0.045,0.623 0.289,1.214 0.694,1.689 0.249,0.233 0.552,0.401 0.882,0.487 0.638,0.169 1.351,0.188 1.989,0.301 1.402,0.228 2.819,0.347 4.24,0.356 1.427,-0.03 2.85,-0.162 4.259,-0.394 0.083,-0.013 0.169,-0.01 0.252,0.009 0.082,0.02 0.16,0.055 0.229,0.105 0.069,0.05 0.127,0.112 0.172,0.184 0.044,0.073 0.074,0.153 0.088,0.237 0.013,0.083 0.01,0.169 -0.009,0.252 -0.02,0.082 -0.056,0.16 -0.105,0.229 -0.05,0.069 -0.113,0.127 -0.185,0.172 -0.072,0.044 -0.152,0.074 -0.236,0.088 -1.474,0.269 -2.967,0.42 -4.465,0.45 -1.502,0.033 -3.003,-0.074 -4.484,-0.319 -0.719,-0.055 -1.433,-0.155 -2.139,-0.3 -0.581,-0.133 -1.114,-0.425 -1.539,-0.844 -0.615,-0.679 -1.008,-1.531 -1.125,-2.439 -0.169,-1.181 -0.232,-2.373 -0.188,-3.565 -0.131,-1.196 -0.2,-2.399 -0.206,-3.602 0.01,-0.48 0.182,-0.943 0.488,-1.313 0.248,-0.225 0.543,-0.391 0.863,-0.488 0.769,-0.244 1.988,-0.394 2.495,-0.526 1.144,-0.281 2.364,-0.562 3.602,-0.787 1.238,-0.226 2.458,-0.413 3.659,-0.526 0.6,0 1.482,-0.131 2.288,-0.281 0.403,-0.048 0.792,-0.175 1.145,-0.376 0.169,-0.112 0.15,-0.356 0.188,-0.581 v -2.158 c 0.017,-2.689 0.447,-5.359 1.275,-7.917 0.246,-0.685 0.672,-1.29 1.233,-1.753 0.562,-0.462 1.238,-0.764 1.957,-0.874 0.622,-0.084 1.248,-0.128 1.876,-0.131 1.362,0.072 2.727,0.072 4.09,0 0.699,-0.124 1.411,-0.168 2.12,-0.131 0.506,0.053 0.98,0.27 1.351,0.619 0.686,0.759 1.165,1.683 1.388,2.683 0.307,1.312 0.489,2.65 0.544,3.996 0.039,0.625 0.039,1.251 0,1.876 0,1.37 -0.131,2.758 -0.131,4.109 v 0.656 c 0.788,0 1.726,-0.206 2.326,-0.206 1.464,0 3.096,0 4.691,0.169 1.088,0.094 2.157,0.206 3.152,0.394 0.925,0.08 1.834,0.288 2.701,0.619 0.58,0.252 1.043,0.715 1.295,1.295 0.274,0.699 0.42,1.443 0.431,2.195 C 0.206,-1.857 0.075,-0.825 0,0"
           style="fill:#000000;fill-opacity:1;fill-rule:evenodd;stroke:none"
           id="path3094" /></g><g
         id="g3096"
         transform="translate(611.7212,3389.0913)"
         inkscape:export-filename="picto-stabilite.svg"
         inkscape:export-xdpi="96"
         inkscape:export-ydpi="96"><path
           d="m 0,0 c -7.246,0.58 -13.967,-0.344 -21.014,-0.344 -1.685,0 -3.424,0 -5.163,0.199 -0.997,0 -3.497,0 -5.652,0.29 -1.214,0.163 -2.355,0.326 -2.754,0.924 -0.159,0.44 -0.202,0.914 -0.127,1.377 0,1.159 0.163,2.463 0.163,2.989 0,3.786 -0.09,8.786 0,13.315 0,2.029 0,3.967 0.145,5.67 0,1.033 0.109,2.065 0.127,3.116 0.127,4.112 0,8.224 0.217,12.337 0.006,0.073 -0.005,0.147 -0.03,0.216 -0.025,0.07 -0.065,0.133 -0.116,0.186 -0.051,0.053 -0.113,0.094 -0.182,0.122 -0.068,0.027 -0.141,0.04 -0.215,0.037 -0.133,0.001 -0.262,-0.05 -0.359,-0.141 -0.098,-0.09 -0.157,-0.215 -0.166,-0.348 -0.29,-3.623 -0.363,-7.246 -0.544,-10.869 -0.072,-1.486 -0.181,-3.025 -0.308,-4.475 -0.205,-2.574 -0.344,-5.154 -0.417,-7.735 -0.108,-3.986 -0.108,-8.152 -0.126,-11.431 0,-0.616 -0.2,-2.229 -0.182,-3.497 -0.011,-0.687 0.151,-1.366 0.471,-1.974 0.819,-0.904 1.94,-1.478 3.153,-1.613 2.242,-0.267 4.499,-0.382 6.757,-0.344 1.811,-0.109 3.623,-0.127 5.326,0 7.029,0.163 13.641,1.268 20.924,0.888 0.151,-0.001 0.298,0.054 0.411,0.154 0.114,0.1 0.187,0.239 0.204,0.389 C 0.535,-0.418 0.476,-0.283 0.376,-0.18 0.277,-0.077 0.143,-0.013 0,0"
           style="fill:#000000;fill-opacity:1;fill-rule:evenodd;stroke:none"
           id="path3098" /></g><g
         id="g3100"
         transform="translate(585.7613,3416.1563)"><path
           d="m 0,0 c -0.094,-0.041 -0.175,-0.106 -0.236,-0.189 -0.06,-0.083 -0.098,-0.18 -0.108,-0.282 H -0.58 c -0.204,-0.027 -0.411,-0.027 -0.616,0 -0.224,0.015 -0.436,0.109 -0.598,0.265 -0.162,0.155 -0.264,0.363 -0.289,0.586 0.007,0.272 0.075,0.538 0.199,0.779 0.178,0.436 0.497,0.8 0.906,1.033 C -0.254,2.609 0.417,1.975 0.598,1.304 0.549,1.229 0.524,1.141 0.524,1.051 0.524,0.961 0.549,0.873 0.598,0.797 0.575,0.624 0.508,0.46 0.404,0.32 0.299,0.18 0.16,0.07 0,0 M 1.938,2.427 C 1.807,2.792 1.6,3.125 1.332,3.404 1.064,3.684 0.74,3.904 0.382,4.051 0.024,4.198 -0.362,4.268 -0.749,4.256 -1.136,4.245 -1.517,4.153 -1.866,3.985 -2.435,3.669 -2.916,3.214 -3.264,2.663 c -0.348,-0.55 -0.553,-1.18 -0.595,-1.83 -0.038,-0.35 10e-4,-0.705 0.116,-1.038 0.114,-0.334 0.301,-0.638 0.547,-0.89 0.246,-0.253 0.545,-0.449 0.875,-0.572 0.33,-0.124 0.683,-0.173 1.035,-0.145 0.269,0.007 0.536,0.043 0.797,0.109 0.354,0.112 0.7,0.252 1.032,0.417 0.071,0.033 0.133,0.081 0.183,0.14 0.05,0.06 0.086,0.129 0.107,0.204 0.473,0.409 0.826,0.938 1.02,1.531 0.195,0.594 0.224,1.229 0.085,1.838"
           style="fill:#000000;fill-opacity:1;fill-rule:evenodd;stroke:none"
           id="path3102" /></g><g
         id="g3104"
         transform="translate(614.3661,3422.9858)"><path
           d="M 0,0 C -0.096,-0.038 -0.18,-0.102 -0.241,-0.185 -0.302,-0.269 -0.338,-0.368 -0.344,-0.471 H -0.58 c -0.204,-0.035 -0.412,-0.035 -0.616,0 -0.154,0.016 -0.302,0.067 -0.434,0.149 -0.131,0.081 -0.243,0.191 -0.327,0.322 l 0.127,0.145 c 0.108,0.108 0.168,0.255 0.168,0.407 0,0.153 -0.06,0.3 -0.168,0.408 h -0.181 c -0.007,0.06 -0.007,0.121 0,0.181 0.165,0.449 0.487,0.822 0.906,1.051 C -0.38,2.627 0.29,1.957 0.471,1.286 0.542,1.046 0.531,0.789 0.439,0.556 0.347,0.323 0.18,0.127 -0.036,0 Z m -3.116,-1.214 c 0.503,-0.427 1.153,-0.642 1.812,-0.598 0.269,0 0.537,0.036 0.797,0.109 0.352,0.101 0.692,0.241 1.014,0.417 0.073,0.033 0.137,0.081 0.19,0.14 0.053,0.059 0.093,0.129 0.118,0.204 0.581,0.308 1.017,0.833 1.213,1.46 C 2.225,1.145 2.167,1.825 1.866,2.409 1.738,2.775 1.535,3.109 1.27,3.39 1.004,3.672 0.682,3.894 0.325,4.043 -0.032,4.192 -0.417,4.263 -0.804,4.253 -1.191,4.244 -1.571,4.152 -1.92,3.986 -2.491,3.666 -2.972,3.208 -3.32,2.654 -3.669,2.1 -3.872,1.468 -3.913,0.815 c -0.017,-0.174 -0.017,-0.35 0,-0.525 0.092,-0.576 0.372,-1.105 0.797,-1.504"
           style="fill:#000000;fill-opacity:1;fill-rule:evenodd;stroke:none"
           id="path3106" /></g><g
         id="g3108"
         transform="translate(588.4425,3415.5042)"><path
           d="m 0,0 0.235,-0.163 2.138,-1.449 c 0.127,0 0.453,-0.363 0.707,-0.508 0.168,-0.086 0.354,-0.129 0.543,-0.127 0.338,0.035 0.653,0.19 0.888,0.435 0.436,0.483 0.818,1.011 1.141,1.576 0.625,0.84 1.297,1.644 2.011,2.41 1.449,1.54 1.703,1.051 2.917,0.525 l 3.514,-1.612 c 0.435,-0.218 1.014,-0.598 1.576,-0.852 0.304,-0.143 0.628,-0.241 0.96,-0.289 0.135,-0.017 0.272,-0.002 0.401,0.042 0.128,0.044 0.245,0.116 0.342,0.211 0.109,0.109 0.344,0.453 0.38,0.489 l 1.214,1.486 c 0.779,0.942 1.594,1.811 2.428,2.772 0.797,0.887 0.344,1.811 -0.598,1.322 L 20.362,5.869 C 19.438,5 18.55,4.058 17.681,3.188 L 16.413,1.793 16.177,1.92 C 15.743,2.174 15.29,2.5 14.946,2.717 L 13.478,3.478 C 12.754,3.822 12.011,4.13 11.286,4.456 10.706,4.738 10.099,4.963 9.474,5.127 9.034,5.276 8.557,5.276 8.116,5.127 7.351,4.704 6.674,4.138 6.123,3.46 5.437,2.566 4.819,1.621 4.275,0.634 4.148,0.453 3.714,-0.091 3.388,-0.544 l -0.254,0.091 -2.21,1.25 -0.489,0.29 C -0.743,1.123 -0.851,0.725 0,0"
           style="fill:#000000;fill-opacity:1;fill-rule:evenodd;stroke:none"
           id="path3110" /></g><g
         id="g3112"
         transform="translate(583.8592,3396.4463)"><path
           d="m 0,0 c -0.092,-0.038 -0.173,-0.1 -0.234,-0.18 -0.06,-0.079 -0.098,-0.174 -0.11,-0.273 H -0.58 c -0.204,-0.027 -0.411,-0.027 -0.616,0 -0.225,0.012 -0.439,0.105 -0.602,0.261 -0.163,0.156 -0.264,0.366 -0.285,0.59 -0.011,0.297 0.058,0.591 0.199,0.852 0.173,0.439 0.493,0.804 0.906,1.032 C -0.254,2.717 0.435,2.065 0.598,1.377 0.694,1.114 0.686,0.825 0.575,0.569 0.463,0.312 0.258,0.108 0,0 M 0.362,4.058 C 0.006,4.218 -0.379,4.302 -0.77,4.302 -1.16,4.302 -1.546,4.218 -1.902,4.058 -2.466,3.729 -2.941,3.27 -3.288,2.718 -3.635,2.166 -3.843,1.538 -3.895,0.887 c -0.04,-0.353 0,-0.71 0.117,-1.046 0.116,-0.335 0.307,-0.641 0.557,-0.893 0.251,-0.252 0.555,-0.444 0.889,-0.563 0.335,-0.119 0.692,-0.162 1.046,-0.124 0.269,-0.002 0.538,0.034 0.797,0.108 0.36,0.097 0.707,0.237 1.033,0.417 0.071,0.031 0.134,0.079 0.185,0.138 0.05,0.06 0.086,0.131 0.104,0.206 0.584,0.306 1.024,0.829 1.224,1.456 0.2,0.628 0.144,1.309 -0.155,1.896 C 1.598,3.177 1.05,3.738 0.362,4.058"
           style="fill:#000000;fill-opacity:1;fill-rule:evenodd;stroke:none"
           id="path3114" /></g><g
         id="g3116"
         transform="translate(616.3589,3410.4497)"><path
           d="m 0,0 c -0.097,-0.036 -0.182,-0.099 -0.244,-0.183 -0.061,-0.084 -0.096,-0.184 -0.1,-0.288 H -0.58 c -0.204,-0.035 -0.412,-0.035 -0.616,0 -0.223,0.008 -0.437,0.096 -0.6,0.25 -0.163,0.153 -0.266,0.36 -0.287,0.583 -0.012,0.303 0.056,0.603 0.199,0.87 0.178,0.436 0.497,0.799 0.906,1.032 C -0.254,2.699 0.435,2.029 0.598,1.359 0.689,1.099 0.678,0.813 0.567,0.561 0.456,0.309 0.253,0.108 0,0 M 1.902,2.427 C 1.77,2.792 1.564,3.124 1.296,3.404 1.028,3.684 0.705,3.906 0.347,4.054 -0.011,4.202 -0.395,4.274 -0.783,4.266 -1.17,4.257 -1.551,4.168 -1.902,4.004 -2.471,3.681 -2.95,3.223 -3.298,2.67 -3.646,2.116 -3.851,1.485 -3.895,0.833 c -0.028,-0.642 0.15,-1.277 0.507,-1.811 0.587,-0.515 1.324,-0.826 2.102,-0.888 0.269,-0.002 0.538,0.035 0.797,0.109 0.357,0.097 0.703,0.231 1.032,0.398 0.073,0.035 0.137,0.085 0.187,0.148 0.051,0.063 0.086,0.136 0.103,0.215 0.299,0.151 0.564,0.36 0.78,0.615 0.216,0.255 0.379,0.551 0.478,0.871 0.1,0.319 0.135,0.655 0.102,0.988 C 2.161,1.811 2.062,2.134 1.902,2.427"
           style="fill:#000000;fill-opacity:1;fill-rule:evenodd;stroke:none"
           id="path3118" /></g><g
         id="g3120"
         transform="translate(612.8988,3407.8411)"><path
           d="M 0,0 C 0.688,0.743 0.29,1.812 -0.58,1.159 -0.779,0.978 -0.996,0.815 -1.196,0.616 -1.775,0.054 -2.355,-0.544 -2.88,-1.196 -3.406,-1.848 -3.859,-2.645 -5.091,-1.848 -5.782,-1.294 -6.43,-0.688 -7.029,-0.036 -7.431,0.39 -7.888,0.762 -8.388,1.069 -8.555,1.162 -8.74,1.218 -8.93,1.234 -9.121,1.249 -9.313,1.224 -9.493,1.159 c -0.76,-0.323 -1.468,-0.756 -2.101,-1.286 -1.114,-1.013 -2.15,-2.109 -3.098,-3.279 -0.729,-0.909 -1.597,-1.698 -2.572,-2.337 -0.162,0.191 -0.313,0.391 -0.453,0.598 -0.598,0.544 -1.287,1.268 -2.029,1.812 -0.533,0.435 -1.149,0.756 -1.812,0.942 -0.636,0.189 -1.32,0.138 -1.92,-0.145 -0.677,-0.421 -1.287,-0.94 -1.812,-1.54 l -2.119,-1.993 c -0.888,-1.014 0,-1.268 1.159,-0.525 l 1.812,1.63 c 0.437,0.468 0.945,0.865 1.503,1.178 0.28,0.109 0.59,0.109 0.87,0 0.453,-0.167 0.866,-0.426 1.214,-0.761 0.67,-0.562 1.268,-1.286 1.811,-1.812 0,0 0.707,-0.797 0.997,-1.032 0.152,-0.131 0.337,-0.218 0.534,-0.253 0.198,-0.035 0.401,-0.017 0.589,0.053 0.751,0.35 1.447,0.808 2.065,1.359 1.083,1.027 2.1,2.123 3.044,3.279 0.731,0.913 1.606,1.703 2.59,2.337 0.338,-0.152 0.654,-0.347 0.942,-0.58 0.818,-0.821 1.723,-1.55 2.699,-2.174 0.528,-0.292 1.118,-0.453 1.721,-0.471 0.314,0.018 0.614,0.139 0.852,0.345 0.434,0.451 0.817,0.949 1.141,1.485 0.489,0.598 0.996,1.196 1.54,1.812 l 0.29,0.29 z"
           style="fill:#000000;fill-opacity:1;fill-rule:evenodd;stroke:none"
           id="path3122" /></g></g></g></svg>
