<svg xmlns="http://www.w3.org/2000/svg" id="Calque_2" data-name="Calque 2" viewBox="0 0 73.76 73.76"><defs><style>      .cls-1 {        fill: #ccdc7c;      }    </style></defs><g id="icones"><g><path class="cls-1" d="m17.23,32.05c2.67,0,4.83,2.16,4.83,4.83h12.41c0-9.52-7.72-17.23-17.23-17.23S0,27.36,0,36.88s7.72,17.23,17.23,17.23v-12.41c-2.67,0-4.83-2.16-4.83-4.83s2.16-4.83,4.83-4.83Z"></path><path class="cls-1" d="m36.88,12.41c2.66,0,4.83,2.16,4.83,4.83s-2.16,4.83-4.83,4.83v12.41c9.52,0,17.23-7.72,17.23-17.23S46.4,0,36.88,0s-17.23,7.72-17.23,17.23h12.41c0-2.66,2.16-4.83,4.83-4.83Z"></path><path class="cls-1" d="m56.53,19.65v12.41c2.66,0,4.83,2.16,4.83,4.83s-2.16,4.83-4.83,4.83-4.83-2.16-4.83-4.83h-12.41c0,9.52,7.72,17.23,17.23,17.23s17.23-7.72,17.23-17.23-7.72-17.23-17.23-17.23Z"></path><path class="cls-1" d="m36.88,61.35c-2.67,0-4.83-2.16-4.83-4.83s2.16-4.83,4.83-4.83v-12.41c-9.52,0-17.23,7.72-17.23,17.23s7.72,17.23,17.23,17.23,17.23-7.72,17.23-17.23h-12.41c0,2.66-2.16,4.83-4.83,4.83Z"></path></g></g></svg>