<svg xmlns="http://www.w3.org/2000/svg" xmlns:xlink="http://www.w3.org/1999/xlink" id="Calque_1" x="0px" y="0px" viewBox="0 0 526.3 255.1" style="enable-background:new 0 0 526.3 255.1;" xml:space="preserve">  <style type="text/css">	.st0{fill:#00B140;}</style>  <g>	<g>		<g>			<path class="st0" d="M295,151.4c-21.8,0-40.8-12.9-50.5-31.8c-3.2,11.6-8.2,22.4-14.9,31.9c16,19.1,39.4,31.1,65.4,31.1     c26,0,49.4-12.1,65.4-31.2c-6.6-9.5-11.7-20.3-14.9-31.9C335.8,138.4,316.8,151.4,295,151.4z"></path>			<path class="st0" d="M244.5,62.9c9.7-18.9,28.7-31.7,50.5-31.7c21.8,0,40.8,12.9,50.5,31.8c3.1-11.5,8.2-22.3,14.9-31.8     C344.4,12.1,321,0,295,0c-26,0-49.4,12-65.4,31.1c-2.5,2.9-4.7,5.9-6.8,9.1c-6.7,10.5-11.4,22.5-13.5,35.5h0c0,0.2,0,0.5-0.1,0.7     c-0.3,1.8-0.5,3.6-0.7,5.4c-0.1,0.6-0.2,1.3-0.2,1.9c-0.2,2.5-0.3,5-0.3,7.5c0,10.1-2.5,19.8-6.7,28.2     c-9.7,18.9-28.7,31.9-50.5,31.9c-15.6,0-29.7-6.6-40-17.2L201.3,63c0,0,0,0,0,0c3.1-11.5,8.2-22.3,14.9-31.8     C200.2,12.1,176.8,0,150.8,0c-48,0-87,40.9-87,91.2c0,12.6,2.4,24.6,6.8,35.5L2,180.7c-0.7,0.6-1.4,1.2-2,1.9h49.2L86.8,153     c15.9,18.1,38.7,29.5,64,29.5c26,0,49.4-12.1,65.4-31.2c2.4-2.9,4.6-5.9,6.7-9c9.4-14.6,14.9-32.2,14.9-51.1     C237.7,81,240.2,71.3,244.5,62.9z M93.6,91.2c0-33.1,25.7-60,57.3-60c11,0,21.3,3.3,30,9l-85.2,67C94.3,102,93.6,96.7,93.6,91.2z     "></path>			<path class="st0" d="M439.1,0c-26,0-49.5,12.1-65.4,31.2c-2.5,2.9-4.7,5.9-6.8,9.1c-9.4,14.6-14.9,32.1-14.9,50.9     c0,18.9,5.5,36.4,14.9,51c2.1,3.2,4.3,6.2,6.8,9.1c15.9,19.1,39.4,31.2,65.4,31.2c48,0,87-40.9,87-91.3     C526.1,40.9,487.1,0,439.1,0z M439.1,151.4c-21.8,0-40.8-12.9-50.5-31.8c-4.3-8.4-6.8-18.1-6.8-28.3c0-10.2,2.5-19.9,6.8-28.3     c9.7-18.9,28.7-31.7,50.5-31.7c31.6,0,57.3,26.9,57.3,60C496.4,124.4,470.7,151.4,439.1,151.4z"></path>		</g>	</g>	<g>		<path class="st0" d="M3.8,227.3v10.3H21v3.4H3.8v10.4H23v3.4H0.3v-30.8H23v3.4H3.8z"></path>		<path class="st0" d="M66.8,223.9v30.8h-4.1l-19.1-26v26h-3.5v-30.8h4.1l19.1,25.9v-25.9H66.8z"></path>		<path class="st0" d="M111.2,223.9l-12.5,30.8h-4l-12.5-30.8h3.8l10.7,26.9l10.7-26.9H111.2z"></path>		<path class="st0" d="M130.2,254.7h-3.5v-30.8h3.5V254.7z"></path>		<path class="st0" d="M152.8,254.7h-3.5v-30.8H164c3.1,0,5.7,0.9,7.5,2.6c1.9,1.7,2.8,4.1,2.8,7c0,3.9-1.6,6.5-4.8,7.9    c-0.9,0.4-1.8,0.7-2.7,0.9l8.1,12.4h-4.1l-7.5-11.8h-10.7V254.7z M152.8,239.6h10.7c3.3,0,5.6-1,6.8-3.1c0.5-0.8,0.7-1.8,0.7-3    c0-2-0.7-3.5-2-4.6c-1.3-1.1-3.1-1.7-5.3-1.7h-10.9V239.6z"></path>		<path class="st0" d="M205.7,223.5c4.6,0,8.4,1.5,11.3,4.6c2.9,3,4.3,6.7,4.3,11.2s-1.4,8.2-4.3,11.2c-3,3.1-6.7,4.6-11.3,4.6    c-4.6,0-8.4-1.5-11.3-4.6c-2.9-3-4.3-6.7-4.3-11.2s1.4-8.2,4.3-11.2C197.3,225.1,201.1,223.5,205.7,223.5z M205.7,251.7    c3.7,0,6.6-1.2,8.9-3.6c2.2-2.3,3.3-5.2,3.3-8.8c0-3.6-1.1-6.5-3.3-8.8c-2.3-2.4-5.2-3.6-8.9-3.6c-3.7,0-6.6,1.2-8.9,3.6    c-2.2,2.3-3.3,5.2-3.3,8.8c0,3.6,1.1,6.5,3.3,8.8C199.1,250.5,202,251.7,205.7,251.7z"></path>		<path class="st0" d="M265.1,223.9v30.8H261l-19.1-26v26h-3.5v-30.8h4.1l19.1,25.9v-25.9H265.1z"></path>		<path class="st0" d="M310.8,223.9v30.8h-4.1l-19.1-26v26h-3.5v-30.8h4.1l19.1,25.9v-25.9H310.8z"></path>		<path class="st0" d="M333.4,227.3v10.3h17.1v3.4h-17.1v10.4h19.2v3.4h-22.7v-30.8h22.7v3.4H333.4z"></path>		<path class="st0" d="M399.7,223.9v30.8h-3.5v-25.5l-11.4,14.7l-11.6-14.7v25.5h-3.5v-30.8h4.1l11,14.6l10.9-14.6H399.7z"></path>		<path class="st0" d="M422.3,227.3v10.3h17.1v3.4h-17.1v10.4h19.2v3.4h-22.7v-30.8h22.7v3.4H422.3z"></path>		<path class="st0" d="M485.3,223.9v30.8h-4.1l-19.1-26v26h-3.5v-30.8h4.1l19.1,25.9v-25.9H485.3z"></path>		<path class="st0" d="M526.3,227.3h-10.8v27.5H512v-27.5h-10.8v-3.4h25V227.3z"></path>	</g></g></svg>