<svg xmlns="http://www.w3.org/2000/svg" id="Calque_2" data-name="Calque 2" viewBox="0 0 74.28 74.28"><defs><style>      .cls-1 {        fill: #c6f9da;      }    </style></defs><g id="icones"><path class="cls-1" d="m63.78,37.14l4.98-4.98c7.36-7.36,7.36-19.29,0-26.64h0c-7.36-7.36-19.29-7.36-26.65,0l-4.98,4.98-4.98-4.98C24.81-1.84,12.88-1.84,5.52,5.52h0c-7.36,7.36-7.36,19.29,0,26.65l4.98,4.98-4.98,4.98c-7.36,7.36-7.36,19.29,0,26.64h0c7.36,7.36,19.29,7.36,26.65,0l4.98-4.98,4.98,4.98c7.36,7.36,19.29,7.36,26.65,0h0c7.36-7.36,7.36-19.29,0-26.64l-4.98-4.98Z"></path></g></svg>